<svg width="1600" height="265" viewBox="0 0 1600 265" fill="none" xmlns="http://www.w3.org/2000/svg">
<path d="M1256.06 89.6861H1289.05V231.838H1301.71V77.3672H1256.06V89.6861Z" fill="#B29377"/>
<path d="M1385.97 135.075H1359.56L1364.49 89.522H1428.32V77.2031H1353.43L1346.26 143.644L1349.68 147.296H1385.81C1396.68 147.296 1406.71 151.117 1414.06 158.07C1421.34 164.952 1425.34 174.308 1425.34 184.407C1425.34 205.66 1409.38 221.701 1388.21 221.701C1367.05 221.701 1352.66 208.202 1351.03 188.101L1350.82 185.475H1338.18L1338.39 188.537C1339.29 201.403 1344.71 213.048 1353.69 221.322C1362.71 229.637 1374.97 234.202 1388.21 234.202C1416.66 234.202 1438.11 212.795 1438.11 184.421C1438.11 171.049 1432.84 158.631 1423.26 149.459C1413.6 140.202 1400.35 135.089 1385.97 135.089V135.075Z" fill="#B29377"/>
<path d="M1514.41 135.448L1557.08 83.8971V77.2109H1468.7V89.5298H1537.15L1494.93 140.66V147.177H1510.15C1532.75 147.177 1549.79 163.106 1549.79 184.246C1549.79 205.387 1533.78 221.695 1512.56 221.695C1491.33 221.695 1477.16 208.182 1475.49 188.081L1475.26 185.454H1462.62L1462.84 188.531C1464.82 215.416 1485.26 234.182 1512.56 234.182C1539.85 234.182 1562.56 212.775 1562.56 184.401C1562.56 157.628 1542.05 136.993 1514.41 135.434V135.448Z" fill="#B29377"/>
<path d="M138.698 43.083C174.531 43.083 206.796 64.3637 220.913 97.303L232.192 92.471C216.137 55.0227 179.433 30.8203 138.698 30.8203C82.6235 30.8203 37 76.4438 37 132.504C37 188.564 82.6235 234.188 138.698 234.188C179.433 234.188 216.137 209.985 232.192 172.537L220.913 167.705C206.796 200.644 174.517 221.925 138.698 221.925C89.3939 221.925 49.2767 181.808 49.2767 132.504C49.2767 83.2002 89.3939 43.083 138.698 43.083Z" fill="#B29377"/>
<path d="M491.163 30.7969H478.9V234.178H491.163V30.7969Z" fill="#B29377"/>
<path d="M554.767 30.7969H542.504V234.178H554.767V30.7969Z" fill="#B29377"/>
<path d="M1010.67 30.7969H998.41V234.178H1010.67V30.7969Z" fill="#B29377"/>
<path d="M427.42 160.991C426.774 132.307 409.159 106.855 382.541 96.1513C372.441 92.0918 361.962 90.5045 351.751 91.1085C351.638 91.1085 351.512 91.1085 351.399 91.1226C351.104 91.1366 350.809 91.1647 350.514 91.1788C338.42 92.0637 327.099 95.9827 317.35 102.205C317.238 102.276 317.126 102.346 317.027 102.416C316.845 102.528 316.662 102.655 316.479 102.781C306.745 109.158 298.486 117.966 292.712 128.739C292.684 128.796 292.642 128.866 292.614 128.922C292.46 129.217 292.305 129.498 292.165 129.793C292.01 130.102 291.842 130.411 291.687 130.72C291.645 130.804 291.603 130.903 291.561 130.987C288.428 137.336 286.209 144.219 285.071 151.481C285.071 151.495 285.071 151.523 285.071 151.537C284.987 152.071 284.917 152.605 284.846 153.138C284.846 153.223 284.832 153.293 284.818 153.377C284.762 153.869 284.692 154.361 284.65 154.852C284.65 154.965 284.622 155.077 284.608 155.189C284.551 155.667 284.509 156.144 284.467 156.622C284.467 156.734 284.453 156.833 284.439 156.945C284.397 157.451 284.369 157.956 284.341 158.462C284.341 158.518 284.341 158.575 284.341 158.631C284.327 158.94 284.299 159.249 284.285 159.558C283.554 176.695 288.948 192.694 298.514 205.448C298.542 205.476 298.57 205.518 298.584 205.546C298.767 205.785 298.935 206.01 299.118 206.249C304.47 213.216 311.142 219.256 318.952 223.948C319.008 223.976 319.064 224.018 319.12 224.046C319.373 224.2 319.626 224.341 319.879 224.481C320.202 224.664 320.525 224.861 320.848 225.043C320.89 225.057 320.918 225.085 320.96 225.099C330.245 230.297 340.836 233.499 352.158 234.075C352.326 234.075 352.495 234.089 352.664 234.103C352.706 234.103 352.762 234.103 352.804 234.103C353.422 234.131 354.04 234.131 354.658 234.145C355.065 234.145 355.473 234.174 355.88 234.174C356.035 234.174 356.203 234.174 356.358 234.174C357.215 234.174 358.057 234.145 358.914 234.117C359.294 234.103 359.659 234.075 360.038 234.061C360.754 234.019 361.457 233.963 362.173 233.907C362.496 233.879 362.833 233.85 363.156 233.822C364.168 233.724 365.179 233.598 366.176 233.457C366.331 233.429 366.5 233.401 366.654 233.387C367.539 233.246 368.424 233.106 369.295 232.937C369.562 232.881 369.843 232.825 370.109 232.783C370.994 232.6 371.879 232.404 372.764 232.193C372.905 232.165 373.045 232.137 373.172 232.095C374.211 231.842 375.251 231.547 376.276 231.252C376.43 231.21 376.599 231.153 376.754 231.097C377.638 230.83 378.509 230.535 379.38 230.24C379.577 230.17 379.774 230.114 379.956 230.044C381.979 229.313 383.973 228.499 385.926 227.6C386.109 227.515 386.277 227.431 386.46 227.347C387.359 226.925 388.258 226.476 389.143 226.012C389.213 225.97 389.283 225.942 389.353 225.9C390.337 225.38 391.306 224.833 392.275 224.271C392.373 224.214 392.458 224.158 392.556 224.102C393.441 223.582 394.298 223.035 395.155 222.473C395.253 222.402 395.365 222.332 395.464 222.276C397.346 221.026 399.172 219.677 400.942 218.259C401.026 218.188 401.11 218.118 401.195 218.062C402.965 216.615 404.664 215.084 406.28 213.469C406.322 213.427 406.378 213.384 406.42 213.342C412.081 207.696 416.857 201.066 420.439 193.579L420.396 193.551H406.49C403.92 197.751 400.886 201.571 397.444 204.957C397.051 205.336 396.672 205.715 396.278 206.08C396.152 206.193 396.026 206.305 395.899 206.417C395.478 206.797 395.056 207.176 394.635 207.541C394.508 207.653 394.382 207.752 394.256 207.864C393.834 208.229 393.399 208.581 392.963 208.932C392.823 209.044 392.682 209.142 392.556 209.255C392.135 209.592 391.699 209.929 391.264 210.252C391.109 210.364 390.955 210.477 390.786 210.603C390.365 210.912 389.943 211.207 389.508 211.502C389.325 211.629 389.157 211.741 388.974 211.867C388.567 212.148 388.145 212.415 387.724 212.682C387.527 212.809 387.331 212.935 387.134 213.047C386.727 213.3 386.319 213.553 385.912 213.792C385.701 213.918 385.491 214.045 385.266 214.157C384.858 214.382 384.451 214.621 384.044 214.831C383.819 214.958 383.594 215.07 383.369 215.197C382.962 215.407 382.555 215.618 382.147 215.815C381.909 215.927 381.684 216.039 381.445 216.152C381.038 216.348 380.63 216.531 380.209 216.728C379.97 216.84 379.731 216.938 379.493 217.051C379.085 217.233 378.664 217.402 378.242 217.57C378.004 217.669 377.751 217.767 377.512 217.865C377.091 218.034 376.669 218.188 376.248 218.343C376.009 218.427 375.756 218.526 375.503 218.61C375.082 218.764 374.647 218.905 374.225 219.045C373.972 219.13 373.719 219.2 373.467 219.284C373.045 219.411 372.61 219.551 372.188 219.663C371.922 219.734 371.669 219.804 371.402 219.874C370.98 219.986 370.559 220.099 370.123 220.211C369.857 220.281 369.576 220.338 369.309 220.408C368.887 220.506 368.48 220.604 368.059 220.689C367.764 220.745 367.483 220.801 367.188 220.857C366.78 220.942 366.373 221.012 365.98 221.082C365.671 221.138 365.348 221.18 365.039 221.237C364.659 221.293 364.266 221.349 363.887 221.405C363.55 221.447 363.199 221.489 362.861 221.532C362.496 221.574 362.145 221.616 361.78 221.658C361.415 221.7 361.035 221.728 360.656 221.756C360.319 221.784 359.982 221.812 359.645 221.827C359.251 221.855 358.844 221.869 358.451 221.883C358.128 221.883 357.819 221.911 357.496 221.925C357.088 221.925 356.667 221.925 356.259 221.939C355.95 221.939 355.627 221.939 355.318 221.939C354.925 221.939 354.518 221.925 354.11 221.911C353.787 221.911 353.464 221.897 353.155 221.883C352.284 221.841 351.413 221.784 350.557 221.7C350.248 221.672 349.924 221.63 349.615 221.602C349.082 221.546 348.562 221.489 348.042 221.419C347.593 221.363 347.143 221.293 346.694 221.223C346.371 221.166 346.062 221.11 345.739 221.054C343.842 220.717 341.96 220.309 340.078 219.79C340.05 219.79 340.022 219.776 339.993 219.762C337.886 219.172 335.808 218.469 333.757 217.641C333.125 217.388 332.493 217.121 331.86 216.84C331.79 216.812 331.72 216.784 331.65 216.742C331.046 216.475 330.456 216.194 329.866 215.913C329.697 215.829 329.543 215.744 329.374 215.66C328.644 215.295 327.941 214.916 327.225 214.536C326.719 214.255 326.214 213.974 325.708 213.679C325.483 213.553 325.273 213.413 325.048 213.286C324.402 212.893 323.77 212.5 323.152 212.078C323.081 212.036 323.011 211.98 322.941 211.938C319.008 209.297 315.398 206.207 312.209 202.737C312.209 202.737 312.195 202.723 312.181 202.709C310.987 201.417 309.863 200.054 308.796 198.664C308.571 198.383 308.36 198.088 308.15 197.793C307.925 197.484 307.7 197.175 307.476 196.866C301.351 188.171 297.601 177.945 296.744 167.283H427.63L427.49 161.005L427.42 160.991ZM296.983 154.993C296.997 154.838 297.011 154.684 297.039 154.529C297.081 154.192 297.137 153.869 297.179 153.532C297.278 152.872 297.39 152.225 297.516 151.579C297.601 151.13 297.699 150.68 297.797 150.231C297.882 149.823 297.98 149.402 298.078 148.995C298.177 148.559 298.289 148.11 298.401 147.674C298.472 147.379 298.556 147.098 298.64 146.803C298.865 145.989 299.104 145.16 299.371 144.345C299.455 144.106 299.525 143.854 299.609 143.615C299.904 142.73 300.227 141.845 300.579 140.974C300.663 140.777 300.733 140.567 300.817 140.356C301.14 139.541 301.492 138.755 301.857 137.968C301.927 137.814 301.997 137.659 302.068 137.505C302.334 136.929 302.629 136.353 302.91 135.791C303.093 135.426 303.262 135.06 303.458 134.709C303.571 134.485 303.697 134.274 303.823 134.049C308.627 125.298 315.58 117.924 323.924 112.572C324.261 112.361 324.598 112.122 324.95 111.912C325.104 111.827 325.259 111.743 325.399 111.645C333.069 107.065 341.707 104.242 350.669 103.441C351.175 103.399 351.68 103.343 352.2 103.315C352.383 103.315 352.579 103.315 352.762 103.287C354.616 103.189 356.484 103.175 358.366 103.259C364.94 103.526 371.57 104.888 378.004 107.487C398.09 115.564 411.997 133.796 414.722 154.95H297.025L296.983 154.993Z" fill="#B29377"/>
<path d="M1205.51 160.991C1204.87 132.307 1187.25 106.855 1160.63 96.1513C1150.53 92.0918 1140.05 90.5045 1129.84 91.1085C1129.73 91.1085 1129.6 91.1085 1129.49 91.1226C1129.2 91.1366 1128.9 91.1647 1128.61 91.1788C1116.51 92.0637 1105.19 95.9827 1095.44 102.205C1095.33 102.276 1095.22 102.346 1095.12 102.416C1094.94 102.528 1094.75 102.655 1094.57 102.781C1084.84 109.158 1076.58 117.966 1070.8 128.739C1070.78 128.796 1070.73 128.866 1070.71 128.922C1070.55 129.217 1070.4 129.498 1070.26 129.793C1070.1 130.102 1069.93 130.411 1069.78 130.72C1069.74 130.804 1069.69 130.903 1069.65 130.987C1066.52 137.336 1064.3 144.219 1063.16 151.481C1063.16 151.495 1063.16 151.523 1063.16 151.537C1063.08 152.071 1063.01 152.605 1062.94 153.138C1062.94 153.223 1062.92 153.293 1062.91 153.377C1062.85 153.869 1062.78 154.361 1062.74 154.852C1062.74 154.965 1062.71 155.077 1062.7 155.189C1062.64 155.667 1062.6 156.144 1062.56 156.622C1062.56 156.734 1062.54 156.833 1062.53 156.945C1062.49 157.451 1062.46 157.956 1062.43 158.462C1062.43 158.518 1062.43 158.575 1062.43 158.631C1062.42 158.94 1062.39 159.249 1062.38 159.558C1061.65 176.695 1067.04 192.694 1076.61 205.448C1076.63 205.476 1076.66 205.518 1076.68 205.546C1076.86 205.785 1077.03 206.01 1077.21 206.249C1082.56 213.216 1089.23 219.256 1097.04 223.948C1097.1 223.976 1097.16 224.018 1097.21 224.046C1097.46 224.2 1097.72 224.341 1097.97 224.481C1098.29 224.664 1098.62 224.861 1098.94 225.043C1098.98 225.057 1099.01 225.085 1099.05 225.099C1108.34 230.297 1118.93 233.499 1130.25 234.075C1130.42 234.075 1130.59 234.089 1130.76 234.103C1130.8 234.103 1130.85 234.103 1130.9 234.103C1131.51 234.131 1132.13 234.131 1132.75 234.145C1133.16 234.145 1133.56 234.174 1133.97 234.174C1134.13 234.174 1134.29 234.174 1134.45 234.174C1135.31 234.174 1136.15 234.145 1137.01 234.117C1137.39 234.103 1137.75 234.075 1138.13 234.061C1138.85 234.019 1139.55 233.963 1140.26 233.907C1140.59 233.879 1140.93 233.85 1141.25 233.822C1142.26 233.724 1143.27 233.598 1144.27 233.457C1144.42 233.429 1144.59 233.401 1144.75 233.387C1145.63 233.246 1146.52 233.106 1147.39 232.937C1147.65 232.881 1147.93 232.825 1148.2 232.783C1149.09 232.6 1149.97 232.404 1150.86 232.193C1151 232.165 1151.14 232.137 1151.26 232.095C1152.3 231.842 1153.34 231.547 1154.37 231.252C1154.52 231.21 1154.69 231.153 1154.85 231.097C1155.73 230.83 1156.6 230.535 1157.47 230.24C1157.67 230.17 1157.87 230.114 1158.05 230.044C1160.07 229.313 1162.07 228.499 1164.02 227.6C1164.2 227.515 1164.37 227.431 1164.55 227.347C1165.45 226.925 1166.35 226.476 1167.23 226.012C1167.3 225.97 1167.37 225.942 1167.45 225.9C1168.43 225.38 1169.4 224.833 1170.37 224.271C1170.47 224.214 1170.55 224.158 1170.65 224.102C1171.53 223.582 1172.39 223.035 1173.25 222.473C1173.34 222.402 1173.46 222.332 1173.56 222.276C1175.44 221.026 1177.26 219.677 1179.03 218.259C1179.12 218.188 1179.2 218.118 1179.29 218.062C1181.06 216.615 1182.76 215.084 1184.37 213.469C1184.41 213.427 1184.47 213.384 1184.51 213.342C1190.17 207.696 1194.95 201.066 1198.53 193.579L1198.49 193.551H1184.58C1182.01 197.751 1178.98 201.571 1175.54 204.957C1175.14 205.336 1174.76 205.715 1174.37 206.08C1174.24 206.193 1174.12 206.305 1173.99 206.417C1173.57 206.797 1173.15 207.176 1172.73 207.541C1172.6 207.653 1172.47 207.752 1172.35 207.864C1171.93 208.229 1171.49 208.581 1171.06 208.932C1170.91 209.044 1170.77 209.142 1170.65 209.255C1170.23 209.592 1169.79 209.929 1169.36 210.252C1169.2 210.364 1169.05 210.477 1168.88 210.603C1168.46 210.912 1168.04 211.207 1167.6 211.502C1167.42 211.629 1167.25 211.741 1167.07 211.867C1166.66 212.148 1166.24 212.415 1165.82 212.682C1165.62 212.809 1165.42 212.935 1165.23 213.047C1164.82 213.3 1164.41 213.553 1164 213.792C1163.79 213.918 1163.58 214.045 1163.36 214.157C1162.95 214.382 1162.54 214.621 1162.14 214.831C1161.91 214.958 1161.69 215.07 1161.46 215.197C1161.05 215.407 1160.65 215.618 1160.24 215.815C1160 215.927 1159.78 216.039 1159.54 216.152C1159.13 216.348 1158.72 216.531 1158.3 216.728C1158.06 216.84 1157.82 216.938 1157.58 217.051C1157.18 217.233 1156.76 217.402 1156.33 217.57C1156.1 217.669 1155.84 217.767 1155.6 217.865C1155.18 218.034 1154.76 218.188 1154.34 218.343C1154.1 218.427 1153.85 218.526 1153.6 218.61C1153.17 218.764 1152.74 218.905 1152.32 219.045C1152.06 219.13 1151.81 219.2 1151.56 219.284C1151.14 219.411 1150.7 219.551 1150.28 219.663C1150.01 219.734 1149.76 219.804 1149.49 219.874C1149.07 219.986 1148.65 220.099 1148.22 220.211C1147.95 220.281 1147.67 220.338 1147.4 220.408C1146.98 220.506 1146.57 220.604 1146.15 220.689C1145.86 220.745 1145.57 220.801 1145.28 220.857C1144.87 220.942 1144.46 221.012 1144.07 221.082C1143.76 221.138 1143.44 221.18 1143.13 221.237C1142.75 221.293 1142.36 221.349 1141.98 221.405C1141.64 221.447 1141.29 221.489 1140.95 221.532C1140.59 221.574 1140.24 221.616 1139.87 221.658C1139.51 221.7 1139.13 221.728 1138.75 221.756C1138.41 221.784 1138.07 221.812 1137.74 221.827C1137.34 221.855 1136.94 221.869 1136.54 221.883C1136.22 221.883 1135.91 221.911 1135.59 221.925C1135.18 221.925 1134.76 221.925 1134.35 221.939C1134.04 221.939 1133.72 221.939 1133.41 221.939C1133.02 221.939 1132.61 221.925 1132.2 221.911C1131.88 221.911 1131.56 221.897 1131.25 221.883C1130.38 221.841 1129.51 221.784 1128.65 221.7C1128.34 221.672 1128.02 221.63 1127.71 221.602C1127.19 221.546 1126.65 221.489 1126.13 221.419C1125.68 221.363 1125.23 221.293 1124.79 221.223C1124.46 221.166 1124.15 221.11 1123.83 221.054C1121.93 220.717 1120.05 220.309 1118.17 219.79C1118.14 219.79 1118.11 219.776 1118.09 219.762C1115.98 219.172 1113.9 218.469 1111.85 217.641C1111.22 217.388 1110.58 217.121 1109.95 216.84C1109.88 216.812 1109.81 216.784 1109.74 216.742C1109.14 216.475 1108.55 216.194 1107.96 215.913C1107.79 215.829 1107.63 215.744 1107.47 215.66C1106.74 215.295 1106.03 214.916 1105.32 214.536C1104.81 214.255 1104.31 213.974 1103.8 213.679C1103.58 213.553 1103.36 213.413 1103.14 213.286C1102.49 212.893 1101.86 212.5 1101.24 212.078C1101.17 212.036 1101.1 211.98 1101.03 211.938C1097.1 209.297 1093.49 206.207 1090.3 202.737C1090.3 202.737 1090.29 202.723 1090.27 202.709C1089.08 201.417 1087.96 200.054 1086.89 198.664C1086.66 198.383 1086.45 198.088 1086.24 197.793C1086.02 197.484 1085.79 197.175 1085.57 196.866C1079.44 188.171 1075.69 177.945 1074.84 167.283H1205.72L1205.58 161.005L1205.51 160.991ZM1075.07 154.993C1075.09 154.838 1075.1 154.684 1075.13 154.529C1075.17 154.192 1075.23 153.869 1075.27 153.532C1075.37 152.872 1075.48 152.225 1075.61 151.579C1075.69 151.13 1075.79 150.68 1075.89 150.231C1075.97 149.823 1076.07 149.402 1076.17 148.995C1076.27 148.559 1076.38 148.11 1076.49 147.674C1076.56 147.379 1076.65 147.098 1076.73 146.803C1076.96 145.989 1077.2 145.16 1077.46 144.345C1077.55 144.106 1077.62 143.854 1077.7 143.615C1078 142.73 1078.32 141.845 1078.67 140.974C1078.75 140.777 1078.82 140.567 1078.91 140.356C1079.23 139.541 1079.58 138.755 1079.95 137.968C1080.02 137.814 1080.09 137.659 1080.16 137.505C1080.43 136.929 1080.72 136.353 1081 135.791C1081.18 135.426 1081.35 135.06 1081.55 134.709C1081.66 134.485 1081.79 134.274 1081.92 134.049C1086.72 125.298 1093.67 117.924 1102.02 112.572C1102.35 112.361 1102.69 112.122 1103.04 111.912C1103.2 111.827 1103.35 111.743 1103.49 111.645C1111.16 107.066 1119.8 104.242 1128.76 103.441C1129.27 103.399 1129.77 103.343 1130.29 103.315C1130.47 103.315 1130.67 103.315 1130.85 103.287C1132.71 103.189 1134.58 103.175 1136.46 103.259C1143.03 103.526 1149.66 104.888 1156.1 107.487C1176.18 115.564 1190.09 133.796 1192.81 154.95H1075.12L1075.07 154.993Z" fill="#B29377"/>
<path d="M737.712 120.831C727.936 106.84 713.524 96.7969 697.104 92.4565C669.193 85.068 639.653 94.999 621.87 117.74C611.096 131.534 605.786 148.376 606.671 165.682C606.699 166.145 606.727 166.609 606.756 167.072C606.756 167.157 606.756 167.241 606.77 167.325C607.022 170.935 607.556 174.475 608.329 177.916C608.329 177.916 608.329 177.944 608.329 177.958C608.427 178.394 608.525 178.815 608.638 179.251C608.694 179.461 608.736 179.672 608.792 179.883C608.848 180.108 608.905 180.318 608.961 180.529C612.936 195.685 621.701 209.072 634.259 218.89C639.821 223.245 645.833 226.63 652.084 229.116C652.182 229.158 652.267 229.186 652.365 229.229C652.716 229.369 653.081 229.51 653.432 229.636C653.643 229.72 653.854 229.79 654.065 229.875C654.177 229.917 654.289 229.959 654.402 229.987C661.973 232.698 670.134 234.187 678.632 234.187C695.305 234.187 711.024 228.456 723.525 218.511C723.539 218.497 723.567 218.483 723.581 218.455C728.933 214.185 733.695 209.128 737.684 203.425V233.471H750.691V163.294C750.691 162.577 750.691 161.875 750.691 161.159V90.785H737.684V120.831H737.712ZM737.712 163.097C737.502 175.683 733.274 188.142 725.183 198.495C709.212 218.918 682.397 225.97 659.178 217.879C659.121 217.851 659.051 217.837 658.995 217.809C658.658 217.682 658.307 217.556 657.97 217.429C657.787 217.359 657.59 217.289 657.408 217.219C657.197 217.134 656.986 217.05 656.762 216.966C656.452 216.84 656.144 216.713 655.849 216.587C655.764 216.545 655.666 216.516 655.582 216.474C639.316 209.549 626.772 195.517 621.856 178.31C621.856 178.281 621.842 178.253 621.828 178.239C621.743 177.916 621.659 177.607 621.575 177.284C621.519 177.073 621.462 176.849 621.406 176.638C621.378 176.498 621.336 176.371 621.308 176.231C620.76 173.955 620.325 171.651 620.044 169.292C619.917 168.308 619.833 167.339 619.763 166.356C619.763 166.356 619.763 166.342 619.763 166.328C619.735 165.892 619.707 165.443 619.678 165.007C619.636 164.052 619.608 163.083 619.608 162.114C619.608 129.554 646.1 103.062 678.66 103.062C700.728 103.062 720.744 115.282 730.914 134.568C730.998 134.737 731.096 134.905 731.181 135.074C731.419 135.552 731.658 136.029 731.897 136.521C731.981 136.703 732.066 136.886 732.164 137.069C732.389 137.546 732.599 138.024 732.81 138.501C735.999 145.806 737.628 153.545 737.74 161.285V163.097H737.712Z" fill="#B29377"/>
<path d="M938.983 129.832C938.857 129.579 938.731 129.326 938.604 129.073C933.983 120.098 927.409 111.951 918.953 105.335C905.426 94.7575 888.963 89.4619 871.995 90.094C871.911 90.094 871.826 90.094 871.756 90.094C870.955 90.1221 870.141 90.1642 869.34 90.2344C869.101 90.2485 868.849 90.2766 868.61 90.2906C868.132 90.3328 867.655 90.3749 867.177 90.417C866.77 90.4592 866.376 90.5013 865.969 90.5435C865.913 90.5435 865.857 90.5435 865.8 90.5575C865.562 90.5856 865.323 90.6277 865.084 90.6558C864.325 90.7542 863.581 90.8665 862.823 90.993C862.542 91.0351 862.247 91.0913 861.966 91.1334C861.544 91.2037 861.137 91.2879 860.716 91.3582C860.266 91.4424 859.831 91.5408 859.395 91.6251C859.002 91.7093 858.609 91.7936 858.201 91.8919C857.611 92.0324 857.035 92.1729 856.445 92.3133C856.263 92.3555 856.066 92.4117 855.883 92.4679C845.082 95.3474 835.179 100.657 826.849 108.046C826.737 108.144 826.624 108.242 826.526 108.341C825.992 108.818 825.472 109.296 824.953 109.787C824.644 110.068 824.349 110.363 824.054 110.658C823.885 110.827 823.703 110.995 823.534 111.178C820.598 114.128 817.901 117.33 815.499 120.786V30.7891H802.492V160.903C802.492 161.619 802.492 162.35 802.492 163.066V233.426H815.499V203.38C825.276 217.371 839.688 227.414 856.108 231.754C862.233 233.384 868.441 234.17 874.58 234.17C896.422 234.17 917.45 224.225 931.342 206.47C935.71 200.88 939.11 194.854 941.596 188.575C941.624 188.505 941.652 188.434 941.68 188.364C941.835 187.957 942.003 187.535 942.158 187.128C942.242 186.889 942.326 186.651 942.411 186.412C942.495 186.159 942.593 185.906 942.678 185.653C942.818 185.246 942.959 184.853 943.085 184.445C943.113 184.361 943.141 184.263 943.169 184.178C945.417 177.211 946.639 169.795 946.639 162.097C946.639 150.705 943.97 139.917 939.25 130.324C939.166 130.155 939.082 129.986 938.997 129.818L938.983 129.832ZM930.78 180.231C930.78 180.231 930.752 180.33 930.738 180.372C930.626 180.723 930.499 181.088 930.373 181.439C930.303 181.622 930.246 181.804 930.176 181.987C930.092 182.212 930.022 182.423 929.937 182.647C929.825 182.956 929.699 183.279 929.572 183.588C929.544 183.673 929.502 183.757 929.474 183.841C920.793 205.684 899.456 221.163 874.565 221.163C852.512 221.163 832.496 208.943 822.326 189.657C822.242 189.488 822.143 189.319 822.059 189.137C821.82 188.659 821.582 188.182 821.343 187.704C821.258 187.521 821.16 187.339 821.076 187.156C820.851 186.679 820.64 186.201 820.43 185.723C817.241 178.433 815.612 170.708 815.499 162.982V161.114C815.71 148.528 819.938 136.083 828.029 125.73C829.518 123.82 831.119 122.022 832.805 120.322C832.889 120.238 832.973 120.154 833.058 120.07C833.381 119.76 833.69 119.451 834.013 119.142C834.392 118.791 834.771 118.44 835.151 118.103C835.277 117.991 835.389 117.892 835.516 117.78C842.3 111.796 850.419 107.428 859.241 105.068C859.409 105.026 859.578 104.983 859.746 104.927C860.196 104.815 860.645 104.702 861.109 104.59C861.474 104.506 861.853 104.422 862.219 104.337C862.542 104.267 862.879 104.197 863.202 104.141C863.553 104.07 863.904 104 864.269 103.944C864.48 103.902 864.691 103.874 864.901 103.832C865.548 103.719 866.208 103.621 866.868 103.537C867.079 103.509 867.289 103.48 867.5 103.452C867.837 103.41 868.188 103.368 868.525 103.34C868.877 103.298 869.242 103.27 869.593 103.242C869.818 103.228 870.057 103.199 870.281 103.185C870.927 103.143 871.56 103.101 872.206 103.073C872.304 103.073 872.388 103.073 872.487 103.073C873.175 103.045 873.863 103.031 874.551 103.031C896.928 103.031 916.453 115.546 926.468 133.948C926.468 133.948 926.468 133.976 926.482 133.99C926.664 134.313 926.833 134.65 927.002 134.973C927.128 135.226 927.268 135.493 927.395 135.746C927.437 135.83 927.479 135.914 927.521 136.012C934.236 149.694 935.458 165.609 930.752 180.231H930.78Z" fill="#B29377"/>
</svg>
