<svg width="1920" height="535" viewBox="0 0 1920 535" fill="none" xmlns="http://www.w3.org/2000/svg">
<path d="M770.747 174.618V357H720.236V335.982C707.128 351.802 688.144 359.712 663.284 359.712C646.108 359.712 630.514 355.87 616.502 348.186C602.716 340.502 591.868 329.541 583.958 315.303C576.048 301.065 572.093 284.567 572.093 265.809C572.093 247.051 576.048 230.553 583.958 216.315C591.868 202.077 602.716 191.116 616.502 183.432C630.514 175.748 646.108 171.906 663.284 171.906C686.562 171.906 704.755 179.251 717.863 193.941V174.618H770.747ZM672.437 316.32C685.771 316.32 696.845 311.8 705.659 302.76C714.473 293.494 718.88 281.177 718.88 265.809C718.88 250.441 714.473 238.237 705.659 229.197C696.845 219.931 685.771 215.298 672.437 215.298C658.877 215.298 647.69 219.931 638.876 229.197C630.062 238.237 625.655 250.441 625.655 265.809C625.655 281.177 630.062 293.494 638.876 302.76C647.69 311.8 658.877 316.32 672.437 316.32ZM927.51 171.906C944.46 171.906 959.828 175.861 973.614 183.771C987.626 191.455 998.587 202.416 1006.5 216.654C1014.41 230.666 1018.36 247.051 1018.36 265.809C1018.36 284.567 1014.41 301.065 1006.5 315.303C998.587 329.315 987.626 340.276 973.614 348.186C959.828 355.87 944.46 359.712 927.51 359.712C902.424 359.712 883.327 351.802 870.219 335.982V357H819.708V105.462H872.592V193.941C885.926 179.251 904.232 171.906 927.51 171.906ZM918.357 316.32C931.917 316.32 942.991 311.8 951.579 302.76C960.393 293.494 964.8 281.177 964.8 265.809C964.8 250.441 960.393 238.237 951.579 229.197C942.991 219.931 931.917 215.298 918.357 215.298C904.797 215.298 893.61 219.931 884.796 229.197C876.208 238.237 871.914 250.441 871.914 265.809C871.914 281.177 876.208 293.494 884.796 302.76C893.61 311.8 904.797 316.32 918.357 316.32ZM1119.19 359.712C1098.62 359.712 1082.58 354.288 1071.05 343.44C1059.53 332.366 1053.76 316.772 1053.76 296.658V105.462H1106.65V293.607C1106.65 301.291 1108.57 307.28 1112.41 311.574C1116.48 315.642 1122.13 317.676 1129.36 317.676C1132.07 317.676 1134.78 317.337 1137.5 316.659C1140.43 315.981 1142.69 315.19 1144.28 314.286L1146.65 355.305C1137.84 358.243 1128.68 359.712 1119.19 359.712ZM1261.17 317.337C1270.66 317.337 1279.03 315.981 1286.26 313.269C1293.72 310.331 1300.61 305.811 1306.94 299.709L1335.07 330.219C1317.9 349.881 1292.81 359.712 1259.82 359.712C1239.25 359.712 1221.06 355.757 1205.24 347.847C1189.42 339.711 1177.21 328.524 1168.62 314.286C1160.04 300.048 1155.74 283.889 1155.74 265.809C1155.74 247.955 1159.92 231.909 1168.29 217.671C1176.87 203.207 1188.51 192.02 1203.2 184.11C1218.12 175.974 1234.84 171.906 1253.37 171.906C1270.78 171.906 1286.6 175.635 1300.83 183.093C1315.07 190.325 1326.37 200.947 1334.73 214.959C1343.32 228.745 1347.62 245.13 1347.62 264.114L1212.69 290.217C1216.54 299.257 1222.53 306.037 1230.66 310.557C1239.02 315.077 1249.19 317.337 1261.17 317.337ZM1253.37 211.908C1240.04 211.908 1229.19 216.202 1220.83 224.79C1212.47 233.378 1208.06 245.243 1207.61 260.385L1296.43 243.096C1293.94 233.604 1288.86 226.033 1281.17 220.383C1273.49 214.733 1264.22 211.908 1253.37 211.908Z" fill="#B29377"/>
<path d="M1981.25 360.382L1981.25 178L2031.76 178L2031.76 199.018C2044.87 183.198 2063.86 175.288 2088.72 175.288C2105.89 175.288 2121.49 179.13 2135.5 186.814C2149.28 194.498 2160.13 205.459 2168.04 219.697C2175.95 233.935 2179.91 250.433 2179.91 269.191C2179.91 287.949 2175.95 304.447 2168.04 318.685C2160.13 332.923 2149.28 343.884 2135.5 351.568C2121.49 359.252 2105.89 363.094 2088.72 363.094C2065.44 363.094 2047.25 355.749 2034.14 341.059L2034.14 360.382L1981.25 360.382ZM2079.56 218.68C2066.23 218.68 2055.16 223.2 2046.34 232.24C2037.53 241.506 2033.12 253.823 2033.12 269.191C2033.12 284.559 2037.53 296.763 2046.34 305.803C2055.16 315.069 2066.23 319.702 2079.56 319.702C2093.12 319.702 2104.31 315.069 2113.12 305.803C2121.94 296.763 2126.35 284.559 2126.35 269.191C2126.35 253.823 2121.94 241.506 2113.12 232.24C2104.31 223.2 2093.12 218.68 2079.56 218.68ZM1824.49 363.094C1807.54 363.094 1792.17 359.139 1778.39 351.229C1764.37 343.545 1753.41 332.584 1745.5 318.346C1737.59 304.334 1733.64 287.949 1733.64 269.191C1733.64 250.433 1737.59 233.935 1745.5 219.697C1753.41 205.685 1764.37 194.724 1778.39 186.814C1792.17 179.13 1807.54 175.288 1824.49 175.288C1849.58 175.288 1868.67 183.198 1881.78 199.018L1881.78 178L1932.29 178L1932.29 429.538L1879.41 429.538L1879.41 341.059C1866.07 355.749 1847.77 363.094 1824.49 363.094ZM1833.64 218.68C1820.08 218.68 1809.01 223.2 1800.42 232.24C1791.61 241.506 1787.2 253.823 1787.2 269.191C1787.2 284.559 1791.61 296.763 1800.42 305.803C1809.01 315.069 1820.08 319.702 1833.64 319.702C1847.2 319.702 1858.39 315.069 1867.2 305.803C1875.79 296.763 1880.09 284.559 1880.09 269.191C1880.09 253.823 1875.79 241.506 1867.2 232.24C1858.39 223.2 1847.2 218.68 1833.64 218.68ZM1632.81 175.288C1653.38 175.288 1669.42 180.712 1680.95 191.56C1692.47 202.634 1698.24 218.228 1698.24 238.342L1698.24 429.538L1645.35 429.538L1645.35 241.393C1645.35 233.709 1643.43 227.72 1639.59 223.426C1635.52 219.358 1629.87 217.324 1622.64 217.324C1619.93 217.324 1617.22 217.663 1614.5 218.341C1611.57 219.019 1609.31 219.81 1607.72 220.714L1605.35 179.695C1614.16 176.757 1623.32 175.288 1632.81 175.288ZM1490.83 217.663C1481.34 217.663 1472.97 219.019 1465.74 221.731C1458.28 224.669 1451.39 229.189 1445.06 235.291L1416.93 204.781C1434.1 185.119 1459.19 175.288 1492.18 175.288C1512.75 175.288 1530.94 179.243 1546.76 187.153C1562.58 195.289 1574.79 206.476 1583.38 220.714C1591.96 234.952 1596.26 251.111 1596.26 269.191C1596.26 287.045 1592.08 303.091 1583.71 317.329C1575.13 331.793 1563.49 342.98 1548.8 350.89C1533.88 359.026 1517.16 363.094 1498.63 363.094C1481.22 363.094 1465.4 359.365 1451.17 351.907C1436.93 344.675 1425.63 334.053 1417.27 320.041C1408.68 306.255 1404.38 289.87 1404.38 270.886L1539.31 244.783C1535.46 235.743 1529.47 228.963 1521.34 224.443C1512.98 219.923 1502.81 217.663 1490.83 217.663ZM1498.63 323.092C1511.96 323.092 1522.81 318.798 1531.17 310.21C1539.53 301.622 1543.94 289.757 1544.39 274.615L1455.57 291.904C1458.06 301.396 1463.14 308.967 1470.83 314.617C1478.51 320.267 1487.78 323.092 1498.63 323.092Z" fill="#FFEDED"/>
<path d="M317.253 360.382L317.253 178L367.764 178L367.764 199.018C380.872 183.198 399.856 175.288 424.716 175.288C441.892 175.288 457.486 179.13 471.498 186.814C485.284 194.498 496.132 205.459 504.042 219.697C511.952 233.935 515.907 250.433 515.907 269.191C515.907 287.949 511.952 304.447 504.042 318.685C496.132 332.923 485.284 343.884 471.498 351.568C457.486 359.252 441.892 363.094 424.716 363.094C401.438 363.094 383.245 355.749 370.137 341.059L370.137 360.382L317.253 360.382ZM415.563 218.68C402.229 218.68 391.155 223.2 382.341 232.24C373.527 241.506 369.12 253.823 369.12 269.191C369.12 284.559 373.527 296.763 382.341 305.803C391.155 315.069 402.229 319.702 415.563 319.702C429.123 319.702 440.31 315.069 449.124 305.803C457.938 296.763 462.345 284.559 462.345 269.191C462.345 253.823 457.938 241.506 449.124 232.24C440.31 223.2 429.123 218.68 415.563 218.68ZM160.49 363.094C143.54 363.094 128.172 359.139 114.386 351.229C100.374 343.545 89.4127 332.584 81.5027 318.346C73.5927 304.334 69.6377 287.949 69.6377 269.191C69.6377 250.433 73.5927 233.935 81.5027 219.697C89.4127 205.685 100.374 194.724 114.386 186.814C128.172 179.13 143.54 175.288 160.49 175.288C185.576 175.288 204.673 183.198 217.781 199.018L217.781 178L268.292 178L268.292 429.538L215.408 429.538L215.408 341.059C202.074 355.749 183.768 363.094 160.49 363.094ZM169.643 218.68C156.083 218.68 145.009 223.2 136.421 232.24C127.607 241.506 123.2 253.823 123.2 269.191C123.2 284.559 127.607 296.763 136.421 305.803C145.009 315.069 156.083 319.702 169.643 319.702C183.203 319.702 194.39 315.069 203.204 305.803C211.792 296.763 216.086 284.559 216.086 269.191C216.086 253.823 211.792 241.506 203.204 232.24C194.39 223.2 183.203 218.68 169.643 218.68ZM-31.191 175.288C-10.625 175.288 5.42101 180.712 16.947 191.56C28.473 202.634 34.236 218.228 34.236 238.342L34.236 429.538L-18.648 429.538L-18.648 241.393C-18.648 233.709 -20.569 227.72 -24.411 223.426C-28.479 219.358 -34.129 217.324 -41.361 217.324C-44.073 217.324 -46.785 217.663 -49.497 218.341C-52.435 219.019 -54.695 219.81 -56.277 220.714L-58.65 179.695C-49.836 176.757 -40.683 175.288 -31.191 175.288ZM-173.171 217.663C-182.663 217.663 -191.025 219.019 -198.257 221.731C-205.715 224.669 -212.608 229.189 -218.936 235.291L-247.073 204.781C-229.897 185.119 -204.811 175.288 -171.815 175.288C-151.249 175.288 -133.056 179.243 -117.236 187.153C-101.416 195.289 -89.2121 206.476 -80.6241 220.714C-72.0361 234.952 -67.7421 251.111 -67.7421 269.191C-67.7421 287.045 -71.9231 303.091 -80.2851 317.329C-88.8731 331.793 -100.512 342.98 -115.202 350.89C-130.118 359.026 -146.842 363.094 -165.374 363.094C-182.776 363.094 -198.596 359.365 -212.834 351.907C-227.072 344.675 -238.372 334.053 -246.734 320.041C-255.322 306.255 -259.616 289.87 -259.616 270.886L-124.694 244.783C-128.536 235.743 -134.525 228.963 -142.661 224.443C-151.023 219.923 -161.193 217.663 -173.171 217.663ZM-165.374 323.092C-152.04 323.092 -141.192 318.798 -132.83 310.21C-124.468 301.622 -120.061 289.757 -119.609 274.615L-208.427 291.904C-205.941 301.396 -200.856 308.967 -193.172 314.617C-185.488 320.267 -176.222 323.092 -165.374 323.092Z" fill="#FFEDED"/>
</svg>
