<svg width="120" height="120" viewBox="0 0 120 120" fill="none" xmlns="http://www.w3.org/2000/svg">
<mask id="mask0_1812_1623" style="mask-type:alpha" maskUnits="userSpaceOnUse" x="0" y="0" width="120" height="120">
<rect width="120" height="120" fill="#D9D9D9"/>
</mask>
<g mask="url(#mask0_1812_1623)">
<path d="M36.9197 110V75.2212L19.8047 47.5L39.8534 15H80.1409L100.19 47.5L83.0747 75.2212V110L59.9972 102.019L36.9197 110ZM41.9197 102.664L59.9972 96.615L78.0747 102.664V80H41.9197V102.664ZM42.5934 20L25.5934 47.5L42.5934 75H77.4009L94.4009 47.5L77.4009 20H42.5934ZM54.7472 64.3175L40.5547 50.25L44.1222 46.6825L54.7472 57.3075L75.8722 36.0575L79.4397 39.5L54.7472 64.3175Z" fill="#B29377"/>
</g>
</svg>
