<svg width="120" height="120" viewBox="0 0 120 120" fill="none" xmlns="http://www.w3.org/2000/svg">
<mask id="mask0_1812_1626" style="mask-type:alpha" maskUnits="userSpaceOnUse" x="0" y="0" width="120" height="120">
<rect width="120" height="120" fill="#D9D9D9"/>
</mask>
<g mask="url(#mask0_1812_1626)">
<path d="M37.6328 107.629L32.6328 103.879V82.6288H22.6328C21.1011 82.6288 19.8849 82.1784 18.9841 81.2776C18.0832 80.3768 17.6328 79.1605 17.6328 77.6288V35.1289H15.1328C14.4245 35.1289 13.8307 34.8889 13.3516 34.4089C12.8724 33.9289 12.6328 33.3343 12.6328 32.6251C12.6328 31.916 12.8724 31.3226 13.3516 30.8451C13.8307 30.3676 14.4245 30.1289 15.1328 30.1289H32.6328V17.6289H27.6328C26.9245 17.6289 26.3307 17.3889 25.8516 16.9089C25.3724 16.4289 25.1328 15.8343 25.1328 15.1251C25.1328 14.416 25.3724 13.8227 25.8516 13.3452C26.3307 12.8677 26.9245 12.6289 27.6328 12.6289H42.6328C43.3411 12.6289 43.9349 12.8689 44.4141 13.3489C44.8932 13.8289 45.1328 14.4235 45.1328 15.1327C45.1328 15.8418 44.8932 16.4352 44.4141 16.9127C43.9349 17.3902 43.3411 17.6289 42.6328 17.6289H37.6328V30.1289H55.1328C55.8411 30.1289 56.4349 30.3689 56.9141 30.8489C57.3932 31.3289 57.6328 31.9235 57.6328 32.6326C57.6328 33.3418 57.3932 33.9351 56.9141 34.4126C56.4349 34.8901 55.8411 35.1289 55.1328 35.1289H52.6328V77.6288C52.6328 79.1605 52.1824 80.3768 51.2816 81.2776C50.3807 82.1784 49.1645 82.6288 47.6328 82.6288H37.6328V107.629ZM22.6328 77.6288H47.6328V66.0901H36.3828C35.7928 66.0901 35.277 65.8689 34.8353 65.4264C34.3928 64.9847 34.1716 64.4689 34.1716 63.8789C34.1716 63.2889 34.3928 62.773 34.8353 62.3314C35.277 61.8889 35.7928 61.6676 36.3828 61.6676H47.6328V51.0901H36.3828C35.7928 51.0901 35.277 50.8689 34.8353 50.4264C34.3928 49.9847 34.1716 49.4689 34.1716 48.8789C34.1716 48.2889 34.3928 47.773 34.8353 47.3314C35.277 46.8889 35.7928 46.6676 36.3828 46.6676H47.6328V35.1289H22.6328V77.6288ZM72.6328 107.629C71.1011 107.629 69.8849 107.178 68.9841 106.278C68.0832 105.377 67.6328 104.16 67.6328 102.629V67.6288C67.6328 65.2397 68.1457 63.2626 69.1716 61.6976C70.1974 60.1326 71.1686 58.8309 72.0853 57.7926C72.9378 56.8184 73.6586 55.9609 74.2478 55.2201C74.8378 54.4801 75.1328 53.6164 75.1328 52.6289V47.6289H72.6328C71.9245 47.6289 71.3307 47.3889 70.8516 46.9089C70.3724 46.4289 70.1328 45.8343 70.1328 45.1251C70.1328 44.416 70.3724 43.8226 70.8516 43.3451C71.3307 42.8676 71.9245 42.6289 72.6328 42.6289H97.6328C98.3411 42.6289 98.9349 42.8689 99.4141 43.3489C99.8932 43.8289 100.133 44.4235 100.133 45.1326C100.133 45.8418 99.8932 46.4351 99.4141 46.9126C98.9349 47.3901 98.3411 47.6289 97.6328 47.6289H95.1328V52.6289C95.1328 53.6164 95.4374 54.4947 96.0466 55.2639C96.6557 56.033 97.3961 56.9047 98.2678 57.8789C99.1845 58.9172 100.141 60.2122 101.138 61.7639C102.134 63.3147 102.633 65.258 102.633 67.5938V102.629C102.633 104.16 102.182 105.377 101.282 106.278C100.381 107.178 99.1645 107.629 97.6328 107.629H72.6328ZM72.6328 71.6676H97.6328V67.6288C97.6328 65.9939 97.2578 64.6222 96.5078 63.5139C95.7578 62.4047 94.8603 61.2764 93.8153 60.1289C92.9445 59.1939 92.1128 58.1509 91.3203 57.0001C90.5286 55.8484 90.1328 54.3914 90.1328 52.6289V47.6289H80.1328V52.6289C80.1328 54.3539 79.737 55.7918 78.9453 56.9426C78.1536 58.0926 77.3316 59.1451 76.4791 60.1001C75.4341 61.2476 74.532 62.3805 73.7728 63.4989C73.0128 64.6172 72.6328 65.9939 72.6328 67.6288V71.6676ZM72.6328 86.6676H97.6328V76.0901H72.6328V86.6676ZM72.6328 102.629H97.6328V91.0901H72.6328V102.629Z" fill="#B29377"/>
</g>
</svg>
