<svg width="120" height="120" viewBox="0 0 120 120" fill="none" xmlns="http://www.w3.org/2000/svg">
<mask id="mask0_1812_1632" style="mask-type:alpha" maskUnits="userSpaceOnUse" x="0" y="0" width="120" height="120">
<rect width="120" height="120" fill="#D9D9D9"/>
</mask>
<g mask="url(#mask0_1812_1632)">
<path d="M95.4812 94.0475L84.8562 104.644L81.3175 101.106L91.9137 90.4812L81.3175 79.8562L84.8562 76.3175L95.4812 86.9137L106.106 76.3175L109.644 79.8562L99.0475 90.4812L109.644 101.106L106.106 104.644L95.4812 94.0475ZM30 105C27.1792 105 24.8075 104.038 22.885 102.115C20.9617 100.193 20 97.8208 20 95V81.1537H35V15H100V61.49C99.1858 61.2917 98.3621 61.1588 97.5287 61.0913C96.6954 61.0238 95.8525 60.99 95 60.99V20H40V81.1537H67.615C67.3525 81.9679 67.1233 82.7758 66.9275 83.5775C66.7325 84.3783 66.5708 85.2371 66.4425 86.1537H25V95C25 96.4167 25.4792 97.6042 26.4375 98.5625C27.3958 99.5208 28.5833 100 30 100H67.615C67.8975 100.955 68.2663 101.833 68.7213 102.635C69.1763 103.436 69.6537 104.224 70.1537 105H30ZM46.9225 41.9225V36.9225H88.0775V41.9225H46.9225ZM46.9225 55.7688V50.7688H88.0775V55.7688H46.9225ZM67.615 100H25H66.4425H66.1438H67.615Z" fill="#B29377"/>
</g>
</svg>
