<svg width="120" height="120" viewBox="0 0 120 120" fill="none" xmlns="http://www.w3.org/2000/svg">
<mask id="mask0_1812_1629" style="mask-type:alpha" maskUnits="userSpaceOnUse" x="0" y="0" width="120" height="120">
<rect width="120" height="120" fill="#D9D9D9"/>
</mask>
<g mask="url(#mask0_1812_1629)">
<path d="M60.0053 44.4169C56.1978 44.4169 52.9703 43.0935 50.3228 40.4469C47.6753 37.7994 46.3516 34.5715 46.3516 30.7631C46.3516 26.9556 47.6753 23.7281 50.3228 21.0806C52.9703 18.4331 56.1978 17.1094 60.0053 17.1094C63.8128 17.1094 67.0403 18.4331 69.6878 21.0806C72.3353 23.7281 73.6591 26.9556 73.6591 30.7631C73.6591 34.5715 72.3353 37.7994 69.6878 40.4469C67.0403 43.0935 63.8128 44.4169 60.0053 44.4169ZM60.0053 39.4169C62.4095 39.4169 64.4528 38.5756 66.1353 36.8931C67.8178 35.2106 68.6591 33.1673 68.6591 30.7631C68.6591 28.3598 67.8178 26.3169 66.1353 24.6344C64.4528 22.951 62.4095 22.1094 60.0053 22.1094C57.6011 22.1094 55.5578 22.951 53.8753 24.6344C52.1928 26.3169 51.3516 28.3598 51.3516 30.7631C51.3516 33.1673 52.1928 35.2106 53.8753 36.8931C55.5578 38.5756 57.6011 39.4169 60.0053 39.4169ZM60.0053 101.341L32.6978 74.0331C31.4153 72.7506 30.4536 71.276 29.8128 69.6094C29.172 67.9427 28.8516 66.1365 28.8516 64.1906C28.8516 60.3648 30.1682 57.1385 32.8016 54.5119C35.4349 51.8852 38.6695 50.5719 42.5053 50.5719C44.3736 50.5719 46.097 50.9177 47.6753 51.6094C49.2545 52.3019 50.717 53.321 52.0628 54.6669L60.0053 62.6094L67.9478 54.6669C69.2295 53.3852 70.6828 52.3823 72.3078 51.6581C73.9328 50.934 75.6791 50.5719 77.5466 50.5719C81.3457 50.5719 84.5645 51.8852 87.2028 54.5119C89.8403 57.1385 91.1591 60.3648 91.1591 64.1906C91.1591 66.1365 90.8386 67.9427 90.1978 69.6094C89.557 71.276 88.5953 72.7506 87.3128 74.0331L60.0053 101.341ZM60.0053 94.2056L83.7166 70.4944C84.5949 69.616 85.2216 68.6498 85.5966 67.5956C85.9716 66.5406 86.1591 65.4331 86.1591 64.2731C86.1591 61.9523 85.3224 59.9219 83.6491 58.1819C81.9766 56.4419 79.9253 55.5719 77.4953 55.5719C76.3736 55.5719 75.352 55.7456 74.4303 56.0931C73.5078 56.4406 72.6099 57.0615 71.7366 57.9556L60.0053 69.6869L48.4666 58.1481C47.8591 57.504 47.0741 56.9135 46.1116 56.3769C45.1499 55.8402 43.962 55.5719 42.5478 55.5719C40.0961 55.5719 38.0341 56.434 36.3616 58.1581C34.6882 59.8823 33.8516 61.894 33.8516 64.1931C33.8516 65.3423 34.0436 66.4506 34.4278 67.5181C34.8128 68.5856 35.4349 69.5585 36.2941 70.4369L60.0053 94.2056Z" fill="#B29377"/>
</g>
</svg>
