<svg width="157" height="112" viewBox="0 0 157 112" fill="none" xmlns="http://www.w3.org/2000/svg">
<path d="M130.473 72.3078L34.0843 48.9889C32.7543 48.6671 31.4156 49.4826 31.0944 50.8104C30.7732 52.1382 31.591 53.4755 32.921 53.7972L129.31 77.1162C130.64 77.4379 131.979 76.6224 132.3 75.2946C132.621 73.9668 131.803 72.6296 130.473 72.3078Z" stroke="#B29377" stroke-width="2" stroke-miterlimit="10"/>
<path d="M37.8896 110.484C37.8896 101.022 30.2195 93.3516 20.7567 93.3516C11.2938 93.3516 3.62378 101.022 3.62378 110.484H58.7518" stroke="#B29377" stroke-width="2" stroke-miterlimit="10"/>
<path d="M35.9107 32.8114L35.2257 32.1264C40.7478 25.1921 40.7732 15.3318 35.3103 8.37208L35.9023 7.78013C36.8156 6.86682 36.8156 5.39539 35.9023 4.48209C34.989 3.56879 33.5175 3.56879 32.6042 4.48209L32.0123 5.07404C25.0526 -0.388862 15.1838 -0.355036 8.25792 5.15861L7.57295 4.47363C6.65964 3.56033 5.18821 3.56033 4.27491 4.47363C3.3616 5.38693 3.3616 6.85837 4.27491 7.77167L4.98525 8.48202C-0.359262 15.3994 -0.325436 25.1244 5.06982 32.008L4.27491 32.8029C3.3616 33.7162 3.3616 35.1877 4.27491 36.101C5.18821 37.0143 6.65964 37.0143 7.57295 36.101L8.36786 35.3061C15.2599 40.7098 24.9764 40.7351 31.8939 35.3906L32.6042 36.101C33.5175 37.0143 34.989 37.0143 35.9023 36.101C36.8156 35.1877 36.8156 33.7162 35.9023 32.8029L35.9107 32.8114Z" fill="#FFD9D9" stroke="#B29377" stroke-width="2" stroke-miterlimit="10"/>
<path d="M20.0971 26.5833C23.5718 26.5833 26.3887 23.7664 26.3887 20.2916C26.3887 16.8169 23.5718 14 20.0971 14C16.6223 14 13.8054 16.8169 13.8054 20.2916C13.8054 23.7664 16.6223 26.5833 20.0971 26.5833Z" fill="#FFD9D9" stroke="#B29377" stroke-width="2" stroke-miterlimit="10"/>
<path d="M147.461 55.5635L147.114 55.2168C149.913 51.6989 149.93 46.6842 147.156 43.1494L147.461 42.8449C147.926 42.3798 147.926 41.6357 147.461 41.1705C146.996 40.7054 146.251 40.7054 145.786 41.1705L145.482 41.475C141.947 38.7012 136.941 38.7182 133.414 41.5173L133.068 41.1705C132.603 40.7054 131.858 40.7054 131.393 41.1705C130.928 41.6357 130.928 42.3798 131.393 42.8449L131.748 43.2001C129.034 46.718 129.051 51.6482 131.791 55.1492L131.385 55.5551C130.92 56.0202 130.92 56.7644 131.385 57.2295C131.85 57.6946 132.594 57.6946 133.059 57.2295L133.465 56.8235C136.966 59.5635 141.905 59.5804 145.414 56.8658L145.769 57.221C146.234 57.6861 146.979 57.6861 147.444 57.221C147.909 56.7559 147.909 56.0117 147.444 55.5466L147.461 55.5635Z" stroke="#B29377" stroke-width="2" stroke-miterlimit="10"/>
<path d="M139.436 52.4087C141.201 52.4087 142.632 50.9776 142.632 49.2122C142.632 47.4468 141.201 46.0156 139.436 46.0156C137.67 46.0156 136.239 47.4468 136.239 49.2122C136.239 50.9776 137.67 52.4087 139.436 52.4087Z" stroke="#B29377" stroke-width="2" stroke-miterlimit="10"/>
<path d="M147.461 26.5401L147.114 26.1934C149.913 22.6755 149.93 17.6608 147.156 14.1259L147.461 13.8215C147.926 13.3564 147.926 12.6122 147.461 12.1471C146.996 11.682 146.251 11.682 145.786 12.1471L145.482 12.4515C141.947 9.67781 136.941 9.69472 133.414 12.4938L133.068 12.1471C132.603 11.682 131.858 11.682 131.393 12.1471C130.928 12.6122 130.928 13.3564 131.393 13.8215L131.748 14.1767C129.034 17.6946 129.051 22.6247 131.791 26.1257L131.385 26.5316C130.92 26.9967 130.92 27.7409 131.385 28.206C131.85 28.6711 132.594 28.6711 133.059 28.206L133.465 27.8001C136.966 30.54 141.905 30.5569 145.414 27.8424L145.769 28.1976C146.234 28.6627 146.979 28.6627 147.444 28.1976C147.909 27.7325 147.909 26.9883 147.444 26.5232L147.461 26.5401Z" stroke="#B29377" stroke-width="2" stroke-miterlimit="10"/>
<path d="M139.436 23.3775C141.201 23.3775 142.632 21.9463 142.632 20.1809C142.632 18.4155 141.201 16.9844 139.436 16.9844C137.67 16.9844 136.239 18.4155 136.239 20.1809C136.239 21.9463 137.67 23.3775 139.436 23.3775Z" fill="#FFD9D9" stroke="#B29377" stroke-width="2" stroke-miterlimit="10"/>
<path d="M20.1309 75.7207C21.6394 75.7207 22.8623 74.4978 22.8623 72.9893C22.8623 71.4807 21.6394 70.2578 20.1309 70.2578C18.6223 70.2578 17.3994 71.4807 17.3994 72.9893C17.3994 74.4978 18.6223 75.7207 20.1309 75.7207Z" fill="#FFD9D9" stroke="#B29377" stroke-width="2" stroke-miterlimit="10"/>
<path d="M20.1309 70.2598C21.6394 70.2598 22.8623 69.0369 22.8623 67.5283C22.8623 66.0198 21.6394 64.7969 20.1309 64.7969C18.6223 64.7969 17.3994 66.0198 17.3994 67.5283C17.3994 69.0369 18.6223 70.2598 20.1309 70.2598Z" fill="#FFD9D9" stroke="#B29377" stroke-width="2" stroke-miterlimit="10"/>
<path d="M20.1309 64.9551C21.6394 64.9551 22.8623 63.7322 22.8623 62.2236C22.8623 60.7151 21.6394 59.4922 20.1309 59.4922C18.6223 59.4922 17.3994 60.7151 17.3994 62.2236C17.3994 63.7322 18.6223 64.9551 20.1309 64.9551Z" fill="#FFD9D9" stroke="#B29377" stroke-width="2" stroke-miterlimit="10"/>
<path d="M100.713 110.618H142.928C149.989 110.618 155.714 104.893 155.714 97.8319C155.714 90.7707 149.989 85.0456 142.928 85.0456H25.0949C25.0949 85.0456 19.835 85.7475 19.835 79.7857V75.7266" stroke="#B29377" stroke-width="2" stroke-miterlimit="10"/>
<path d="M140.323 103.293C143.34 103.293 145.786 100.847 145.786 97.8301C145.786 94.813 143.34 92.3672 140.323 92.3672C137.306 92.3672 134.86 94.813 134.86 97.8301C134.86 100.847 137.306 103.293 140.323 103.293Z" stroke="#B29377" stroke-width="2" stroke-miterlimit="10"/>
<path d="M155.714 97.8359H145.786" stroke="#B29377" stroke-width="2" stroke-miterlimit="10"/>
<path d="M81.8042 24.1055C84.8213 24.1055 87.2671 21.6597 87.2671 18.6426C87.2671 15.6255 84.8213 13.1797 81.8042 13.1797C78.7871 13.1797 76.3413 15.6255 76.3413 18.6426C76.3413 21.6597 78.7871 24.1055 81.8042 24.1055Z" stroke="#B29377" stroke-width="2" stroke-miterlimit="10"/>
<path d="M81.8042 24.1016V60.3631" stroke="#B29377" stroke-width="2" stroke-miterlimit="10"/>
<path d="M81.6941 69.8125L58.2019 110.514H105.186L81.6941 69.8125Z" fill="#FFD9D9" stroke="#B29377" stroke-width="2" stroke-miterlimit="10"/>
</svg>
