<svg width="130" height="114" viewBox="0 0 130 114" fill="none" xmlns="http://www.w3.org/2000/svg">
<path d="M22.6695 62.4563C22.6695 62.4563 9.45928 56.2382 1.03833 58.441V112.704H22.6695V62.4563Z" fill="#FFD9D9"/>
<path d="M94.4758 46.7039L93.8143 47.3654C87.1067 42.0205 77.5612 41.994 70.8204 47.2794L70.2449 46.7039C69.3651 45.8241 67.9363 45.8241 67.0565 46.7039C66.1767 47.5837 66.1767 49.0126 67.0565 49.8924L67.632 50.4679C62.3466 57.2086 62.373 66.7541 67.718 73.4618L67.0565 74.1233C66.1767 75.0031 66.1767 76.4319 67.0565 77.3118C67.9363 78.1916 69.3651 78.1916 70.2449 77.3118L70.9263 76.6304C77.6207 81.7968 87.0339 81.7703 93.7019 76.5444L94.4692 77.3118C95.349 78.1916 96.7779 78.1916 97.6577 77.3118C98.5375 76.4319 98.5375 75.0031 97.6577 74.1233L96.8903 73.356C102.116 66.688 102.143 57.2748 96.9763 50.5804L97.6577 49.899C98.5375 49.0192 98.5375 47.5904 97.6577 46.7105C96.7779 45.8307 95.349 45.8307 94.4692 46.7105L94.4758 46.7039Z" fill="#FFD9D9"/>
<path d="M82.3639 68.0936C85.725 68.0936 88.4498 65.3688 88.4498 62.0077C88.4498 58.6466 85.725 55.9219 82.3639 55.9219C79.0028 55.9219 76.2781 58.6466 76.2781 62.0077C76.2781 65.3688 79.0028 68.0936 82.3639 68.0936Z" fill="#FFD9D9"/>
<path d="M45.2006 31.2347C48.5252 31.2347 51.2203 28.5396 51.2203 25.215C51.2203 21.8904 48.5252 19.1953 45.2006 19.1953C41.876 19.1953 39.1809 21.8904 39.1809 25.215C39.1809 28.5396 41.876 31.2347 45.2006 31.2347Z" fill="#FFD9D9"/>
<path d="M96.229 25.6675H82.0464C82.0464 25.6675 84.183 1 104.968 1C125.752 1 129.053 21.9829 128.861 25.2838L114.678 26.0578C114.678 26.0578 111.96 17.1209 104.968 17.1209C97.9754 17.1209 96.2224 25.6675 96.2224 25.6675H96.229Z" fill="#FFD9D9"/>
<path d="M0.992257 112.169V57.9453C31.0312 57.9453 55.3878 82.2953 55.3878 112.341H0" stroke="#B29377" stroke-width="2" stroke-miterlimit="10"/>
<path d="M0.992188 73.4375C22.4779 73.4375 39.8953 90.8549 39.8953 112.341" stroke="#B29377" stroke-width="2" stroke-miterlimit="10"/>
<path d="M22.8549 112.339C22.8549 100.267 13.0646 90.4766 0.992188 90.4766" stroke="#B29377" stroke-width="2" stroke-miterlimit="10"/>
<path d="M22.7954 62.4609V112.061" stroke="#B29377" stroke-width="2" stroke-miterlimit="10"/>
<path d="M60.6137 36.7405L59.9522 36.079C65.2971 29.3713 65.3236 19.8258 60.0382 13.0851L60.6137 12.5096C61.4935 11.6298 61.4935 10.2009 60.6137 9.32112C59.7339 8.44132 58.305 8.44132 57.4252 9.32112L56.8497 9.89663C50.109 4.61121 40.5635 4.63767 33.8558 9.98263L33.1943 9.32112C32.3145 8.44132 30.8857 8.44132 30.0059 9.32112C29.1261 10.2009 29.1261 11.6298 30.0059 12.5096L30.6872 13.1909C25.5209 19.8854 25.5473 29.2986 30.7732 35.9665L30.0059 36.7339C29.1261 37.6137 29.1261 39.0425 30.0059 39.9223C30.8857 40.8021 32.3145 40.8021 33.1943 39.9223L33.9617 39.155C40.6296 44.3809 50.0428 44.4073 56.7373 39.241L57.4186 39.9223C58.2984 40.8021 59.7273 40.8021 60.6071 39.9223C61.4869 39.0425 61.4869 37.6137 60.6071 36.7339L60.6137 36.7405Z" stroke="#B29377" stroke-width="2" stroke-miterlimit="10"/>
<path d="M45.3065 30.7186C48.6677 30.7186 51.3924 27.9938 51.3924 24.6327C51.3924 21.2716 48.6677 18.5469 45.3065 18.5469C41.9454 18.5469 39.2207 21.2716 39.2207 24.6327C39.2207 27.9938 41.9454 30.7186 45.3065 30.7186Z" stroke="#B29377" stroke-width="2" stroke-miterlimit="10"/>
<path d="M94.4763 46.7039L93.8148 47.3654C87.1072 42.0205 77.5617 41.994 70.8209 47.2794L70.2454 46.7039C69.3656 45.8241 67.9368 45.8241 67.057 46.7039C66.1772 47.5837 66.1772 49.0126 67.057 49.8924L67.6325 50.4679C62.347 57.2086 62.3735 66.7541 67.7185 73.4618L67.057 74.1233C66.1772 75.0031 66.1772 76.432 67.057 77.3118C67.9368 78.1916 69.3656 78.1916 70.2454 77.3118L70.9268 76.6304C77.6212 81.7968 87.0344 81.7703 93.7024 76.5444L94.4697 77.3118C95.3495 78.1916 96.7784 78.1916 97.6582 77.3118C98.538 76.432 98.538 75.0031 97.6582 74.1233L96.8908 73.356C102.117 66.688 102.143 57.2748 96.9768 50.5804L97.6582 49.899C98.538 49.0192 98.538 47.5904 97.6582 46.7105C96.7784 45.8307 95.3495 45.8307 94.4697 46.7105L94.4763 46.7039Z" stroke="#B29377" stroke-width="2" stroke-miterlimit="10"/>
<path d="M82.3639 68.0936C85.725 68.0936 88.4498 65.3688 88.4498 62.0077C88.4498 58.6466 85.725 55.9219 82.3639 55.9219C79.0028 55.9219 76.2781 58.6466 76.2781 62.0077C76.2781 65.3688 79.0028 68.0936 82.3639 68.0936Z" stroke="#B29377" stroke-width="2" stroke-miterlimit="10"/>
<path d="M82.1127 43.4738V24.6937C82.1127 11.7481 92.6108 1.25 105.556 1.25C118.502 1.25 129 11.7481 129 24.6937V112.37H55.3945" stroke="#B29377" stroke-width="2" stroke-miterlimit="10"/>
<path d="M105.49 34.0855C110.21 34.0855 114.037 30.259 114.037 25.5388C114.037 20.8186 110.21 16.9922 105.49 16.9922C100.77 16.9922 96.9434 20.8186 96.9434 25.5388C96.9434 30.259 100.77 34.0855 105.49 34.0855Z" stroke="#B29377" stroke-width="2" stroke-miterlimit="10"/>
<path d="M79.5857 91.5312L86.0618 98.0074" stroke="#B29377" stroke-width="2" stroke-miterlimit="10"/>
<path d="M86.0618 91.5312L79.5857 98.0074" stroke="#B29377" stroke-width="2" stroke-miterlimit="10"/>
<path d="M9.65137 20.2969L16.1275 26.773" stroke="#B29377" stroke-width="2" stroke-miterlimit="10"/>
<path d="M16.1275 20.2969L9.65137 26.773" stroke="#B29377" stroke-width="2" stroke-miterlimit="10"/>
<path d="M101.799 111.734V98.3314H114.877V84.5391H128.861" stroke="#B29377" stroke-width="2" stroke-miterlimit="10"/>
<path d="M128.993 112.38L114.52 97.9062" stroke="#B29377" stroke-width="2" stroke-miterlimit="10"/>
<path d="M82.1125 25.6641H96.9369" stroke="#B29377" stroke-width="2" stroke-miterlimit="10"/>
<path d="M113.389 25.6641H128.213" stroke="#B29377" stroke-width="2" stroke-miterlimit="10"/>
</svg>
