<svg width="238" height="220" viewBox="0 0 238 220" fill="none" xmlns="http://www.w3.org/2000/svg">
<path d="M186.564 117.041C177.184 117.041 168.382 119.551 160.809 123.943L177.835 153.438C181.713 160.157 176.862 168.559 169.106 168.559H68.9191C61.1635 168.559 56.3125 160.157 60.1904 153.438L110.28 66.6498C114.158 59.931 123.86 59.931 127.738 66.6498L144.72 96.072C152.307 91.7026 158.885 85.3425 163.575 77.2111C177.784 52.5901 169.355 21.1113 144.742 6.90522C120.128 -7.30819 88.6595 1.12325 74.4579 25.7442C64.4706 43.0462 65.6705 63.7369 75.8041 79.4434L75.7675 79.5019C79.9015 87.0039 80.1283 96.4307 75.5334 104.394C70.9385 112.357 62.6707 116.872 54.1029 117.048L54.0663 117.107C35.4015 116.177 16.8903 125.487 6.90306 142.789C-7.30591 167.41 1.1229 198.889 25.7362 213.095C50.3494 227.308 81.8184 218.877 96.0201 194.256C96.4591 193.502 96.8688 192.733 97.2639 191.965C101.676 184.566 109.761 179.611 118.994 179.611C128.228 179.611 136.291 184.551 140.71 191.928C149.227 208.586 166.56 219.989 186.549 219.989C214.967 219.989 238 196.942 238 168.522C238 140.103 214.96 117.055 186.549 117.055L186.564 117.041Z" fill="#B29377"/>
</svg>
