<svg width="155" height="143" viewBox="0 0 155 143" fill="none" xmlns="http://www.w3.org/2000/svg">
<path d="M121.502 76.0765C115.393 76.0765 109.66 77.7083 104.729 80.5627L115.817 99.7347C118.342 104.102 115.183 109.563 110.132 109.563H44.8843C39.8334 109.563 36.6741 104.102 39.1996 99.7347L71.8212 43.3224C74.3467 38.9552 80.6651 38.9552 83.1906 43.3224L94.2503 62.4468C99.1917 59.6067 103.475 55.4726 106.53 50.1872C115.784 34.1836 110.294 13.7224 94.2646 4.48839C78.2349 -4.75032 57.7404 0.730111 48.4915 16.7337C41.9872 27.98 42.7686 41.429 49.3682 51.6382L49.3444 51.6763C52.0367 56.5525 52.1844 62.6799 49.1919 67.8559C46.1995 73.0319 40.815 75.9671 35.2351 76.0813L35.2112 76.1194C23.0556 75.5152 11 81.5665 4.49569 92.8128C-4.75805 108.816 0.731298 129.278 16.7609 138.512C32.7906 147.75 53.2851 142.27 62.5341 126.266C62.82 125.776 63.0868 125.277 63.3441 124.777C66.2175 119.968 71.4829 116.747 77.4964 116.747C83.5099 116.747 88.761 119.958 91.6391 124.753C97.1856 135.581 108.474 142.993 121.492 142.993C140 142.993 155 128.012 155 109.54C155 91.0669 139.995 76.0861 121.492 76.0861L121.502 76.0765Z" fill="#B29377"/>
</svg>
