<svg width="161" height="101" viewBox="0 0 161 101" fill="none" xmlns="http://www.w3.org/2000/svg">
<path d="M96.1033 98.9792C96.1033 98.9792 97.8218 77.4219 118.796 77.4219C118.796 77.4219 119.891 99.6015 141.489 99.6015L96.1033 98.9792Z" fill="#FFD9D9"/>
<path d="M35.4188 76.7812L33.0688 84.7436L26.3385 87.8711L33.3805 90.5279L36.354 99.8226H11.1754C11.1754 99.8226 0.216719 96.0728 1.31179 86.3073C2.40686 76.5419 13.0458 76.861 13.0458 76.861L35.4188 76.7812Z" fill="#FFD9D9"/>
<path d="M92.6741 59.8875L92.0266 59.2412C97.2462 52.699 97.2702 43.3963 92.1066 36.8302L92.6661 36.2717C93.5294 35.4101 93.5294 34.0218 92.6661 33.1602C91.8028 32.2985 90.412 32.2985 89.5487 33.1602L88.9892 33.7187C82.4108 28.5647 73.0827 28.5966 66.5363 33.7984L65.8889 33.1522C65.0256 32.2905 63.6348 32.2905 62.7715 33.1522C61.9082 34.0139 61.9082 35.4021 62.7715 36.2637L63.4429 36.9339C58.3912 43.4602 58.4232 52.6352 63.5229 59.1295L62.7715 59.8795C61.9082 60.7412 61.9082 62.1294 62.7715 62.991C63.6348 63.8527 65.0256 63.8527 65.8889 62.991L66.6402 62.2411C73.1547 67.3392 82.3389 67.3631 88.8773 62.3209L89.5487 62.991C90.412 63.8527 91.8028 63.8527 92.6661 62.991C93.5294 62.1294 93.5294 60.7412 92.6661 59.8795L92.6741 59.8875Z" fill="#FFD9D9" stroke="#B29377" stroke-width="2" stroke-miterlimit="10"/>
<path d="M77.7267 54.0123C81.0111 54.0123 83.6737 51.3548 83.6737 48.0765C83.6737 44.7982 81.0111 42.1406 77.7267 42.1406C74.4423 42.1406 71.7798 44.7982 71.7798 48.0765C71.7798 51.3548 74.4423 54.0123 77.7267 54.0123Z" fill="#FFD9D9" stroke="#B29377" stroke-width="2" stroke-miterlimit="10"/>
<path d="M24.444 54.0327L24.1163 53.7055C26.762 50.3866 26.778 45.6554 24.1563 42.3205L24.444 42.0333C24.8836 41.5945 24.8836 40.8924 24.444 40.4536C24.0044 40.0148 23.301 40.0148 22.8614 40.4536L22.5736 40.7408C19.2324 38.1239 14.5005 38.1399 11.1673 40.7807L10.8396 40.4536C10.3999 40.0148 9.69654 40.0148 9.25691 40.4536C8.81729 40.8924 8.81729 41.5945 9.25691 42.0333L9.59263 42.3684C7.02681 45.6874 7.0428 50.3387 9.6326 53.6417L9.24892 54.0247C8.8093 54.4635 8.8093 55.1656 9.24892 55.6044C9.68855 56.0432 10.392 56.0432 10.8316 55.6044L11.2153 55.2214C14.5244 57.8064 19.1925 57.8223 22.5097 55.2613L22.8454 55.5964C23.285 56.0352 23.9884 56.0352 24.428 55.5964C24.8676 55.1576 24.8676 54.4555 24.428 54.0167L24.444 54.0327Z" stroke="#B29377" stroke-width="2" stroke-miterlimit="10"/>
<path d="M16.8583 51.0472C18.527 51.0472 19.8798 49.697 19.8798 48.0314C19.8798 46.3658 18.527 45.0156 16.8583 45.0156C15.1897 45.0156 13.8369 46.3658 13.8369 48.0314C13.8369 49.697 15.1897 51.0472 16.8583 51.0472Z" stroke="#B29377" stroke-width="2" stroke-miterlimit="10"/>
<path d="M119.068 75.7407V42.4712C119.068 19.6612 100.371 1 77.5189 1C54.6663 1 35.9702 19.6612 35.9702 42.4712V77.847" stroke="#B29377" stroke-width="2" stroke-miterlimit="10"/>
<path d="M119.028 63.0473V79.2113C119.028 90.2932 128.108 99.3645 139.218 99.3645C150.321 99.3645 159.409 90.3012 159.409 79.2113V63.0473C159.409 63.0473 139.45 62.8718 139.178 62.8718V33.3281" stroke="#B29377" stroke-width="2" stroke-miterlimit="10"/>
<path d="M139.722 99.405H12.2704C6.07569 99.405 1 94.3468 1 88.1556C1 81.9725 6.06769 76.9062 12.2704 76.9062H35.8584" stroke="#B29377" stroke-width="2" stroke-miterlimit="10"/>
<path d="M33.2046 85.2214L35.8983 77.9531L38.592 85.2214L45.8738 87.91L38.592 90.6067L35.8983 97.8749L33.2046 90.6067L25.9148 87.91L33.2046 85.2214Z" stroke="#B29377" stroke-width="2" stroke-miterlimit="10"/>
<path d="M137.476 16.6417L139.17 12.0781L140.865 16.6417L145.437 18.3331L140.865 20.0245L139.17 24.5881L137.476 20.0245L132.904 18.3331L137.476 16.6417Z" stroke="#B29377" stroke-width="2" stroke-miterlimit="10"/>
<path d="M139.21 86.4798C142.062 86.4798 144.374 84.1723 144.374 81.3259C144.374 78.4794 142.062 76.1719 139.21 76.1719C136.359 76.1719 134.047 78.4794 134.047 81.3259C134.047 84.1723 136.359 86.4798 139.21 86.4798Z" stroke="#B29377" stroke-width="2" stroke-miterlimit="10"/>
<path d="M97.0383 99.9905C97.0383 87.7837 106.95 77.8906 119.18 77.8906C131.409 77.8906 141.321 87.7837 141.321 99.9905" stroke="#B29377" stroke-width="2" stroke-miterlimit="10"/>
<path d="M13.0137 10.0469L19.3363 16.3577" stroke="#B29377" stroke-width="2" stroke-miterlimit="10"/>
<path d="M19.3363 10.0469L13.0137 16.3577" stroke="#B29377" stroke-width="2" stroke-miterlimit="10"/>
<path d="M149.474 34.4141L155.797 40.7249" stroke="#B29377" stroke-width="2" stroke-miterlimit="10"/>
<path d="M155.797 34.4141L149.474 40.7249" stroke="#B29377" stroke-width="2" stroke-miterlimit="10"/>
<path d="M50.2061 20.6953L58.4231 28.897" stroke="#B29377" stroke-width="2" stroke-miterlimit="10"/>
<path d="M96.8464 28.897L105.055 20.6953" stroke="#B29377" stroke-width="2" stroke-miterlimit="10"/>
<path d="M105.055 75.4439L96.8464 67.2422" stroke="#B29377" stroke-width="2" stroke-miterlimit="10"/>
<path d="M58.4231 67.2422L50.2061 75.4439" stroke="#B29377" stroke-width="2" stroke-miterlimit="10"/>
</svg>
