<svg width="160" height="160" viewBox="0 0 160 160" fill="none" xmlns="http://www.w3.org/2000/svg">
<path d="M108.636 94.1429H127.545C130.053 94.1429 132.458 93.1495 134.231 91.3813C136.004 89.6131 137 87.2149 137 84.7143V65.8571C137 63.3565 136.004 60.9583 134.231 59.1901C132.458 57.4219 130.053 56.4286 127.545 56.4286H108.636C106.129 56.4286 103.724 57.4219 101.951 59.1901C100.178 60.9583 99.1818 63.3565 99.1818 65.8571V70.5714H56.6364V51.7143H61.3636C63.8711 51.7143 66.2759 50.7209 68.049 48.9527C69.8221 47.1845 70.8182 44.7863 70.8182 42.2857V23.4286C70.8182 20.928 69.8221 18.5298 68.049 16.7616C66.2759 14.9934 63.8711 14 61.3636 14H42.4545C39.947 14 37.5422 14.9934 35.7692 16.7616C33.9961 18.5298 33 20.928 33 23.4286V42.2857C33 44.7863 33.9961 47.1845 35.7692 48.9527C37.5422 50.7209 39.947 51.7143 42.4545 51.7143H47.1818V117.714C47.1818 121.465 48.676 125.063 51.3356 127.715C53.9952 130.367 57.6024 131.857 61.3636 131.857H99.1818V136.571C99.1818 139.072 100.178 141.47 101.951 143.238C103.724 145.007 106.129 146 108.636 146H127.545C130.053 146 132.458 145.007 134.231 143.238C136.004 141.47 137 139.072 137 136.571V117.714C137 115.214 136.004 112.815 134.231 111.047C132.458 109.279 130.053 108.286 127.545 108.286H108.636C106.129 108.286 103.724 109.279 101.951 111.047C100.178 112.815 99.1818 115.214 99.1818 117.714V122.429H61.3636C60.1099 122.429 58.9075 121.932 58.0209 121.048C57.1344 120.164 56.6364 118.965 56.6364 117.714V80H99.1818V84.7143C99.1818 87.2149 100.178 89.6131 101.951 91.3813C103.724 93.1495 106.129 94.1429 108.636 94.1429ZM42.4545 23.4286H61.3636V42.2857H42.4545V23.4286ZM108.636 117.714H127.545V136.571H108.636V117.714ZM108.636 65.8571H127.545V84.7143H108.636V65.8571Z" fill="#F1B2B2"/>
</svg>
