<svg width="160" height="160" viewBox="0 0 160 160" fill="none" xmlns="http://www.w3.org/2000/svg">
<path d="M33.9542 138.749C30.7522 138.749 28.0111 137.609 25.7309 135.329C23.4507 133.049 22.3105 130.308 22.3105 127.106V57.2436C22.3105 54.0416 23.4507 51.3004 25.7309 49.0202C28.0111 46.74 30.7522 45.5999 33.9542 45.5999H57.2416V33.9562C57.2416 30.7542 58.3817 28.0131 60.662 25.7328C62.9422 23.4526 65.6833 22.3125 68.8853 22.3125H92.1727C95.3747 22.3125 98.1158 23.4526 100.396 25.7328C102.676 28.0131 103.816 30.7542 103.816 33.9562V45.5999H127.104C130.306 45.5999 133.047 46.74 135.327 49.0202C137.607 51.3004 138.747 54.0416 138.747 57.2436V127.106C138.747 130.308 137.607 133.049 135.327 135.329C133.047 137.609 130.306 138.749 127.104 138.749H33.9542ZM33.9542 127.106H127.104V57.2436H33.9542V127.106ZM68.8853 45.5999H92.1727V33.9562H68.8853V45.5999ZM74.7072 97.9965V115.462H86.3509V97.9965H103.816V86.3528H86.3509V68.8873H74.7072V86.3528H57.2416V97.9965H74.7072Z" fill="#F1B2B2"/>
</svg>
