<svg width="57" height="57" viewBox="0 0 57 57" fill="none" xmlns="http://www.w3.org/2000/svg">
<mask id="mask0_2110_1313" style="mask-type:alpha" maskUnits="userSpaceOnUse" x="0" y="0" width="57" height="57">
<rect width="57" height="57" fill="#D9D9D9"/>
</mask>
<g mask="url(#mask0_2110_1313)">
<path d="M11.875 49.875C10.5687 49.875 9.45052 49.4099 8.52031 48.4797C7.5901 47.5495 7.125 46.4313 7.125 45.125V11.875C7.125 10.5688 7.5901 9.45052 8.52031 8.52031C9.45052 7.5901 10.5687 7.125 11.875 7.125H21.85C22.3646 5.7 23.2255 4.55208 24.4328 3.68125C25.6401 2.81042 26.9958 2.375 28.5 2.375C30.0042 2.375 31.3599 2.81042 32.5672 3.68125C33.7745 4.55208 34.6354 5.7 35.15 7.125H45.125C46.4313 7.125 47.5495 7.5901 48.4797 8.52031C49.4099 9.45052 49.875 10.5688 49.875 11.875V27.7875C49.1229 27.4312 48.351 27.1245 47.5594 26.8672C46.7677 26.6099 45.9562 26.4219 45.125 26.3031V11.875H11.875V45.125H26.2437C26.3625 45.9958 26.5505 46.8271 26.8078 47.6188C27.0651 48.4104 27.3719 49.1625 27.7281 49.875H11.875ZM11.875 45.125V11.875V26.3031V26.125V45.125ZM16.625 40.375H26.3031C26.4219 39.5438 26.6099 38.7323 26.8672 37.9406C27.1245 37.149 27.4115 36.3771 27.7281 35.625H16.625V40.375ZM16.625 30.875H31.1125C32.3792 29.6875 33.7943 28.6979 35.3578 27.9062C36.9214 27.1146 38.5938 26.5802 40.375 26.3031V26.125H16.625V30.875ZM16.625 21.375H40.375V16.625H16.625V21.375ZM28.5 10.0938C29.0146 10.0938 29.4401 9.92552 29.7766 9.58906C30.113 9.2526 30.2812 8.82708 30.2812 8.3125C30.2812 7.79792 30.113 7.3724 29.7766 7.03594C29.4401 6.69948 29.0146 6.53125 28.5 6.53125C27.9854 6.53125 27.5599 6.69948 27.2234 7.03594C26.887 7.3724 26.7188 7.79792 26.7188 8.3125C26.7188 8.82708 26.887 9.2526 27.2234 9.58906C27.5599 9.92552 27.9854 10.0938 28.5 10.0938ZM42.75 54.625C39.4646 54.625 36.6641 53.4672 34.3484 51.1516C32.0328 48.8359 30.875 46.0354 30.875 42.75C30.875 39.4646 32.0328 36.6641 34.3484 34.3484C36.6641 32.0328 39.4646 30.875 42.75 30.875C46.0354 30.875 48.8359 32.0328 51.1516 34.3484C53.4672 36.6641 54.625 39.4646 54.625 42.75C54.625 46.0354 53.4672 48.8359 51.1516 51.1516C48.8359 53.4672 46.0354 54.625 42.75 54.625ZM41.5625 49.875H43.9375V43.9375H49.875V41.5625H43.9375V35.625H41.5625V41.5625H35.625V43.9375H41.5625V49.875Z" fill="#F1C1C1"/>
</g>
</svg>
