<svg width="57" height="58" viewBox="0 0 57 58" fill="none" xmlns="http://www.w3.org/2000/svg">
<mask id="mask0_2110_1325" style="mask-type:alpha" maskUnits="userSpaceOnUse" x="0" y="0" width="57" height="58">
<rect y="0.609375" width="57" height="57" fill="#D9D9D9"/>
</mask>
<g mask="url(#mask0_2110_1325)">
<path d="M29.3313 39.7969C27.7479 41.3802 25.8281 42.1719 23.5719 42.1719C21.3156 42.1719 19.3958 41.3802 17.8125 39.7969C16.2292 38.2135 15.4375 36.3036 15.4375 34.0672C15.4375 31.8307 16.2292 29.9208 17.8125 28.3375L27.6688 18.4219C29.2521 16.8385 31.1719 16.0469 33.4281 16.0469C35.6844 16.0469 37.6042 16.8385 39.1875 18.4219C40.7708 20.0052 41.5625 21.9151 41.5625 24.1516C41.5625 26.388 40.7708 28.2979 39.1875 29.8812L29.3313 39.7969ZM21.1375 36.4125C22.0479 37.3229 22.988 37.6495 23.9578 37.3922C24.9276 37.1349 25.5906 36.8281 25.9469 36.4719L29.2125 33.1469L24.4625 28.3969L21.1375 31.6625C20.4646 32.3354 20.1281 33.1271 20.1281 34.0375C20.1281 34.9479 20.4646 35.7396 21.1375 36.4125ZM35.8625 21.8063C34.9521 20.8958 34.012 20.5693 33.0422 20.8266C32.0724 21.0839 31.4094 21.3906 31.0531 21.7469L27.7875 25.0719L32.5375 29.8219L35.8625 26.5563C36.5354 25.8833 36.8719 25.0917 36.8719 24.1813C36.8719 23.2708 36.5354 22.4792 35.8625 21.8063ZM11.875 50.4844C10.5687 50.4844 9.45052 50.0193 8.52031 49.0891C7.5901 48.1589 7.125 47.0406 7.125 45.7344V12.4844C7.125 11.1781 7.5901 10.0599 8.52031 9.12969C9.45052 8.19948 10.5687 7.73438 11.875 7.73438H21.85C22.3646 6.30937 23.2255 5.16146 24.4328 4.29063C25.6401 3.41979 26.9958 2.98438 28.5 2.98438C30.0042 2.98438 31.3599 3.41979 32.5672 4.29063C33.7745 5.16146 34.6354 6.30937 35.15 7.73438H45.125C46.4313 7.73438 47.5495 8.19948 48.4797 9.12969C49.4099 10.0599 49.875 11.1781 49.875 12.4844V45.7344C49.875 47.0406 49.4099 48.1589 48.4797 49.0891C47.5495 50.0193 46.4313 50.4844 45.125 50.4844H11.875ZM11.875 45.7344H45.125V12.4844H11.875V45.7344ZM28.5 10.7031C29.0146 10.7031 29.4401 10.5349 29.7766 10.1984C30.113 9.86198 30.2812 9.43646 30.2812 8.92188C30.2812 8.40729 30.113 7.98177 29.7766 7.64531C29.4401 7.30885 29.0146 7.14062 28.5 7.14062C27.9854 7.14062 27.5599 7.30885 27.2234 7.64531C26.887 7.98177 26.7188 8.40729 26.7188 8.92188C26.7188 9.43646 26.887 9.86198 27.2234 10.1984C27.5599 10.5349 27.9854 10.7031 28.5 10.7031Z" fill="#F1C1C1"/>
</g>
</svg>
