<svg width="57" height="57" viewBox="0 0 57 57" fill="none" xmlns="http://www.w3.org/2000/svg">
<mask id="mask0_2110_1331" style="mask-type:alpha" maskUnits="userSpaceOnUse" x="0" y="0" width="57" height="57">
<rect width="57" height="57" fill="#D9D9D9"/>
</mask>
<g mask="url(#mask0_2110_1331)">
<path d="M4.75 21.375V11.875C4.75 10.5687 5.2151 9.45052 6.14531 8.52031C7.07552 7.5901 8.19375 7.125 9.5 7.125H47.5C48.8063 7.125 49.9245 7.5901 50.8547 8.52031C51.7849 9.45052 52.25 10.5687 52.25 11.875V21.375H47.5V11.875H9.5V21.375H4.75ZM9.5 42.75C8.19375 42.75 7.07552 42.2849 6.14531 41.3547C5.2151 40.4245 4.75 39.3063 4.75 38V26.125H9.5V38H47.5V26.125H52.25V38C52.25 39.3063 51.7849 40.4245 50.8547 41.3547C49.9245 42.2849 48.8063 42.75 47.5 42.75H9.5ZM2.375 49.875V45.125H54.625V49.875H2.375ZM4.75 26.125V21.375H19C19.4354 21.375 19.851 21.4938 20.2469 21.7313C20.6427 21.9688 20.9396 22.2854 21.1375 22.6813L23.9281 28.2031L31.2313 15.4375C31.4292 15.0812 31.7062 14.7943 32.0625 14.5766C32.4188 14.3589 32.8146 14.25 33.25 14.25C33.6854 14.25 34.101 14.3589 34.4969 14.5766C34.8927 14.7943 35.1896 15.1208 35.3875 15.5562L38.2969 21.375H52.25V26.125H36.8125C36.3771 26.125 35.9615 26.0161 35.5656 25.7984C35.1698 25.5807 34.8729 25.2542 34.675 24.8188L33.1312 21.6719L25.8281 34.4375C25.6302 34.8333 25.3333 35.1302 24.9375 35.3281C24.5417 35.526 24.126 35.625 23.6906 35.625C23.2552 35.625 22.8495 35.5063 22.4734 35.2688C22.0974 35.0313 21.8104 34.7146 21.6125 34.3187L17.5156 26.125H4.75Z" fill="#F1C1C1"/>
</g>
</svg>
