<svg width="160" height="160" viewBox="0 0 160 160" fill="none" xmlns="http://www.w3.org/2000/svg">
<path fill-rule="evenodd" clip-rule="evenodd" d="M94.8571 54C94.8571 57.9404 93.2918 61.7193 90.5056 64.5056C87.7193 67.2918 83.9404 68.8571 80 68.8571C76.0596 68.8571 72.2807 67.2918 69.4944 64.5056C66.7082 61.7193 65.1429 57.9404 65.1429 54C65.1429 50.0596 66.7082 46.2807 69.4944 43.4944C72.2807 40.7082 76.0596 39.1429 80 39.1429C83.9404 39.1429 87.7193 40.7082 90.5056 43.4944C93.2918 46.2807 94.8571 50.0596 94.8571 54ZM106 54C106 60.8956 103.261 67.5088 98.3848 72.3848C93.5088 77.2607 86.8956 80 80 80C73.1044 80 66.4912 77.2607 61.6152 72.3848C56.7393 67.5088 54 60.8956 54 54C54 47.1044 56.7393 40.4912 61.6152 35.6152C66.4912 30.7393 73.1044 28 80 28C86.8956 28 93.5088 30.7393 98.3848 35.6152C103.261 40.4912 106 47.1044 106 54ZM39.1429 113.429C39.1429 111.913 40.7771 107.419 48.9486 102.59C56.5109 98.1257 67.52 94.8571 80 94.8571C92.48 94.8571 103.489 98.1257 111.051 102.59C119.223 107.419 120.857 111.913 120.857 113.429C120.857 115.399 120.074 117.288 118.681 118.681C117.288 120.074 115.399 120.857 113.429 120.857H46.5714C44.6012 120.857 42.7118 120.074 41.3186 118.681C39.9255 117.288 39.1429 115.399 39.1429 113.429ZM80 83.7143C51.4 83.7143 28 98.5714 28 113.429C28 118.354 29.9566 123.078 33.4394 126.561C36.9223 130.043 41.646 132 46.5714 132H113.429C118.354 132 123.078 130.043 126.561 126.561C130.043 123.078 132 118.354 132 113.429C132 98.5714 108.6 83.7143 80 83.7143Z" fill="#F1B2B2"/>
</svg>
