<svg width="160" height="160" viewBox="0 0 160 160" fill="none" xmlns="http://www.w3.org/2000/svg">
<path d="M66.666 26.668C63.1298 26.668 59.7384 28.0727 57.2379 30.5732C54.7374 33.0737 53.3327 36.4651 53.3327 40.0013V53.3346H39.9993C36.4631 53.3346 33.0717 54.7394 30.5713 57.2399C28.0708 59.7404 26.666 63.1317 26.666 66.668V93.3346C26.666 96.8709 28.0708 100.262 30.5713 102.763C33.0717 105.263 36.4631 106.668 39.9993 106.668H53.3327V120.001C53.3327 123.538 54.7374 126.929 57.2379 129.429C59.7384 131.93 63.1298 133.335 66.666 133.335H93.3327C96.8689 133.335 100.26 131.93 102.761 129.429C105.261 126.929 106.666 123.538 106.666 120.001V106.668H119.999C123.536 106.668 126.927 105.263 129.427 102.763C131.928 100.262 133.333 96.8709 133.333 93.3346V66.668C133.333 63.1317 131.928 59.7404 129.427 57.2399C126.927 54.7394 123.536 53.3346 119.999 53.3346H106.666V40.0013C106.666 36.4651 105.261 33.0737 102.761 30.5732C100.26 28.0727 96.8689 26.668 93.3327 26.668H66.666Z" stroke="#F1B2B2" stroke-width="12"/>
</svg>
