<svg width="57" height="57" viewBox="0 0 57 57" fill="none" xmlns="http://www.w3.org/2000/svg">
<mask id="mask0_2110_1337" style="mask-type:alpha" maskUnits="userSpaceOnUse" x="0" y="0" width="57" height="57">
<rect width="57" height="57" fill="#D9D9D9"/>
</mask>
<g mask="url(#mask0_2110_1337)">
<path d="M26.125 33.25V23.3937L22.325 27.1937L19 23.75L28.5 14.25L38 23.75L34.675 27.1937L30.875 23.3937V33.25H26.125ZM11.875 49.875C10.5687 49.875 9.45052 49.4099 8.52031 48.4797C7.5901 47.5495 7.125 46.4313 7.125 45.125V11.875C7.125 10.5687 7.5901 9.45052 8.52031 8.52031C9.45052 7.5901 10.5687 7.125 11.875 7.125H45.125C46.4313 7.125 47.5495 7.5901 48.4797 8.52031C49.4099 9.45052 49.875 10.5687 49.875 11.875V45.125C49.875 46.4313 49.4099 47.5495 48.4797 48.4797C47.5495 49.4099 46.4313 49.875 45.125 49.875H11.875ZM11.875 45.125H45.125V38H38C36.8125 39.5042 35.3974 40.6719 33.7547 41.5031C32.112 42.3344 30.3604 42.75 28.5 42.75C26.6396 42.75 24.888 42.3344 23.2453 41.5031C21.6026 40.6719 20.1875 39.5042 19 38H11.875V45.125ZM28.5 38C30.0042 38 31.3698 37.5646 32.5969 36.6937C33.824 35.8229 34.675 34.675 35.15 33.25H45.125V11.875H11.875V33.25H21.85C22.325 34.675 23.176 35.8229 24.4031 36.6937C25.6302 37.5646 26.9958 38 28.5 38Z" fill="#F1C1C1"/>
</g>
</svg>
