<svg width="587" height="260" viewBox="0 0 587 260" fill="none" xmlns="http://www.w3.org/2000/svg">
<path d="M220.271 138.321C209.196 138.321 198.804 141.288 189.863 146.478L209.965 181.336C214.543 189.276 208.816 199.206 199.659 199.206H81.3709C72.214 199.206 66.4866 189.276 71.0651 181.336L130.205 78.768C134.783 70.8276 146.238 70.8276 150.817 78.768L170.867 113.54C179.825 108.376 187.591 100.859 193.128 91.2495C209.904 62.152 199.953 24.9497 170.893 8.16071C141.832 -8.63695 104.678 1.32747 87.9103 30.425C76.1187 50.8728 77.5354 75.3254 89.4998 93.8876L89.4566 93.9568C94.3374 102.823 94.6052 113.964 89.1802 123.374C83.7552 132.785 73.9936 138.122 63.8778 138.33L63.8346 138.399C41.7975 137.3 19.9419 148.303 8.15025 168.751C-8.62588 197.848 1.32577 235.05 30.386 251.839C59.4462 268.637 96.6007 258.673 113.368 229.575C113.887 228.684 114.37 227.776 114.837 226.868C120.046 218.123 129.591 212.267 140.493 212.267C151.395 212.267 160.915 218.106 166.133 226.824C176.188 246.511 196.653 259.987 220.253 259.987C253.806 259.987 281 232.749 281 199.163C281 165.576 253.797 138.338 220.253 138.338L220.271 138.321Z" fill="#B29377"/>
<path d="M366.729 121.679C377.804 121.679 388.196 118.712 397.137 113.522L377.035 78.6642C372.457 70.7238 378.184 60.794 387.341 60.794L505.629 60.794C514.786 60.794 520.513 70.7238 515.935 78.6642L456.795 181.232C452.217 189.172 440.762 189.172 436.183 181.232L416.133 146.46C407.175 151.624 399.409 159.141 393.872 168.751C377.096 197.848 387.047 235.05 416.107 251.839C445.168 268.637 482.322 258.673 499.09 229.575C510.881 209.127 509.465 184.675 497.5 166.112L497.543 166.043C492.663 157.177 492.395 146.036 497.82 136.626C503.245 127.215 513.006 121.878 523.122 121.67L523.165 121.601C545.202 122.7 567.058 111.697 578.85 91.2495C595.626 62.152 585.674 24.9497 556.614 8.16072C527.554 -8.63694 490.399 1.32748 473.632 30.425C473.113 31.3159 472.63 32.2241 472.163 33.1323C466.954 41.8771 457.408 47.733 446.507 47.733C435.605 47.733 426.085 41.8944 420.867 33.1756C410.812 13.4889 390.347 0.0127392 366.747 0.0127371C333.194 0.0127342 306 27.2505 306 60.8372C306 94.4239 333.203 121.662 366.747 121.662L366.729 121.679Z" fill="#F7F4F1"/>
</svg>
