<svg width="185" height="260" viewBox="0 0 185 260" fill="none" xmlns="http://www.w3.org/2000/svg">
<path d="M-35.2708 121.679C-24.1961 121.679 -13.8039 118.712 -4.86293 113.522L-24.9649 78.6642C-29.5434 70.7238 -23.816 60.794 -14.6591 60.794L103.629 60.794C112.786 60.794 118.513 70.7238 113.935 78.6642L54.7951 181.232C50.2167 189.172 38.7619 189.172 34.1835 181.232L14.1333 146.46C5.1751 151.624 -2.59099 159.141 -8.12833 168.751C-24.9045 197.848 -14.9528 235.05 14.1074 251.839C43.1676 268.637 80.3222 258.673 97.0897 229.575C108.881 209.127 107.465 184.675 95.5002 166.112L95.5434 166.043C90.6626 157.177 90.3948 146.036 95.8198 136.626C101.245 127.215 111.006 121.878 121.122 121.67L121.165 121.601C143.202 122.7 165.058 111.697 176.85 91.2495C193.626 62.152 183.674 24.9497 154.614 8.16072C125.554 -8.63694 88.3993 1.32748 71.6318 30.425C71.1135 31.3159 70.6297 32.2241 70.1632 33.1323C64.9541 41.8771 55.4085 47.733 44.5066 47.733C33.6047 47.733 24.085 41.8944 18.8673 33.1756C8.81196 13.4889 -11.6529 0.0127392 -35.2535 0.0127371C-68.8057 0.0127342 -96 27.2505 -96 60.8372C-96 94.4239 -68.7971 121.662 -35.2535 121.662L-35.2708 121.679Z" fill="#F7F4F1"/>
</svg>
