<svg width="283" height="262" viewBox="0 0 283 262" fill="none" xmlns="http://www.w3.org/2000/svg">
<path d="M221.644 139.385C210.501 139.385 200.044 142.375 191.047 147.604L211.274 182.731C215.881 190.732 210.118 200.738 200.904 200.738H81.8784C72.6644 200.738 66.9013 190.732 71.5083 182.731L131.017 79.3739C135.624 71.3724 147.15 71.3724 151.757 79.3739L171.932 114.413C180.946 109.209 188.761 101.635 194.333 91.9514C211.214 62.6301 201.2 25.1416 171.958 8.22349C142.717 -8.70339 105.331 1.33769 88.4586 30.659C76.5934 51.2641 78.0189 75.9049 90.058 94.6098L90.0145 94.6796C94.9258 103.614 95.1952 114.84 89.7364 124.323C84.2775 133.807 74.455 139.185 64.2761 139.394L64.2327 139.463C42.0582 138.356 20.0663 149.443 8.20108 170.049C-8.67968 199.37 1.33404 236.858 30.5755 253.777C59.8169 270.703 97.2032 260.662 114.075 231.341C114.597 230.443 115.084 229.528 115.553 228.613C120.795 219.801 130.4 213.9 141.37 213.9C152.339 213.9 161.919 219.783 167.169 228.569C177.287 248.407 197.879 261.987 221.627 261.987C255.389 261.987 282.752 234.54 282.752 200.695C282.752 166.85 255.38 139.402 221.627 139.402L221.644 139.385Z" fill="white"/>
</svg>
