<svg width="45" height="44" viewBox="0 0 45 44" fill="none" xmlns="http://www.w3.org/2000/svg">
<mask id="mask0_1808_1029" style="mask-type:alpha" maskUnits="userSpaceOnUse" x="0" y="0" width="45" height="44">
<rect x="0.134766" y="0.550781" width="43.9496" height="42.9026" fill="#D9D9D9"/>
</mask>
<g mask="url(#mask0_1808_1029)">
<path d="M9.29137 14.8545H34.9286V11.2793H9.29137V14.8545ZM9.29137 39.881C8.2842 39.881 7.42199 39.531 6.70476 38.8308C5.98752 38.1307 5.62891 37.289 5.62891 36.3058V11.2793C5.62891 10.2961 5.98752 9.45448 6.70476 8.75434C7.42199 8.05419 8.2842 7.70412 9.29137 7.70412H11.1226V4.12891H14.7851V7.70412H29.4349V4.12891H33.0974V7.70412H34.9286C35.9358 7.70412 36.798 8.05419 37.5153 8.75434C38.2325 9.45448 38.5911 10.2961 38.5911 11.2793V21.424C38.0112 21.1559 37.4161 20.9324 36.8057 20.7536C36.1952 20.5749 35.5696 20.4408 34.9286 20.3514V18.4298H9.29137V36.3058H20.8281C21.0418 36.9613 21.2936 37.5869 21.5835 38.1828C21.8735 38.7787 22.2168 39.3448 22.6136 39.881H9.29137ZM33.0974 41.6686C30.5642 41.6686 28.4049 40.7972 26.6194 39.0543C24.834 37.3114 23.9412 35.2035 23.9412 32.7306C23.9412 30.2578 24.834 28.1499 26.6194 26.407C28.4049 24.664 30.5642 23.7926 33.0974 23.7926C35.6306 23.7926 37.79 24.664 39.5754 26.407C41.3609 28.1499 42.2536 30.2578 42.2536 32.7306C42.2536 35.2035 41.3609 37.3114 39.5754 39.0543C37.79 40.7972 35.6306 41.6686 33.0974 41.6686ZM36.1647 36.9762L37.4466 35.7249L34.013 32.3731V27.3678H32.1818V33.0881L36.1647 36.9762Z" fill="black"/>
</g>
</svg>
