<svg width="21" height="19" viewBox="0 0 21 19" fill="none" xmlns="http://www.w3.org/2000/svg">
<path d="M9.99951 9L1.99951 4V14H10.9995V16H1.99951C1.44951 16 0.978678 15.8042 0.587012 15.4125C0.195345 15.0208 -0.000488281 14.55 -0.000488281 14V2C-0.000488281 1.45 0.195345 0.979167 0.587012 0.5875C0.978678 0.195833 1.44951 0 1.99951 0H17.9995C18.5495 0 19.0203 0.195833 19.412 0.5875C19.8037 0.979167 19.9995 1.45 19.9995 2V9H17.9995V4L9.99951 9ZM9.99951 7L17.9995 2H1.99951L9.99951 7ZM16.9995 19L15.5995 17.6L17.1745 16H12.9995V14H17.1745L15.5745 12.4L16.9995 11L20.9995 15L16.9995 19ZM1.99951 4V15V9V9.075V2V4Z" fill="white"/>
</svg>
