<svg width="373" height="67" viewBox="0 0 373 67" fill="none" xmlns="http://www.w3.org/2000/svg">
<path d="M55.8694 35.1293C53.0604 35.1293 50.4246 35.8828 48.1568 37.2009L53.2555 46.0538C54.4167 48.0704 52.964 50.5923 50.6415 50.5923H20.6389C18.3163 50.5923 16.8637 48.0704 18.0249 46.0538L33.0251 20.0047C34.1864 17.9881 37.0918 17.9881 38.2531 20.0047L43.3386 28.8356C45.6107 27.5242 47.5805 25.6152 48.985 23.1746C53.2401 15.7847 50.716 6.33648 43.3452 2.07257C35.9743 -2.19352 26.5505 0.337138 22.2976 7.72702C19.3067 12.9202 19.6661 19.1304 22.7007 23.8446L22.6898 23.8622C23.9277 26.1139 23.9957 28.9433 22.6196 31.3334C21.2436 33.7234 18.7677 35.0788 16.2019 35.1315L16.191 35.1491C10.6015 34.8701 5.05807 37.6644 2.06723 42.8575C-2.18787 50.2474 0.336269 59.6957 7.70709 63.9596C15.0779 68.2257 24.5018 65.695 28.7547 58.3051C28.8862 58.0788 29.0089 57.8482 29.1272 57.6175C30.4484 55.3966 32.8696 53.9094 35.6347 53.9094C38.3999 53.9094 40.8145 55.3922 42.1379 57.6065C44.6883 62.6064 49.879 66.0289 55.865 66.0289C64.3752 66.0289 71.2728 59.1113 71.2728 50.5813C71.2728 42.0513 64.373 35.1337 55.865 35.1337L55.8694 35.1293Z" fill="white"/>
<path d="M315.455 24.0146H321.51V50.1011H323.833V21.7539H315.455V24.0146Z" fill="white"/>
<path d="M339.295 32.3428H334.449L335.353 23.9833H347.067V21.7227H333.325L332.008 33.9153L332.637 34.5855H339.266C341.262 34.5855 343.102 35.2866 344.45 36.5626C345.785 37.8257 346.52 39.5424 346.52 41.3958C346.52 45.2959 343.592 48.2396 339.707 48.2396C335.823 48.2396 333.183 45.7624 332.884 42.0737L332.845 41.5917H330.525L330.564 42.1536C330.729 44.5148 331.724 46.6518 333.371 48.17C335.026 49.696 337.276 50.5338 339.707 50.5338C344.927 50.5338 348.863 46.6054 348.863 41.3984C348.863 38.9444 347.897 36.6657 346.139 34.9824C344.365 33.2837 341.934 32.3454 339.295 32.3454V32.3428Z" fill="white"/>
<path d="M362.867 32.4138L370.698 22.9536V21.7266H354.479V23.9872H367.041L359.292 33.3701V34.5662H362.086C366.234 34.5662 369.361 37.4893 369.361 41.3688C369.361 45.2482 366.422 48.241 362.527 48.241C358.632 48.241 356.031 45.7612 355.724 42.0725L355.683 41.5905H353.363L353.405 42.155C353.768 47.0887 357.519 50.5325 362.527 50.5325C367.536 50.5325 371.704 46.6041 371.704 41.3971C371.704 36.484 367.94 32.6973 362.867 32.4112V32.4138Z" fill="white"/>
<path d="M110.407 15.4613C116.983 15.4613 122.904 19.3665 125.494 25.4113L127.564 24.5245C124.618 17.6523 117.882 13.2109 110.407 13.2109C100.117 13.2109 91.7441 21.5834 91.7441 31.871C91.7441 42.1587 100.117 50.5311 110.407 50.5311C117.882 50.5311 124.618 46.0897 127.564 39.2175L125.494 38.3308C122.904 44.3755 116.98 48.2808 110.407 48.2808C101.359 48.2808 93.9971 40.9188 93.9971 31.871C93.9971 22.8232 101.359 15.4613 110.407 15.4613Z" fill="white"/>
<path d="M175.09 13.2109H172.84V50.5337H175.09V13.2109Z" fill="white"/>
<path d="M186.76 13.2109H184.51V50.5337H186.76V13.2109Z" fill="white"/>
<path d="M270.424 13.2109H268.174V50.5337H270.424V13.2109Z" fill="white"/>
<path d="M163.39 37.1008C163.272 31.8371 160.039 27.1663 155.155 25.2021C153.301 24.4571 151.378 24.1658 149.504 24.2767C149.484 24.2767 149.46 24.2767 149.44 24.2793C149.386 24.2818 149.331 24.287 149.277 24.2896C147.058 24.452 144.98 25.1712 143.191 26.3131C143.171 26.326 143.15 26.3389 143.132 26.3517C143.099 26.3724 143.065 26.3956 143.032 26.4188C141.245 27.5891 139.729 29.2053 138.67 31.1824C138.665 31.1927 138.657 31.2056 138.652 31.2159C138.624 31.27 138.595 31.3216 138.569 31.3757C138.541 31.4324 138.51 31.4891 138.482 31.5458C138.474 31.5613 138.466 31.5794 138.459 31.5948C137.884 32.76 137.477 34.023 137.268 35.3557C137.268 35.3583 137.268 35.3634 137.268 35.366C137.252 35.464 137.239 35.5619 137.227 35.6599C137.227 35.6753 137.224 35.6882 137.221 35.7037C137.211 35.7939 137.198 35.8841 137.19 35.9744C137.19 35.995 137.185 36.0156 137.183 36.0362C137.172 36.1239 137.165 36.2115 137.157 36.2992C137.157 36.3198 137.154 36.3378 137.152 36.3584C137.144 36.4512 137.139 36.544 137.134 36.6368C137.134 36.6472 137.134 36.6575 137.134 36.6678C137.131 36.7245 137.126 36.7812 137.123 36.8379C136.989 39.9827 137.979 42.9187 139.735 45.2593C139.74 45.2645 139.745 45.2722 139.748 45.2773C139.781 45.3212 139.812 45.3624 139.845 45.4062C140.828 46.6848 142.052 47.7932 143.485 48.6542C143.496 48.6593 143.506 48.667 143.516 48.6722C143.563 48.7006 143.609 48.7263 143.655 48.7521C143.715 48.7856 143.774 48.8217 143.833 48.8552C143.841 48.8578 143.846 48.8629 143.854 48.8655C145.558 49.8193 147.501 50.407 149.579 50.5127C149.61 50.5127 149.641 50.5153 149.672 50.5178C149.679 50.5178 149.69 50.5178 149.698 50.5178C149.811 50.523 149.924 50.523 150.038 50.5256C150.113 50.5256 150.187 50.5307 150.262 50.5307C150.29 50.5307 150.321 50.5307 150.35 50.5307C150.507 50.5307 150.662 50.5256 150.819 50.5204C150.888 50.5178 150.955 50.5127 151.025 50.5101C151.156 50.5024 151.285 50.4921 151.417 50.4818C151.476 50.4766 151.538 50.4714 151.597 50.4663C151.783 50.4482 151.968 50.425 152.151 50.3993C152.18 50.3941 152.211 50.389 152.239 50.3864C152.402 50.3606 152.564 50.3348 152.724 50.3039C152.773 50.2936 152.824 50.2833 152.873 50.2755C153.036 50.242 153.198 50.2059 153.36 50.1673C153.386 50.1621 153.412 50.157 153.435 50.1492C153.626 50.1028 153.817 50.0487 154.005 49.9946C154.033 49.9868 154.064 49.9765 154.093 49.9662C154.255 49.9172 154.415 49.8631 154.575 49.809C154.611 49.7961 154.647 49.7858 154.68 49.7729C155.051 49.6388 155.417 49.4893 155.776 49.3244C155.809 49.3089 155.84 49.2934 155.874 49.278C156.039 49.2006 156.204 49.1181 156.366 49.0331C156.379 49.0253 156.392 49.0202 156.405 49.0125C156.585 48.9171 156.763 48.8165 156.941 48.7134C156.959 48.7031 156.974 48.6928 156.992 48.6825C157.155 48.5871 157.312 48.4866 157.469 48.3835C157.487 48.3706 157.508 48.3577 157.526 48.3474C157.871 48.118 158.207 47.8705 158.531 47.6102C158.547 47.5973 158.562 47.5844 158.578 47.5741C158.903 47.3086 159.214 47.0276 159.511 46.7312C159.519 46.7234 159.529 46.7157 159.537 46.708C160.575 45.6717 161.452 44.4551 162.109 43.0811L162.101 43.076H159.55C159.078 43.8467 158.521 44.5478 157.889 45.1691C157.817 45.2387 157.748 45.3083 157.676 45.3753C157.652 45.3959 157.629 45.4165 157.606 45.4372C157.529 45.5068 157.451 45.5764 157.374 45.6434C157.351 45.664 157.328 45.682 157.304 45.7027C157.227 45.7697 157.147 45.8341 157.067 45.8986C157.041 45.9192 157.016 45.9372 156.992 45.9579C156.915 46.0197 156.835 46.0816 156.755 46.1409C156.727 46.1615 156.699 46.1821 156.668 46.2053C156.59 46.262 156.513 46.3162 156.433 46.3703C156.4 46.3935 156.369 46.4141 156.335 46.4373C156.26 46.4889 156.183 46.5378 156.106 46.5868C156.07 46.61 156.034 46.6332 155.997 46.6538C155.923 46.7002 155.848 46.7466 155.773 46.7905C155.735 46.8137 155.696 46.8369 155.655 46.8575C155.58 46.8987 155.505 46.9425 155.43 46.9812C155.389 47.0044 155.348 47.025 155.307 47.0482C155.232 47.0869 155.157 47.1256 155.082 47.1617C155.039 47.1823 154.997 47.2029 154.953 47.2235C154.879 47.2596 154.804 47.2931 154.727 47.3292C154.683 47.3498 154.639 47.3679 154.595 47.3885C154.52 47.422 154.443 47.4529 154.366 47.4839C154.322 47.5019 154.276 47.52 154.232 47.538C154.154 47.5689 154.077 47.5973 154 47.6256C153.956 47.6411 153.909 47.6592 153.863 47.6746C153.786 47.703 153.706 47.7288 153.629 47.7545C153.582 47.77 153.536 47.7829 153.489 47.7984C153.412 47.8216 153.332 47.8473 153.255 47.8679C153.206 47.8808 153.159 47.8937 153.11 47.9066C153.033 47.9272 152.956 47.9479 152.876 47.9685C152.827 47.9814 152.775 47.9917 152.726 48.0046C152.649 48.0226 152.574 48.0407 152.497 48.0561C152.443 48.0664 152.391 48.0767 152.337 48.0871C152.262 48.1025 152.188 48.1154 152.115 48.1283C152.059 48.1386 151.999 48.1463 151.943 48.1567C151.873 48.167 151.801 48.1773 151.731 48.1876C151.669 48.1953 151.605 48.2031 151.543 48.2108C151.476 48.2185 151.412 48.2262 151.345 48.234C151.278 48.2417 151.208 48.2469 151.138 48.252C151.077 48.2572 151.015 48.2623 150.953 48.2649C150.881 48.2701 150.806 48.2726 150.734 48.2752C150.674 48.2752 150.618 48.2804 150.558 48.283C150.484 48.283 150.406 48.283 150.332 48.2855C150.275 48.2855 150.216 48.2855 150.159 48.2855C150.087 48.2855 150.012 48.283 149.937 48.2804C149.878 48.2804 149.819 48.2778 149.762 48.2752C149.602 48.2675 149.442 48.2572 149.285 48.2417C149.228 48.2366 149.169 48.2288 149.112 48.2237C149.014 48.2134 148.919 48.2031 148.824 48.1902C148.741 48.1799 148.659 48.167 148.576 48.1541C148.517 48.1438 148.46 48.1335 148.401 48.1231C148.053 48.0613 147.708 47.9865 147.362 47.8911C147.357 47.8911 147.352 47.8886 147.347 47.886C146.96 47.7777 146.578 47.6488 146.202 47.4968C146.086 47.4504 145.97 47.4014 145.854 47.3498C145.841 47.3447 145.828 47.3395 145.815 47.3318C145.705 47.2828 145.596 47.2313 145.488 47.1797C145.457 47.1642 145.429 47.1488 145.398 47.1333C145.264 47.0663 145.135 46.9967 145.003 46.9271C144.911 46.8755 144.818 46.824 144.725 46.7698C144.684 46.7466 144.645 46.7209 144.604 46.6977C144.485 46.6255 144.369 46.5533 144.256 46.476C144.243 46.4682 144.23 46.4579 144.217 46.4502C143.496 45.9656 142.833 45.3985 142.248 44.7618C142.248 44.7618 142.245 44.7592 142.243 44.7566C142.024 44.5195 141.817 44.2695 141.622 44.0143C141.58 43.9627 141.542 43.9086 141.503 43.8544C141.462 43.7977 141.42 43.741 141.379 43.6843C140.255 42.0887 139.567 40.2121 139.41 38.2556H163.429L163.403 37.1034L163.39 37.1008ZM139.454 36.0001C139.456 35.9718 139.459 35.9434 139.464 35.9151C139.472 35.8532 139.482 35.7939 139.49 35.7321C139.508 35.6109 139.528 35.4923 139.552 35.3738C139.567 35.2913 139.585 35.2088 139.603 35.1263C139.619 35.0515 139.637 34.9742 139.655 34.8995C139.673 34.8195 139.693 34.7371 139.714 34.6572C139.727 34.603 139.742 34.5515 139.758 34.4973C139.799 34.3478 139.843 34.1957 139.892 34.0462C139.907 34.0024 139.92 33.956 139.936 33.9122C139.99 33.7498 140.049 33.5874 140.114 33.4276C140.129 33.3915 140.142 33.3528 140.157 33.3142C140.217 33.1647 140.281 33.0203 140.348 32.8759C140.361 32.8476 140.374 32.8192 140.387 32.7909C140.436 32.6852 140.49 32.5795 140.541 32.4764C140.575 32.4094 140.606 32.3424 140.642 32.2779C140.663 32.2367 140.686 32.198 140.709 32.1568C141.591 30.5508 142.867 29.1975 144.398 28.2154C144.46 28.1768 144.521 28.133 144.586 28.0943C144.614 28.0788 144.643 28.0634 144.668 28.0453C146.076 27.205 147.661 26.6869 149.306 26.5399C149.398 26.5322 149.491 26.5219 149.587 26.5167C149.62 26.5167 149.656 26.5167 149.69 26.5116C150.03 26.4935 150.373 26.4909 150.718 26.5064C151.925 26.5554 153.141 26.8054 154.322 27.2823C158.008 28.7645 160.56 32.1104 161.06 35.9924H139.461L139.454 36.0001Z" fill="white"/>
<path d="M306.181 37.1008C306.063 31.8371 302.83 27.1663 297.946 25.2021C296.092 24.4571 294.169 24.1658 292.295 24.2767C292.275 24.2767 292.251 24.2767 292.231 24.2793C292.177 24.2818 292.122 24.287 292.068 24.2896C289.849 24.452 287.771 25.1712 285.982 26.3131C285.962 26.326 285.941 26.3389 285.923 26.3517C285.89 26.3724 285.856 26.3956 285.823 26.4188C284.036 27.5891 282.52 29.2053 281.461 31.1824C281.456 31.1927 281.448 31.2056 281.443 31.2159C281.415 31.27 281.386 31.3216 281.361 31.3757C281.332 31.4324 281.301 31.4891 281.273 31.5458C281.265 31.5613 281.257 31.5794 281.25 31.5948C280.675 32.76 280.268 34.023 280.059 35.3557C280.059 35.3583 280.059 35.3634 280.059 35.366C280.043 35.464 280.03 35.5619 280.018 35.6599C280.018 35.6753 280.015 35.6882 280.012 35.7037C280.002 35.7939 279.989 35.8841 279.981 35.9744C279.981 35.995 279.976 36.0156 279.974 36.0362C279.963 36.1239 279.956 36.2115 279.948 36.2992C279.948 36.3198 279.945 36.3378 279.943 36.3584C279.935 36.4512 279.93 36.544 279.925 36.6368C279.925 36.6472 279.925 36.6575 279.925 36.6678C279.922 36.7245 279.917 36.7812 279.914 36.8379C279.78 39.9827 280.77 42.9187 282.526 45.2593C282.531 45.2645 282.536 45.2722 282.539 45.2773C282.572 45.3212 282.603 45.3624 282.636 45.4062C283.619 46.6848 284.843 47.7932 286.276 48.6542C286.287 48.6593 286.297 48.667 286.307 48.6722C286.354 48.7006 286.4 48.7263 286.446 48.7521C286.506 48.7856 286.565 48.8217 286.624 48.8552C286.632 48.8578 286.637 48.8629 286.645 48.8655C288.349 49.8193 290.292 50.407 292.37 50.5127C292.401 50.5127 292.432 50.5153 292.463 50.5178C292.47 50.5178 292.481 50.5178 292.489 50.5178C292.602 50.523 292.715 50.523 292.829 50.5256C292.904 50.5256 292.978 50.5307 293.053 50.5307C293.081 50.5307 293.112 50.5307 293.141 50.5307C293.298 50.5307 293.453 50.5256 293.61 50.5204C293.679 50.5178 293.746 50.5127 293.816 50.5101C293.947 50.5024 294.076 50.4921 294.208 50.4818C294.267 50.4766 294.329 50.4714 294.388 50.4663C294.574 50.4482 294.759 50.425 294.943 50.3993C294.971 50.3941 295.002 50.389 295.03 50.3864C295.193 50.3606 295.355 50.3348 295.515 50.3039C295.564 50.2936 295.615 50.2833 295.664 50.2755C295.827 50.242 295.989 50.2059 296.151 50.1673C296.177 50.1621 296.203 50.157 296.226 50.1492C296.417 50.1028 296.608 50.0487 296.796 49.9946C296.824 49.9868 296.855 49.9765 296.884 49.9662C297.046 49.9172 297.206 49.8631 297.366 49.809C297.402 49.7961 297.438 49.7858 297.471 49.7729C297.842 49.6388 298.208 49.4893 298.567 49.3244C298.6 49.3089 298.631 49.2934 298.665 49.278C298.83 49.2006 298.995 49.1181 299.157 49.0331C299.17 49.0253 299.183 49.0202 299.196 49.0125C299.376 48.9171 299.554 48.8165 299.732 48.7134C299.75 48.7031 299.765 48.6928 299.783 48.6825C299.946 48.5871 300.103 48.4866 300.26 48.3835C300.278 48.3706 300.299 48.3577 300.317 48.3474C300.662 48.118 300.998 47.8705 301.322 47.6102C301.338 47.5973 301.353 47.5844 301.369 47.5741C301.694 47.3086 302.005 47.0276 302.302 46.7312C302.31 46.7234 302.32 46.7157 302.328 46.708C303.366 45.6717 304.243 44.4551 304.9 43.0811L304.892 43.076H302.341C301.869 43.8467 301.312 44.5478 300.68 45.1691C300.608 45.2387 300.539 45.3083 300.467 45.3753C300.443 45.3959 300.42 45.4165 300.397 45.4372C300.32 45.5068 300.242 45.5764 300.165 45.6434C300.142 45.664 300.119 45.682 300.095 45.7027C300.018 45.7697 299.938 45.8341 299.858 45.8986C299.832 45.9192 299.807 45.9372 299.783 45.9579C299.706 46.0197 299.626 46.0816 299.546 46.1409C299.518 46.1615 299.49 46.1821 299.459 46.2053C299.381 46.262 299.304 46.3162 299.224 46.3703C299.191 46.3935 299.16 46.4141 299.126 46.4373C299.051 46.4889 298.974 46.5378 298.897 46.5868C298.861 46.61 298.825 46.6332 298.788 46.6538C298.714 46.7002 298.639 46.7466 298.564 46.7905C298.526 46.8137 298.487 46.8369 298.446 46.8575C298.371 46.8987 298.296 46.9425 298.221 46.9812C298.18 47.0044 298.139 47.025 298.098 47.0482C298.023 47.0869 297.948 47.1256 297.873 47.1617C297.83 47.1823 297.788 47.2029 297.744 47.2235C297.67 47.2596 297.595 47.2931 297.518 47.3292C297.474 47.3498 297.43 47.3679 297.386 47.3885C297.311 47.422 297.234 47.4529 297.157 47.4839C297.113 47.5019 297.067 47.52 297.023 47.538C296.945 47.5689 296.868 47.5973 296.791 47.6256C296.747 47.6411 296.7 47.6592 296.654 47.6746C296.577 47.703 296.497 47.7288 296.42 47.7545C296.373 47.77 296.327 47.7829 296.28 47.7984C296.203 47.8216 296.123 47.8473 296.046 47.8679C295.997 47.8808 295.95 47.8937 295.901 47.9066C295.824 47.9272 295.747 47.9479 295.667 47.9685C295.618 47.9814 295.566 47.9917 295.517 48.0046C295.44 48.0226 295.365 48.0407 295.288 48.0561C295.234 48.0664 295.182 48.0767 295.128 48.0871C295.053 48.1025 294.979 48.1154 294.906 48.1283C294.85 48.1386 294.79 48.1463 294.734 48.1567C294.664 48.167 294.592 48.1773 294.522 48.1876C294.46 48.1953 294.396 48.2031 294.334 48.2108C294.267 48.2185 294.203 48.2262 294.136 48.234C294.069 48.2417 293.999 48.2469 293.929 48.252C293.868 48.2572 293.806 48.2623 293.744 48.2649C293.672 48.2701 293.597 48.2726 293.525 48.2752C293.465 48.2752 293.409 48.2804 293.349 48.283C293.275 48.283 293.197 48.283 293.123 48.2855C293.066 48.2855 293.007 48.2855 292.95 48.2855C292.878 48.2855 292.803 48.283 292.728 48.2804C292.669 48.2804 292.61 48.2778 292.553 48.2752C292.393 48.2675 292.233 48.2572 292.076 48.2417C292.019 48.2366 291.96 48.2288 291.903 48.2237C291.808 48.2134 291.71 48.2031 291.615 48.1902C291.532 48.1799 291.45 48.167 291.367 48.1541C291.308 48.1438 291.251 48.1335 291.192 48.1231C290.844 48.0613 290.499 47.9865 290.153 47.8911C290.148 47.8911 290.143 47.8886 290.138 47.886C289.751 47.7777 289.369 47.6488 288.993 47.4968C288.877 47.4504 288.761 47.4014 288.645 47.3498C288.632 47.3447 288.619 47.3395 288.606 47.3318C288.496 47.2828 288.387 47.2313 288.279 47.1797C288.248 47.1642 288.22 47.1488 288.189 47.1333C288.055 47.0663 287.926 46.9967 287.794 46.9271C287.702 46.8755 287.609 46.824 287.516 46.7698C287.475 46.7466 287.436 46.7209 287.395 46.6977C287.276 46.6255 287.16 46.5533 287.047 46.476C287.034 46.4682 287.021 46.4579 287.008 46.4502C286.287 45.9656 285.624 45.3985 285.039 44.7618C285.039 44.7618 285.036 44.7592 285.034 44.7566C284.815 44.5195 284.608 44.2695 284.413 44.0143C284.371 43.9627 284.333 43.9086 284.294 43.8544C284.253 43.7977 284.211 43.741 284.17 43.6843C283.046 42.0887 282.358 40.2121 282.201 38.2556H306.22L306.194 37.1034L306.181 37.1008ZM282.245 36.0001C282.247 35.9718 282.25 35.9434 282.255 35.9151C282.263 35.8532 282.273 35.7939 282.281 35.7321C282.299 35.6109 282.319 35.4923 282.343 35.3738C282.358 35.2913 282.376 35.2088 282.394 35.1263C282.41 35.0515 282.428 34.9742 282.446 34.8995C282.464 34.8195 282.484 34.7371 282.505 34.6572C282.518 34.603 282.533 34.5515 282.549 34.4973C282.59 34.3478 282.634 34.1957 282.683 34.0462C282.698 34.0024 282.711 33.956 282.727 33.9122C282.781 33.7498 282.84 33.5874 282.905 33.4276C282.92 33.3915 282.933 33.3528 282.948 33.3142C283.008 33.1647 283.072 33.0203 283.139 32.8759C283.152 32.8476 283.165 32.8192 283.178 32.7909C283.227 32.6852 283.281 32.5795 283.332 32.4764C283.366 32.4094 283.397 32.3424 283.433 32.2779C283.454 32.2367 283.477 32.198 283.5 32.1568C284.382 30.5508 285.658 29.1975 287.189 28.2154C287.251 28.1768 287.312 28.133 287.377 28.0943C287.405 28.0788 287.434 28.0634 287.459 28.0453C288.867 27.205 290.452 26.6869 292.097 26.5399C292.189 26.5322 292.282 26.5219 292.378 26.5167C292.411 26.5167 292.447 26.5167 292.481 26.5116C292.821 26.4935 293.164 26.4909 293.509 26.5064C294.716 26.5554 295.932 26.8054 297.113 27.2823C300.799 28.7645 303.351 32.1104 303.851 35.9924H282.252L282.245 36.0001Z" fill="white"/>
<path d="M220.331 29.7312C218.536 27.1638 215.892 25.3207 212.878 24.5242C207.756 23.1684 202.336 24.9908 199.072 29.1641C197.095 31.6954 196.121 34.7861 196.283 37.9619C196.288 38.0469 196.293 38.132 196.299 38.2171C196.299 38.2325 196.299 38.248 196.301 38.2635C196.348 38.9259 196.445 39.5755 196.587 40.2071C196.587 40.2071 196.587 40.2122 196.587 40.2148C196.605 40.2947 196.623 40.372 196.644 40.4519C196.654 40.4906 196.662 40.5293 196.672 40.5679C196.683 40.6092 196.693 40.6478 196.703 40.6865C197.433 43.4679 199.041 45.9244 201.346 47.7263C202.366 48.5253 203.47 49.1466 204.617 49.6028C204.635 49.6106 204.65 49.6157 204.668 49.6235C204.733 49.6492 204.8 49.675 204.864 49.6982C204.903 49.7137 204.942 49.7266 204.98 49.742C205.001 49.7498 205.022 49.7575 205.042 49.7627C206.432 50.2602 207.929 50.5334 209.489 50.5334C212.548 50.5334 215.433 49.4817 217.727 47.6567C217.73 47.6541 217.735 47.6515 217.737 47.6463C218.72 46.8627 219.593 45.9347 220.325 44.8882V50.4019H222.712V37.5237C222.712 37.3922 222.712 37.2633 222.712 37.1318V24.2175H220.325V29.7312H220.331ZM220.331 37.4876C220.292 39.7972 219.516 42.0836 218.031 43.9834C215.1 47.7314 210.18 49.0254 205.919 47.5407C205.908 47.5355 205.895 47.5329 205.885 47.5278C205.823 47.5046 205.759 47.4814 205.697 47.4582C205.663 47.4453 205.627 47.4324 205.594 47.4195C205.555 47.404 205.516 47.3886 205.475 47.3731C205.418 47.3499 205.362 47.3267 205.308 47.3035C205.292 47.2958 205.274 47.2906 205.259 47.2829C202.274 46.0121 199.972 43.4369 199.07 40.2792C199.07 40.2741 199.067 40.2689 199.064 40.2663C199.049 40.2071 199.033 40.1503 199.018 40.0911C199.008 40.0524 198.997 40.0112 198.987 39.9725C198.982 39.9467 198.974 39.9235 198.969 39.8977C198.869 39.4801 198.789 39.0574 198.737 38.6243C198.714 38.4439 198.698 38.266 198.686 38.0856C198.686 38.0856 198.686 38.083 198.686 38.0804C198.68 38.0005 198.675 37.918 198.67 37.8381C198.662 37.6628 198.657 37.485 198.657 37.3071C198.657 31.332 203.519 26.4704 209.494 26.4704C213.543 26.4704 217.217 28.713 219.083 32.2522C219.098 32.2832 219.116 32.3141 219.132 32.345C219.176 32.4327 219.22 32.5203 219.263 32.6105C219.279 32.644 219.294 32.6775 219.312 32.7111C219.354 32.7987 219.392 32.8863 219.431 32.974C220.016 34.3144 220.315 35.7347 220.336 37.155V37.4876H220.331Z" fill="white"/>
<path d="M257.272 31.3825C257.249 31.3361 257.226 31.2897 257.203 31.2433C256.355 29.5962 255.148 28.1011 253.596 26.887C251.114 24.946 248.093 23.9742 244.979 24.0902C244.964 24.0902 244.948 24.0902 244.935 24.0902C244.788 24.0953 244.639 24.103 244.492 24.1159C244.448 24.1185 244.402 24.1237 244.358 24.1262C244.27 24.134 244.183 24.1417 244.095 24.1494C244.02 24.1572 243.948 24.1649 243.873 24.1726C243.863 24.1726 243.853 24.1726 243.842 24.1752C243.799 24.1804 243.755 24.1881 243.711 24.1933C243.572 24.2113 243.435 24.2319 243.296 24.2551C243.244 24.2629 243.19 24.2732 243.139 24.2809C243.061 24.2938 242.987 24.3093 242.909 24.3221C242.827 24.3376 242.747 24.3557 242.667 24.3711C242.595 24.3866 242.523 24.4021 242.448 24.4201C242.34 24.4459 242.234 24.4717 242.126 24.4974C242.092 24.5052 242.056 24.5155 242.023 24.5258C240.04 25.0542 238.223 26.0286 236.694 27.3845C236.674 27.4025 236.653 27.4206 236.635 27.4386C236.537 27.5262 236.442 27.6139 236.346 27.7041C236.29 27.7557 236.236 27.8098 236.181 27.8639C236.15 27.8949 236.117 27.9258 236.086 27.9593C235.547 28.5006 235.052 29.0883 234.612 29.7225V13.207H232.225V37.0844C232.225 37.2159 232.225 37.3499 232.225 37.4814V50.3932H234.612V44.8794C236.406 47.4468 239.05 49.2899 242.064 50.0864C243.188 50.3854 244.327 50.5298 245.453 50.5298C249.462 50.5298 253.321 48.7048 255.87 45.4465C256.672 44.4206 257.295 43.3148 257.752 42.1625C257.757 42.1496 257.762 42.1367 257.767 42.1239C257.796 42.0491 257.827 41.9718 257.855 41.897C257.87 41.8532 257.886 41.8094 257.901 41.7656C257.917 41.7192 257.935 41.6728 257.95 41.6264C257.976 41.5516 258.002 41.4794 258.025 41.4047C258.03 41.3892 258.035 41.3712 258.04 41.3557C258.453 40.0772 258.677 38.7161 258.677 37.3035C258.677 35.213 258.187 33.2333 257.321 31.4727C257.306 31.4418 257.29 31.4109 257.275 31.3799L257.272 31.3825ZM255.767 40.6314C255.767 40.6314 255.762 40.6494 255.759 40.6571C255.739 40.7216 255.715 40.7886 255.692 40.853C255.679 40.8866 255.669 40.9201 255.656 40.9536C255.641 40.9948 255.628 41.0335 255.612 41.0747C255.592 41.1314 255.568 41.1907 255.545 41.2474C255.54 41.2629 255.532 41.2784 255.527 41.2938C253.934 45.3022 250.019 48.1428 245.451 48.1428C241.404 48.1428 237.731 45.9002 235.864 42.361C235.849 42.3301 235.831 42.2991 235.815 42.2656C235.772 42.178 235.728 42.0903 235.684 42.0027C235.668 41.9692 235.65 41.9357 235.635 41.9022C235.594 41.8145 235.555 41.7269 235.516 41.6392C234.931 40.3014 234.632 38.8837 234.612 37.4659V37.1231C234.65 34.8135 235.426 32.5296 236.911 30.6298C237.184 30.2792 237.478 29.9493 237.787 29.6374C237.803 29.6219 237.818 29.6065 237.834 29.591C237.893 29.5343 237.95 29.4776 238.009 29.4209C238.079 29.3564 238.148 29.292 238.218 29.2301C238.241 29.2095 238.262 29.1915 238.285 29.1708C239.53 28.0727 241.02 27.2711 242.639 26.838C242.67 26.8303 242.7 26.8225 242.731 26.8122C242.814 26.7916 242.896 26.771 242.981 26.7504C243.048 26.7349 243.118 26.7194 243.185 26.704C243.244 26.6911 243.306 26.6782 243.366 26.6679C243.43 26.655 243.494 26.6421 243.561 26.6318C243.6 26.624 243.639 26.6189 243.677 26.6112C243.796 26.5905 243.917 26.5725 244.038 26.557C244.077 26.5519 244.116 26.5467 244.154 26.5416C244.216 26.5338 244.281 26.5261 244.342 26.5209C244.407 26.5132 244.474 26.5081 244.538 26.5029C244.58 26.5003 244.623 26.4952 244.665 26.4926C244.783 26.4848 244.899 26.4771 245.018 26.472C245.036 26.472 245.051 26.472 245.069 26.472C245.196 26.4668 245.322 26.4642 245.448 26.4642C249.555 26.4642 253.138 28.761 254.976 32.1378C254.976 32.1378 254.976 32.1429 254.978 32.1455C255.012 32.2048 255.043 32.2667 255.073 32.326C255.097 32.3724 255.122 32.4213 255.146 32.4677C255.153 32.4832 255.161 32.4987 255.169 32.5167C256.401 35.0274 256.625 37.948 255.762 40.6314H255.767Z" fill="white"/>
<path d="M316.752 24.0146H322.807V50.1011H325.13V21.7539H316.752V24.0146Z" fill="white"/>
<path d="M340.592 32.3428H335.746L336.65 23.9833H348.363V21.7227H334.622L333.304 33.9153L333.933 34.5855H340.563C342.558 34.5855 344.399 35.2866 345.747 36.5626C347.082 37.8257 347.817 39.5424 347.817 41.3958C347.817 45.2959 344.889 48.2396 341.004 48.2396C337.119 48.2396 334.48 45.7624 334.181 42.0737L334.142 41.5917H331.822L331.861 42.1536C332.026 44.5148 333.021 46.6518 334.668 48.17C336.323 49.696 338.573 50.5338 341.004 50.5338C346.224 50.5338 350.16 46.6054 350.16 41.3984C350.16 38.9444 349.194 36.6657 347.436 34.9824C345.662 33.2837 343.231 32.3454 340.592 32.3454V32.3428Z" fill="white"/>
<path d="M364.164 32.4138L371.995 22.9536V21.7266H355.776V23.9872H368.338L360.589 33.3701V34.5662H363.383C367.531 34.5662 370.657 37.4893 370.657 41.3688C370.657 45.2482 367.719 48.241 363.824 48.241C359.929 48.241 357.328 45.7612 357.021 42.0725L356.98 41.5905H354.66L354.701 42.155C355.065 47.0887 358.815 50.5325 363.824 50.5325C368.832 50.5325 373.001 46.6041 373.001 41.3971C373.001 36.484 369.237 32.6973 364.164 32.4112V32.4138Z" fill="white"/>
<path d="M111.704 15.4613C118.279 15.4613 124.2 19.3665 126.791 25.4113L128.861 24.5245C125.915 17.6523 119.179 13.2109 111.704 13.2109C101.413 13.2109 93.041 21.5834 93.041 31.871C93.041 42.1587 101.413 50.5311 111.704 50.5311C119.179 50.5311 125.915 46.0897 128.861 39.2175L126.791 38.3308C124.2 44.3755 118.277 48.2808 111.704 48.2808C102.656 48.2808 95.2939 40.9188 95.2939 31.871C95.2939 22.8232 102.656 15.4613 111.704 15.4613Z" fill="white"/>
<path d="M176.387 13.2109H174.137V50.5337H176.387V13.2109Z" fill="white"/>
<path d="M188.059 13.2109H185.809V50.5337H188.059V13.2109Z" fill="white"/>
<path d="M271.721 13.2109H269.471V50.5337H271.721V13.2109Z" fill="white"/>
<path d="M164.687 37.1008C164.569 31.8371 161.336 27.1663 156.451 25.2021C154.598 24.4571 152.675 24.1658 150.801 24.2767C150.78 24.2767 150.757 24.2767 150.737 24.2793C150.682 24.2818 150.628 24.287 150.574 24.2896C148.355 24.452 146.277 25.1712 144.488 26.3131C144.468 26.326 144.447 26.3389 144.429 26.3517C144.395 26.3724 144.362 26.3956 144.328 26.4188C142.542 27.5891 141.026 29.2053 139.967 31.1824C139.962 31.1927 139.954 31.2056 139.949 31.2159C139.92 31.27 139.892 31.3216 139.866 31.3757C139.838 31.4324 139.807 31.4891 139.779 31.5458C139.771 31.5613 139.763 31.5794 139.756 31.5948C139.181 32.76 138.773 34.023 138.565 35.3557C138.565 35.3583 138.565 35.3634 138.565 35.366C138.549 35.464 138.536 35.5619 138.523 35.6599C138.523 35.6753 138.521 35.6882 138.518 35.7037C138.508 35.7939 138.495 35.8841 138.487 35.9744C138.487 35.995 138.482 36.0156 138.48 36.0362C138.469 36.1239 138.462 36.2115 138.454 36.2992C138.454 36.3198 138.451 36.3378 138.449 36.3584C138.441 36.4512 138.436 36.544 138.431 36.6368C138.431 36.6472 138.431 36.6575 138.431 36.6678C138.428 36.7245 138.423 36.7812 138.42 36.8379C138.286 39.9827 139.276 42.9187 141.031 45.2593C141.037 45.2645 141.042 45.2722 141.044 45.2773C141.078 45.3212 141.109 45.3624 141.142 45.4062C142.124 46.6848 143.349 47.7932 144.782 48.6542C144.792 48.6593 144.803 48.667 144.813 48.6722C144.859 48.7006 144.906 48.7263 144.952 48.7521C145.011 48.7856 145.071 48.8217 145.13 48.8552C145.138 48.8578 145.143 48.8629 145.151 48.8655C146.855 49.8193 148.798 50.407 150.876 50.5127C150.907 50.5127 150.938 50.5153 150.969 50.5178C150.976 50.5178 150.987 50.5178 150.994 50.5178C151.108 50.523 151.221 50.523 151.335 50.5256C151.409 50.5256 151.484 50.5307 151.559 50.5307C151.587 50.5307 151.618 50.5307 151.647 50.5307C151.804 50.5307 151.958 50.5256 152.116 50.5204C152.185 50.5178 152.252 50.5127 152.322 50.5101C152.453 50.5024 152.582 50.4921 152.714 50.4818C152.773 50.4766 152.835 50.4714 152.894 50.4663C153.08 50.4482 153.265 50.425 153.448 50.3993C153.477 50.3941 153.508 50.389 153.536 50.3864C153.698 50.3606 153.861 50.3348 154.021 50.3039C154.07 50.2936 154.121 50.2833 154.17 50.2755C154.333 50.242 154.495 50.2059 154.657 50.1673C154.683 50.1621 154.709 50.157 154.732 50.1492C154.923 50.1028 155.114 50.0487 155.302 49.9946C155.33 49.9868 155.361 49.9765 155.389 49.9662C155.552 49.9172 155.712 49.8631 155.871 49.809C155.908 49.7961 155.944 49.7858 155.977 49.7729C156.348 49.6388 156.714 49.4893 157.073 49.3244C157.106 49.3089 157.137 49.2934 157.171 49.278C157.336 49.2006 157.501 49.1181 157.663 49.0331C157.676 49.0253 157.689 49.0202 157.702 49.0125C157.882 48.9171 158.06 48.8165 158.238 48.7134C158.256 48.7031 158.271 48.6928 158.289 48.6825C158.452 48.5871 158.609 48.4866 158.766 48.3835C158.784 48.3706 158.805 48.3577 158.823 48.3474C159.168 48.118 159.503 47.8705 159.828 47.6102C159.844 47.5973 159.859 47.5844 159.875 47.5741C160.199 47.3086 160.511 47.0276 160.808 46.7312C160.815 46.7234 160.826 46.7157 160.834 46.708C161.872 45.6717 162.749 44.4551 163.406 43.0811L163.398 43.076H160.846C160.375 43.8467 159.818 44.5478 159.186 45.1691C159.114 45.2387 159.045 45.3083 158.972 45.3753C158.949 45.3959 158.926 45.4165 158.903 45.4372C158.825 45.5068 158.748 45.5764 158.671 45.6434C158.648 45.664 158.624 45.682 158.601 45.7027C158.524 45.7697 158.444 45.8341 158.364 45.8986C158.338 45.9192 158.313 45.9372 158.289 45.9579C158.212 46.0197 158.132 46.0816 158.052 46.1409C158.024 46.1615 157.995 46.1821 157.965 46.2053C157.887 46.262 157.81 46.3162 157.73 46.3703C157.696 46.3935 157.666 46.4141 157.632 46.4373C157.557 46.4889 157.48 46.5378 157.403 46.5868C157.366 46.61 157.33 46.6332 157.294 46.6538C157.22 46.7002 157.145 46.7466 157.07 46.7905C157.031 46.8137 156.993 46.8369 156.951 46.8575C156.877 46.8987 156.802 46.9425 156.727 46.9812C156.686 47.0044 156.645 47.025 156.603 47.0482C156.529 47.0869 156.454 47.1256 156.379 47.1617C156.335 47.1823 156.294 47.2029 156.25 47.2235C156.176 47.2596 156.101 47.2931 156.023 47.3292C155.98 47.3498 155.936 47.3679 155.892 47.3885C155.817 47.422 155.74 47.4529 155.663 47.4839C155.619 47.5019 155.572 47.52 155.529 47.538C155.451 47.5689 155.374 47.5973 155.297 47.6256C155.253 47.6411 155.206 47.6592 155.16 47.6746C155.083 47.703 155.003 47.7288 154.925 47.7545C154.879 47.77 154.833 47.7829 154.786 47.7984C154.709 47.8216 154.629 47.8473 154.552 47.8679C154.503 47.8808 154.456 47.8937 154.407 47.9066C154.33 47.9272 154.253 47.9479 154.173 47.9685C154.124 47.9814 154.072 47.9917 154.023 48.0046C153.946 48.0226 153.871 48.0407 153.794 48.0561C153.74 48.0664 153.688 48.0767 153.634 48.0871C153.559 48.1025 153.484 48.1154 153.412 48.1283C153.356 48.1386 153.296 48.1463 153.24 48.1567C153.17 48.167 153.098 48.1773 153.028 48.1876C152.966 48.1953 152.902 48.2031 152.84 48.2108C152.773 48.2185 152.709 48.2262 152.642 48.234C152.575 48.2417 152.505 48.2469 152.435 48.252C152.373 48.2572 152.312 48.2623 152.25 48.2649C152.178 48.2701 152.103 48.2726 152.031 48.2752C151.971 48.2752 151.915 48.2804 151.855 48.283C151.781 48.283 151.703 48.283 151.628 48.2855C151.572 48.2855 151.512 48.2855 151.456 48.2855C151.384 48.2855 151.309 48.283 151.234 48.2804C151.175 48.2804 151.116 48.2778 151.059 48.2752C150.899 48.2675 150.739 48.2572 150.582 48.2417C150.525 48.2366 150.466 48.2288 150.409 48.2237C150.311 48.2134 150.216 48.2031 150.121 48.1902C150.038 48.1799 149.956 48.167 149.873 48.1541C149.814 48.1438 149.757 48.1335 149.698 48.1231C149.35 48.0613 149.004 47.9865 148.659 47.8911C148.654 47.8911 148.649 47.8886 148.643 47.886C148.257 47.7777 147.875 47.6488 147.499 47.4968C147.383 47.4504 147.267 47.4014 147.151 47.3498C147.138 47.3447 147.125 47.3395 147.112 47.3318C147.001 47.2828 146.893 47.2313 146.785 47.1797C146.754 47.1642 146.726 47.1488 146.695 47.1333C146.561 47.0663 146.432 46.9967 146.3 46.9271C146.208 46.8755 146.115 46.824 146.022 46.7698C145.981 46.7466 145.942 46.7209 145.901 46.6977C145.782 46.6255 145.666 46.5533 145.553 46.476C145.54 46.4682 145.527 46.4579 145.514 46.4502C144.792 45.9656 144.13 45.3985 143.545 44.7618C143.545 44.7618 143.542 44.7592 143.54 44.7566C143.321 44.5195 143.114 44.2695 142.918 44.0143C142.877 43.9627 142.838 43.9086 142.8 43.8544C142.759 43.7977 142.717 43.741 142.676 43.6843C141.552 42.0887 140.864 40.2121 140.707 38.2556H164.726L164.7 37.1034L164.687 37.1008ZM140.751 36.0001C140.753 35.9718 140.756 35.9434 140.761 35.9151C140.769 35.8532 140.779 35.7939 140.787 35.7321C140.805 35.6109 140.825 35.4923 140.848 35.3738C140.864 35.2913 140.882 35.2088 140.9 35.1263C140.915 35.0515 140.934 34.9742 140.952 34.8995C140.97 34.8195 140.99 34.7371 141.011 34.6572C141.024 34.603 141.039 34.5515 141.055 34.4973C141.096 34.3478 141.14 34.1957 141.189 34.0462C141.204 34.0024 141.217 33.956 141.233 33.9122C141.287 33.7498 141.346 33.5874 141.41 33.4276C141.426 33.3915 141.439 33.3528 141.454 33.3142C141.514 33.1647 141.578 33.0203 141.645 32.8759C141.658 32.8476 141.671 32.8192 141.684 32.7909C141.733 32.6852 141.787 32.5795 141.838 32.4764C141.872 32.4094 141.903 32.3424 141.939 32.2779C141.959 32.2367 141.983 32.198 142.006 32.1568C142.887 30.5508 144.163 29.1975 145.695 28.2154C145.756 28.1768 145.818 28.133 145.883 28.0943C145.911 28.0788 145.939 28.0634 145.965 28.0453C147.373 27.205 148.958 26.6869 150.603 26.5399C150.695 26.5322 150.788 26.5219 150.884 26.5167C150.917 26.5167 150.953 26.5167 150.987 26.5116C151.327 26.4935 151.67 26.4909 152.015 26.5064C153.222 26.5554 154.438 26.8054 155.619 27.2823C159.305 28.7645 161.857 32.1104 162.357 35.9924H140.758L140.751 36.0001Z" fill="white"/>
<path d="M307.48 37.1008C307.362 31.8371 304.129 27.1663 299.244 25.2021C297.391 24.4571 295.468 24.1658 293.594 24.2767C293.573 24.2767 293.55 24.2767 293.53 24.2793C293.475 24.2818 293.421 24.287 293.367 24.2896C291.148 24.452 289.07 25.1712 287.281 26.3131C287.261 26.326 287.24 26.3389 287.222 26.3517C287.188 26.3724 287.155 26.3956 287.121 26.4188C285.335 27.5891 283.819 29.2053 282.76 31.1824C282.755 31.1927 282.747 31.2056 282.742 31.2159C282.713 31.27 282.685 31.3216 282.659 31.3757C282.631 31.4324 282.6 31.4891 282.572 31.5458C282.564 31.5613 282.556 31.5794 282.548 31.5948C281.974 32.76 281.566 34.023 281.358 35.3557C281.358 35.3583 281.358 35.3634 281.358 35.366C281.342 35.464 281.329 35.5619 281.316 35.6599C281.316 35.6753 281.314 35.6882 281.311 35.7037C281.301 35.7939 281.288 35.8841 281.28 35.9744C281.28 35.995 281.275 36.0156 281.273 36.0362C281.262 36.1239 281.254 36.2115 281.247 36.2992C281.247 36.3198 281.244 36.3378 281.242 36.3584C281.234 36.4512 281.229 36.544 281.224 36.6368C281.224 36.6472 281.224 36.6575 281.224 36.6678C281.221 36.7245 281.216 36.7812 281.213 36.8379C281.079 39.9827 282.069 42.9187 283.824 45.2593C283.83 45.2645 283.835 45.2722 283.837 45.2773C283.871 45.3212 283.902 45.3624 283.935 45.4062C284.917 46.6848 286.142 47.7932 287.575 48.6542C287.585 48.6593 287.596 48.667 287.606 48.6722C287.652 48.7006 287.699 48.7263 287.745 48.7521C287.804 48.7856 287.864 48.8217 287.923 48.8552C287.931 48.8578 287.936 48.8629 287.944 48.8655C289.648 49.8193 291.591 50.407 293.669 50.5127C293.7 50.5127 293.731 50.5153 293.762 50.5178C293.769 50.5178 293.78 50.5178 293.787 50.5178C293.901 50.523 294.014 50.523 294.128 50.5256C294.202 50.5256 294.277 50.5307 294.352 50.5307C294.38 50.5307 294.411 50.5307 294.439 50.5307C294.597 50.5307 294.751 50.5256 294.909 50.5204C294.978 50.5178 295.045 50.5127 295.115 50.5101C295.246 50.5024 295.375 50.4921 295.507 50.4818C295.566 50.4766 295.628 50.4714 295.687 50.4663C295.873 50.4482 296.058 50.425 296.241 50.3993C296.27 50.3941 296.301 50.389 296.329 50.3864C296.491 50.3606 296.654 50.3348 296.814 50.3039C296.863 50.2936 296.914 50.2833 296.963 50.2755C297.125 50.242 297.288 50.2059 297.45 50.1673C297.476 50.1621 297.502 50.157 297.525 50.1492C297.716 50.1028 297.907 50.0487 298.095 49.9946C298.123 49.9868 298.154 49.9765 298.182 49.9662C298.345 49.9172 298.505 49.8631 298.664 49.809C298.7 49.7961 298.737 49.7858 298.77 49.7729C299.141 49.6388 299.507 49.4893 299.866 49.3244C299.899 49.3089 299.93 49.2934 299.964 49.278C300.129 49.2006 300.294 49.1181 300.456 49.0331C300.469 49.0253 300.482 49.0202 300.495 49.0125C300.675 48.9171 300.853 48.8165 301.031 48.7134C301.049 48.7031 301.064 48.6928 301.082 48.6825C301.245 48.5871 301.402 48.4866 301.559 48.3835C301.577 48.3706 301.598 48.3577 301.616 48.3474C301.961 48.118 302.296 47.8705 302.621 47.6102C302.637 47.5973 302.652 47.5844 302.668 47.5741C302.992 47.3086 303.304 47.0276 303.601 46.7312C303.608 46.7234 303.619 46.7157 303.626 46.708C304.665 45.6717 305.542 44.4551 306.199 43.0811L306.191 43.076H303.639C303.168 43.8467 302.611 44.5478 301.979 45.1691C301.907 45.2387 301.838 45.3083 301.765 45.3753C301.742 45.3959 301.719 45.4165 301.696 45.4372C301.618 45.5068 301.541 45.5764 301.464 45.6434C301.441 45.664 301.417 45.682 301.394 45.7027C301.317 45.7697 301.237 45.8341 301.157 45.8986C301.131 45.9192 301.105 45.9372 301.082 45.9579C301.005 46.0197 300.925 46.0816 300.845 46.1409C300.817 46.1615 300.788 46.1821 300.757 46.2053C300.68 46.262 300.603 46.3162 300.523 46.3703C300.489 46.3935 300.458 46.4141 300.425 46.4373C300.35 46.4889 300.273 46.5378 300.196 46.5868C300.159 46.61 300.123 46.6332 300.087 46.6538C300.013 46.7002 299.938 46.7466 299.863 46.7905C299.824 46.8137 299.786 46.8369 299.744 46.8575C299.67 46.8987 299.595 46.9425 299.52 46.9812C299.479 47.0044 299.438 47.025 299.396 47.0482C299.322 47.0869 299.247 47.1256 299.172 47.1617C299.128 47.1823 299.087 47.2029 299.043 47.2235C298.969 47.2596 298.894 47.2931 298.816 47.3292C298.773 47.3498 298.729 47.3679 298.685 47.3885C298.61 47.422 298.533 47.4529 298.456 47.4839C298.412 47.5019 298.365 47.52 298.322 47.538C298.244 47.5689 298.167 47.5973 298.09 47.6256C298.046 47.6411 297.999 47.6592 297.953 47.6746C297.876 47.703 297.796 47.7288 297.718 47.7545C297.672 47.77 297.626 47.7829 297.579 47.7984C297.502 47.8216 297.422 47.8473 297.345 47.8679C297.296 47.8808 297.249 47.8937 297.2 47.9066C297.123 47.9272 297.046 47.9479 296.966 47.9685C296.917 47.9814 296.865 47.9917 296.816 48.0046C296.739 48.0226 296.664 48.0407 296.587 48.0561C296.533 48.0664 296.481 48.0767 296.427 48.0871C296.352 48.1025 296.277 48.1154 296.205 48.1283C296.149 48.1386 296.089 48.1463 296.033 48.1567C295.963 48.167 295.891 48.1773 295.821 48.1876C295.759 48.1953 295.695 48.2031 295.633 48.2108C295.566 48.2185 295.502 48.2262 295.435 48.234C295.367 48.2417 295.298 48.2469 295.228 48.252C295.166 48.2572 295.105 48.2623 295.043 48.2649C294.971 48.2701 294.896 48.2726 294.824 48.2752C294.764 48.2752 294.708 48.2804 294.648 48.283C294.574 48.283 294.496 48.283 294.421 48.2855C294.365 48.2855 294.305 48.2855 294.249 48.2855C294.177 48.2855 294.102 48.283 294.027 48.2804C293.968 48.2804 293.908 48.2778 293.852 48.2752C293.692 48.2675 293.532 48.2572 293.375 48.2417C293.318 48.2366 293.259 48.2288 293.202 48.2237C293.107 48.2134 293.009 48.2031 292.913 48.1902C292.831 48.1799 292.749 48.167 292.666 48.1541C292.607 48.1438 292.55 48.1335 292.491 48.1231C292.143 48.0613 291.797 47.9865 291.452 47.8911C291.447 47.8911 291.442 47.8886 291.436 47.886C291.05 47.7777 290.668 47.6488 290.292 47.4968C290.176 47.4504 290.06 47.4014 289.944 47.3498C289.931 47.3447 289.918 47.3395 289.905 47.3318C289.794 47.2828 289.686 47.2313 289.578 47.1797C289.547 47.1642 289.519 47.1488 289.488 47.1333C289.354 47.0663 289.225 46.9967 289.093 46.9271C289.001 46.8755 288.908 46.824 288.815 46.7698C288.774 46.7466 288.735 46.7209 288.694 46.6977C288.575 46.6255 288.459 46.5533 288.346 46.476C288.333 46.4682 288.32 46.4579 288.307 46.4502C287.585 45.9656 286.923 45.3985 286.338 44.7618C286.338 44.7618 286.335 44.7592 286.333 44.7566C286.113 44.5195 285.907 44.2695 285.711 44.0143C285.67 43.9627 285.631 43.9086 285.593 43.8544C285.552 43.7977 285.51 43.741 285.469 43.6843C284.345 42.0887 283.657 40.2121 283.5 38.2556H307.519L307.493 37.1034L307.48 37.1008ZM283.544 36.0001C283.546 35.9718 283.549 35.9434 283.554 35.9151C283.562 35.8532 283.572 35.7939 283.58 35.7321C283.598 35.6109 283.618 35.4923 283.641 35.3738C283.657 35.2913 283.675 35.2088 283.693 35.1263C283.708 35.0515 283.726 34.9742 283.745 34.8995C283.763 34.8195 283.783 34.7371 283.804 34.6572C283.817 34.603 283.832 34.5515 283.848 34.4973C283.889 34.3478 283.933 34.1957 283.982 34.0462C283.997 34.0024 284.01 33.956 284.026 33.9122C284.08 33.7498 284.139 33.5874 284.203 33.4276C284.219 33.3915 284.232 33.3528 284.247 33.3142C284.307 33.1647 284.371 33.0203 284.438 32.8759C284.451 32.8476 284.464 32.8192 284.477 32.7909C284.526 32.6852 284.58 32.5795 284.631 32.4764C284.665 32.4094 284.696 32.3424 284.732 32.2779C284.752 32.2367 284.776 32.198 284.799 32.1568C285.68 30.5508 286.956 29.1975 288.488 28.2154C288.549 28.1768 288.611 28.133 288.676 28.0943C288.704 28.0788 288.732 28.0634 288.758 28.0453C290.166 27.205 291.751 26.6869 293.396 26.5399C293.488 26.5322 293.581 26.5219 293.676 26.5167C293.71 26.5167 293.746 26.5167 293.78 26.5116C294.12 26.4935 294.463 26.4909 294.808 26.5064C296.014 26.5554 297.231 26.8054 298.412 27.2823C302.098 28.7645 304.65 32.1104 305.15 35.9924H283.551L283.544 36.0001Z" fill="white"/>
<path d="M221.627 29.7312C219.833 27.1638 217.189 25.3207 214.175 24.5242C209.053 23.1684 203.632 24.9908 200.369 29.1641C198.392 31.6954 197.418 34.7861 197.58 37.9619C197.585 38.0469 197.59 38.132 197.595 38.2171C197.595 38.2325 197.595 38.248 197.598 38.2635C197.644 38.9259 197.742 39.5755 197.884 40.2071C197.884 40.2071 197.884 40.2122 197.884 40.2148C197.902 40.2947 197.92 40.372 197.941 40.4519C197.951 40.4906 197.959 40.5293 197.969 40.5679C197.979 40.6092 197.99 40.6478 198 40.6865C198.73 43.4679 200.338 45.9244 202.643 47.7263C203.663 48.5253 204.767 49.1466 205.914 49.6028C205.932 49.6106 205.947 49.6157 205.965 49.6235C206.03 49.6492 206.097 49.675 206.161 49.6982C206.2 49.7137 206.238 49.7266 206.277 49.742C206.298 49.7498 206.318 49.7575 206.339 49.7627C207.728 50.2602 209.226 50.5334 210.786 50.5334C213.845 50.5334 216.73 49.4817 219.024 47.6567C219.027 47.6541 219.032 47.6515 219.034 47.6463C220.016 46.8627 220.89 45.9347 221.622 44.8882V50.4019H224.009V37.5237C224.009 37.3922 224.009 37.2633 224.009 37.1318V24.2175H221.622V29.7312H221.627ZM221.627 37.4876C221.589 39.7972 220.813 42.0836 219.328 43.9834C216.397 47.7314 211.476 49.0254 207.215 47.5407C207.205 47.5355 207.192 47.5329 207.182 47.5278C207.12 47.5046 207.056 47.4814 206.994 47.4582C206.96 47.4453 206.924 47.4324 206.891 47.4195C206.852 47.404 206.813 47.3886 206.772 47.3731C206.715 47.3499 206.659 47.3267 206.605 47.3035C206.589 47.2958 206.571 47.2906 206.556 47.2829C203.571 46.0121 201.269 43.4369 200.366 40.2792C200.366 40.2741 200.364 40.2689 200.361 40.2663C200.346 40.2071 200.33 40.1503 200.315 40.0911C200.305 40.0524 200.294 40.0112 200.284 39.9725C200.279 39.9467 200.271 39.9235 200.266 39.8977C200.165 39.4801 200.085 39.0574 200.034 38.6243C200.011 38.4439 199.995 38.266 199.982 38.0856C199.982 38.0856 199.982 38.083 199.982 38.0804C199.977 38.0005 199.972 37.918 199.967 37.8381C199.959 37.6628 199.954 37.485 199.954 37.3071C199.954 31.332 204.816 26.4704 210.791 26.4704C214.84 26.4704 218.514 28.713 220.38 32.2522C220.395 32.2832 220.413 32.3141 220.429 32.345C220.473 32.4327 220.516 32.5203 220.56 32.6105C220.576 32.644 220.591 32.6775 220.609 32.7111C220.651 32.7987 220.689 32.8863 220.728 32.974C221.313 34.3144 221.612 35.7347 221.633 37.155V37.4876H221.627Z" fill="white"/>
<path d="M258.569 31.3825C258.546 31.3361 258.523 31.2897 258.5 31.2433C257.651 29.5962 256.445 28.1011 254.893 26.887C252.411 24.946 249.39 23.9742 246.276 24.0902C246.261 24.0902 246.245 24.0902 246.232 24.0902C246.085 24.0953 245.936 24.103 245.789 24.1159C245.745 24.1185 245.699 24.1237 245.655 24.1262C245.567 24.134 245.48 24.1417 245.392 24.1494C245.317 24.1572 245.245 24.1649 245.17 24.1726C245.16 24.1726 245.15 24.1726 245.139 24.1752C245.095 24.1804 245.052 24.1881 245.008 24.1933C244.869 24.2113 244.732 24.2319 244.593 24.2551C244.541 24.2629 244.487 24.2732 244.436 24.2809C244.358 24.2938 244.283 24.3093 244.206 24.3221C244.124 24.3376 244.044 24.3557 243.964 24.3711C243.892 24.3866 243.819 24.4021 243.745 24.4201C243.636 24.4459 243.531 24.4717 243.423 24.4974C243.389 24.5052 243.353 24.5155 243.319 24.5258C241.337 25.0542 239.52 26.0286 237.991 27.3845C237.971 27.4025 237.95 27.4206 237.932 27.4386C237.834 27.5262 237.739 27.6139 237.643 27.7041C237.587 27.7557 237.532 27.8098 237.478 27.8639C237.447 27.8949 237.414 27.9258 237.383 27.9593C236.844 28.5006 236.349 29.0883 235.908 29.7225V13.207H233.521V37.0844C233.521 37.2159 233.521 37.3499 233.521 37.4814V50.3932H235.908V44.8794C237.703 47.4468 240.347 49.2899 243.361 50.0864C244.485 50.3854 245.624 50.5298 246.75 50.5298C250.759 50.5298 254.618 48.7048 257.167 45.4465C257.969 44.4206 258.592 43.3148 259.049 42.1625C259.054 42.1496 259.059 42.1367 259.064 42.1239C259.092 42.0491 259.123 41.9718 259.152 41.897C259.167 41.8532 259.183 41.8094 259.198 41.7656C259.214 41.7192 259.232 41.6728 259.247 41.6264C259.273 41.5516 259.299 41.4794 259.322 41.4047C259.327 41.3892 259.332 41.3712 259.337 41.3557C259.75 40.0772 259.974 38.7161 259.974 37.3035C259.974 35.213 259.484 33.2333 258.618 31.4727C258.603 31.4418 258.587 31.4109 258.572 31.3799L258.569 31.3825ZM257.064 40.6314C257.064 40.6314 257.059 40.6494 257.056 40.6571C257.035 40.7216 257.012 40.7886 256.989 40.853C256.976 40.8866 256.966 40.9201 256.953 40.9536C256.937 40.9948 256.925 41.0335 256.909 41.0747C256.888 41.1314 256.865 41.1907 256.842 41.2474C256.837 41.2629 256.829 41.2784 256.824 41.2938C255.231 45.3022 251.315 48.1428 246.748 48.1428C242.701 48.1428 239.027 45.9002 237.161 42.361C237.146 42.3301 237.128 42.2991 237.112 42.2656C237.068 42.178 237.025 42.0903 236.981 42.0027C236.965 41.9692 236.947 41.9357 236.932 41.9022C236.891 41.8145 236.852 41.7269 236.813 41.6392C236.228 40.3014 235.929 38.8837 235.908 37.4659V37.1231C235.947 34.8135 236.723 32.5296 238.208 30.6298C238.481 30.2792 238.775 29.9493 239.084 29.6374C239.1 29.6219 239.115 29.6065 239.131 29.591C239.19 29.5343 239.247 29.4776 239.306 29.4209C239.375 29.3564 239.445 29.292 239.515 29.2301C239.538 29.2095 239.558 29.1915 239.582 29.1708C240.827 28.0727 242.317 27.2711 243.935 26.838C243.966 26.8303 243.997 26.8225 244.028 26.8122C244.111 26.7916 244.193 26.771 244.278 26.7504C244.345 26.7349 244.415 26.7194 244.482 26.704C244.541 26.6911 244.603 26.6782 244.662 26.6679C244.727 26.655 244.791 26.6421 244.858 26.6318C244.897 26.624 244.936 26.6189 244.974 26.6112C245.093 26.5905 245.214 26.5725 245.335 26.557C245.374 26.5519 245.412 26.5467 245.451 26.5416C245.513 26.5338 245.577 26.5261 245.639 26.5209C245.704 26.5132 245.771 26.5081 245.835 26.5029C245.876 26.5003 245.92 26.4952 245.962 26.4926C246.08 26.4848 246.196 26.4771 246.315 26.472C246.333 26.472 246.348 26.472 246.366 26.472C246.493 26.4668 246.619 26.4642 246.745 26.4642C250.851 26.4642 254.435 28.761 256.272 32.1378C256.272 32.1378 256.272 32.1429 256.275 32.1455C256.309 32.2048 256.339 32.2667 256.37 32.326C256.394 32.3724 256.419 32.4213 256.443 32.4677C256.45 32.4832 256.458 32.4987 256.466 32.5167C257.698 35.0274 257.922 37.948 257.059 40.6314H257.064Z" fill="white"/>
</svg>
