<svg width="148" height="27" viewBox="0 0 148 27" fill="none" xmlns="http://www.w3.org/2000/svg">
<path d="M22.1684 13.939C21.0539 13.939 20.008 14.238 19.1081 14.7609L21.1312 18.2737C21.592 19.0739 21.0156 20.0745 20.094 20.0745H8.18931C7.26774 20.0745 6.69133 19.0739 7.15211 18.2737L13.104 7.93766C13.5648 7.13749 14.7177 7.13749 15.1784 7.93766L17.1963 11.4417C18.0979 10.9213 18.8795 10.1639 19.4368 9.19545C21.1251 6.26322 20.1236 2.51425 17.1989 0.822377C14.2743 -0.870369 10.535 0.133773 8.84745 3.06601C7.66071 5.12659 7.8033 7.59074 9.00742 9.46131L9.00307 9.46828C9.49428 10.3617 9.52123 11.4844 8.97525 12.4328C8.42927 13.3811 7.44684 13.9189 6.42877 13.9398L6.42442 13.9468C4.20658 13.8361 2.00699 14.9449 0.820256 17.0054C-0.868124 19.9377 0.133428 23.6866 3.0581 25.3785C5.98277 27.0713 9.72207 26.0671 11.4096 23.1349C11.4617 23.0451 11.5104 22.9536 11.5574 22.8621C12.0816 21.9808 13.0423 21.3907 14.1395 21.3907C15.2367 21.3907 16.1948 21.9791 16.7199 22.8577C17.7319 24.8416 19.7915 26.1996 22.1667 26.1996C25.5435 26.1996 28.2803 23.4548 28.2803 20.0702C28.2803 16.6855 25.5426 13.9407 22.1667 13.9407L22.1684 13.939Z" fill="#B29377"/>
<path d="M125.172 9.52201H127.574V19.8729H128.496V8.625H125.172V9.52201Z" fill="#B29377"/>
<path d="M134.63 12.8234H132.707L133.066 9.50638H137.714V8.60938H132.261L131.739 13.4473L131.988 13.7132H134.619C135.41 13.7132 136.141 13.9914 136.676 14.4977C137.205 14.9989 137.497 15.6801 137.497 16.4155C137.497 17.963 136.335 19.131 134.794 19.131C133.252 19.131 132.205 18.1481 132.086 16.6845L132.071 16.4932H131.15L131.166 16.7162C131.231 17.6531 131.626 18.501 132.28 19.1034C132.936 19.7089 133.829 20.0413 134.794 20.0413C136.865 20.0413 138.427 18.4826 138.427 16.4165C138.427 15.4428 138.043 14.5386 137.346 13.8707C136.642 13.1967 135.677 12.8244 134.63 12.8244V12.8234Z" fill="#B29377"/>
<path d="M143.982 12.8578L147.089 9.10405V8.61719H140.654V9.51419H145.638L142.563 13.2372V13.7118H143.672C145.318 13.7118 146.559 14.8717 146.559 16.411C146.559 17.9504 145.393 19.1378 143.847 19.1378C142.302 19.1378 141.27 18.1539 141.148 16.6902L141.131 16.499H140.211L140.227 16.723C140.372 18.6806 141.86 20.0471 143.847 20.0471C145.834 20.0471 147.488 18.4884 147.488 16.4223C147.488 14.4728 145.995 12.9703 143.982 12.8567V12.8578Z" fill="#B29377"/>
<path d="M43.8095 6.12729C46.4187 6.12729 48.7681 7.67685 49.796 10.0753L50.6173 9.7235C49.4482 6.99668 46.7756 5.23438 43.8095 5.23438C39.7264 5.23438 36.4043 8.55647 36.4043 12.6385C36.4043 16.7206 39.7264 20.0427 43.8095 20.0427C46.7756 20.0427 49.4482 18.2803 50.6173 15.5535L49.796 15.2017C48.7681 17.6002 46.4176 19.1497 43.8095 19.1497C40.2194 19.1497 37.2982 16.2286 37.2982 12.6385C37.2982 9.04844 40.2194 6.12729 43.8095 6.12729Z" fill="#B29377"/>
<path d="M69.475 5.23438H68.582V20.0437H69.475V5.23438Z" fill="#B29377"/>
<path d="M74.1078 5.23438H73.2148V20.0437H74.1078V5.23438Z" fill="#B29377"/>
<path d="M107.305 5.23438H106.412V20.0437H107.305V5.23438Z" fill="#B29377"/>
<path d="M64.8335 14.7225C64.7864 12.6339 63.5038 10.7806 61.5656 10.0012C60.8302 9.70564 60.0672 9.59006 59.3236 9.63404C59.3154 9.63404 59.3062 9.63404 59.298 9.63506C59.2766 9.63609 59.2551 9.63813 59.2336 9.63915C58.353 9.70359 57.5286 9.98896 56.8187 10.4421C56.8106 10.4472 56.8024 10.4523 56.7952 10.4574C56.7819 10.4656 56.7686 10.4748 56.7553 10.484C56.0465 10.9484 55.4451 11.5897 55.0247 12.3742C55.0227 12.3782 55.0196 12.3834 55.0176 12.3875C55.0063 12.4089 54.9951 12.4294 54.9848 12.4509C54.9736 12.4734 54.9613 12.4959 54.9501 12.5184C54.947 12.5245 54.9439 12.5317 54.9409 12.5378C54.7128 13.0001 54.5512 13.5013 54.4683 14.0301C54.4683 14.0311 54.4683 14.0332 54.4683 14.0342C54.4622 14.073 54.4571 14.1119 54.452 14.1508C54.452 14.1569 54.4509 14.162 54.4499 14.1682C54.4458 14.204 54.4407 14.2398 54.4376 14.2756C54.4376 14.2837 54.4356 14.2919 54.4346 14.3001C54.4305 14.3349 54.4274 14.3697 54.4243 14.4044C54.4243 14.4126 54.4233 14.4198 54.4223 14.428C54.4192 14.4648 54.4172 14.5016 54.4151 14.5384C54.4151 14.5425 54.4151 14.5466 54.4151 14.5507C54.4141 14.5732 54.4121 14.5957 54.411 14.6182C54.3579 15.866 54.7506 17.031 55.4471 17.9597C55.4492 17.9618 55.4512 17.9648 55.4523 17.9669C55.4656 17.9843 55.4778 18.0006 55.4911 18.018C55.8808 18.5253 56.3667 18.9652 56.9353 19.3068C56.9394 19.3088 56.9435 19.3119 56.9476 19.3139C56.966 19.3252 56.9844 19.3354 57.0028 19.3456C57.0264 19.3589 57.0499 19.3733 57.0734 19.3866C57.0765 19.3876 57.0785 19.3896 57.0816 19.3906C57.7577 19.7691 58.5289 20.0023 59.3533 20.0442C59.3655 20.0442 59.3778 20.0452 59.3901 20.0463C59.3932 20.0463 59.3973 20.0463 59.4003 20.0463C59.4453 20.0483 59.4903 20.0483 59.5353 20.0493C59.565 20.0493 59.5947 20.0514 59.6243 20.0514C59.6356 20.0514 59.6478 20.0514 59.6591 20.0514C59.7215 20.0514 59.7828 20.0493 59.8452 20.0473C59.8729 20.0463 59.8994 20.0442 59.9271 20.0432C59.9792 20.0401 60.0304 20.036 60.0825 20.0319C60.1061 20.0299 60.1306 20.0279 60.1541 20.0258C60.2278 20.0187 60.3014 20.0094 60.374 19.9992C60.3853 19.9972 60.3976 19.9951 60.4088 19.9941C60.4732 19.9839 60.5377 19.9736 60.6011 19.9614C60.6205 19.9573 60.641 19.9532 60.6604 19.9501C60.7249 19.9368 60.7893 19.9225 60.8537 19.9072C60.864 19.9051 60.8742 19.9031 60.8834 19.9C60.9591 19.8816 61.0348 19.8601 61.1094 19.8386C61.1207 19.8356 61.133 19.8315 61.1442 19.8274C61.2087 19.808 61.2721 19.7865 61.3355 19.765C61.3498 19.7599 61.3641 19.7558 61.3774 19.7507C61.5247 19.6975 61.6699 19.6382 61.8121 19.5727C61.8254 19.5666 61.8377 19.5604 61.851 19.5543C61.9164 19.5236 61.9819 19.4909 62.0463 19.4571C62.0514 19.4541 62.0566 19.452 62.0617 19.4489C62.1333 19.4111 62.2038 19.3712 62.2744 19.3303C62.2816 19.3262 62.2877 19.3221 62.2949 19.318C62.3593 19.2802 62.4217 19.2403 62.4841 19.1994C62.4913 19.1943 62.4994 19.1892 62.5066 19.1851C62.6437 19.094 62.7766 18.9958 62.9055 18.8925C62.9116 18.8874 62.9178 18.8823 62.9239 18.8782C63.0528 18.7729 63.1765 18.6614 63.2942 18.5438C63.2972 18.5407 63.3013 18.5376 63.3044 18.5346C63.7166 18.1234 64.0643 17.6406 64.3252 17.0955L64.3221 17.0934H63.3095C63.1223 17.3992 62.9014 17.6774 62.6508 17.9239C62.6222 17.9515 62.5946 17.9792 62.5659 18.0058C62.5567 18.0139 62.5475 18.0221 62.5383 18.0303C62.5076 18.0579 62.4769 18.0855 62.4463 18.1121C62.437 18.1203 62.4278 18.1275 62.4186 18.1357C62.3879 18.1622 62.3562 18.1878 62.3245 18.2134C62.3143 18.2216 62.3041 18.2287 62.2949 18.2369C62.2642 18.2615 62.2325 18.286 62.2008 18.3095C62.1895 18.3177 62.1783 18.3259 62.166 18.3351C62.1353 18.3576 62.1046 18.3791 62.0729 18.4006C62.0596 18.4098 62.0474 18.418 62.0341 18.4272C62.0044 18.4476 61.9737 18.467 61.943 18.4865C61.9287 18.4957 61.9144 18.5049 61.9001 18.5131C61.8704 18.5315 61.8407 18.5499 61.8111 18.5673C61.7957 18.5765 61.7804 18.5857 61.764 18.5939C61.7344 18.6102 61.7047 18.6276 61.6751 18.643C61.6587 18.6522 61.6423 18.6604 61.626 18.6696C61.5963 18.6849 61.5666 18.7002 61.537 18.7146C61.5196 18.7228 61.5032 18.7309 61.4858 18.7391C61.4562 18.7534 61.4265 18.7667 61.3958 18.7811C61.3784 18.7892 61.3611 18.7964 61.3437 18.8046C61.314 18.8179 61.2833 18.8301 61.2526 18.8424C61.2352 18.8496 61.2168 18.8567 61.1994 18.8639C61.1688 18.8762 61.1381 18.8874 61.1074 18.8987C61.09 18.9048 61.0716 18.912 61.0532 18.9181C61.0225 18.9294 60.9908 18.9396 60.9601 18.9498C60.9417 18.956 60.9233 18.9611 60.9049 18.9672C60.8742 18.9764 60.8425 18.9866 60.8118 18.9948C60.7924 18.9999 60.774 19.005 60.7545 19.0102C60.7238 19.0183 60.6931 19.0265 60.6614 19.0347C60.642 19.0398 60.6216 19.0439 60.6021 19.049C60.5714 19.0562 60.5418 19.0633 60.5111 19.0695C60.4896 19.0736 60.4692 19.0777 60.4477 19.0818C60.418 19.0879 60.3884 19.093 60.3597 19.0981C60.3372 19.1022 60.3137 19.1053 60.2912 19.1094C60.2636 19.1135 60.2349 19.1176 60.2073 19.1216C60.1828 19.1247 60.1572 19.1278 60.1327 19.1309C60.1061 19.1339 60.0805 19.137 60.0539 19.1401C60.0273 19.1431 59.9997 19.1452 59.9721 19.1472C59.9475 19.1493 59.923 19.1513 59.8984 19.1523C59.8698 19.1544 59.8401 19.1554 59.8115 19.1564C59.788 19.1564 59.7655 19.1585 59.7419 19.1595C59.7123 19.1595 59.6816 19.1595 59.6519 19.1605C59.6294 19.1605 59.6059 19.1605 59.5834 19.1605C59.5548 19.1605 59.5251 19.1595 59.4954 19.1585C59.4719 19.1585 59.4484 19.1574 59.4259 19.1564C59.3625 19.1534 59.2991 19.1493 59.2367 19.1431C59.2142 19.1411 59.1906 19.138 59.1681 19.136C59.1293 19.1319 59.0914 19.1278 59.0536 19.1227C59.0209 19.1186 58.9881 19.1135 58.9554 19.1083C58.9319 19.1043 58.9094 19.1002 58.8858 19.0961C58.7478 19.0715 58.6107 19.0419 58.4737 19.004C58.4716 19.004 58.4696 19.003 58.4675 19.002C58.3141 18.959 58.1627 18.9079 58.0134 18.8475C57.9674 18.8291 57.9213 18.8097 57.8753 18.7892C57.8702 18.7872 57.8651 18.7851 57.86 18.7821C57.816 18.7626 57.773 18.7422 57.7301 18.7217C57.7178 18.7156 57.7065 18.7095 57.6943 18.7033C57.6411 18.6767 57.5899 18.6491 57.5378 18.6215C57.501 18.601 57.4641 18.5806 57.4273 18.5591C57.4109 18.5499 57.3956 18.5397 57.3792 18.5305C57.3322 18.5018 57.2862 18.4732 57.2412 18.4425C57.236 18.4394 57.2309 18.4353 57.2258 18.4323C56.9394 18.24 56.6766 18.015 56.4444 17.7623C56.4444 17.7623 56.4434 17.7613 56.4423 17.7603C56.3554 17.6662 56.2736 17.567 56.1958 17.4657C56.1795 17.4453 56.1641 17.4238 56.1488 17.4023C56.1324 17.3798 56.1161 17.3573 56.0997 17.3348C55.6538 16.7017 55.3807 15.9571 55.3183 15.1808H64.8488L64.8386 14.7236L64.8335 14.7225ZM55.3357 14.2858C55.3367 14.2745 55.3377 14.2633 55.3398 14.252C55.3428 14.2275 55.3469 14.204 55.35 14.1794C55.3571 14.1313 55.3653 14.0843 55.3745 14.0372C55.3807 14.0045 55.3878 13.9718 55.395 13.9391C55.4011 13.9094 55.4083 13.8787 55.4154 13.849C55.4226 13.8173 55.4308 13.7846 55.439 13.7529C55.4441 13.7314 55.4502 13.711 55.4564 13.6895C55.4727 13.6302 55.4901 13.5698 55.5095 13.5105C55.5157 13.4931 55.5208 13.4747 55.5269 13.4573C55.5484 13.3929 55.5719 13.3284 55.5975 13.265C55.6036 13.2507 55.6088 13.2354 55.6149 13.22C55.6384 13.1607 55.664 13.1034 55.6906 13.0461C55.6957 13.0349 55.7008 13.0236 55.7059 13.0124C55.7253 12.9705 55.7468 12.9285 55.7673 12.8876C55.7806 12.861 55.7929 12.8344 55.8072 12.8088C55.8154 12.7925 55.8246 12.7771 55.8338 12.7608C56.1836 12.1236 56.6899 11.5866 57.2974 11.1969C57.322 11.1816 57.3465 11.1642 57.3721 11.1488C57.3833 11.1427 57.3946 11.1366 57.4048 11.1294C57.9633 10.796 58.5923 10.5904 59.2449 10.5321C59.2817 10.529 59.3185 10.5249 59.3563 10.5229C59.3696 10.5229 59.384 10.5229 59.3972 10.5208C59.5323 10.5137 59.6683 10.5126 59.8053 10.5188C60.284 10.5382 60.7668 10.6374 61.2352 10.8266C62.6979 11.4148 63.7104 12.7424 63.9089 14.2827H55.3387L55.3357 14.2858Z" fill="#B29377"/>
<path d="M121.49 14.7225C121.443 12.6339 120.16 10.7806 118.222 10.0012C117.486 9.70564 116.723 9.59006 115.98 9.63404C115.972 9.63404 115.962 9.63404 115.954 9.63506C115.933 9.63609 115.911 9.63813 115.89 9.63915C115.009 9.70359 114.185 9.98896 113.475 10.4421C113.467 10.4472 113.459 10.4523 113.451 10.4574C113.438 10.4656 113.425 10.4748 113.412 10.484C112.703 10.9484 112.101 11.5897 111.681 12.3742C111.679 12.3782 111.676 12.3834 111.674 12.3875C111.663 12.4089 111.651 12.4294 111.641 12.4509C111.63 12.4734 111.618 12.4959 111.606 12.5184C111.603 12.5245 111.6 12.5317 111.597 12.5378C111.369 13.0001 111.207 13.5013 111.125 14.0301C111.125 14.0311 111.125 14.0332 111.125 14.0342C111.118 14.073 111.113 14.1119 111.108 14.1508C111.108 14.1569 111.107 14.162 111.106 14.1682C111.102 14.204 111.097 14.2398 111.094 14.2756C111.094 14.2837 111.092 14.2919 111.091 14.3001C111.087 14.3349 111.084 14.3697 111.081 14.4044C111.081 14.4126 111.08 14.4198 111.079 14.428C111.075 14.4648 111.073 14.5016 111.071 14.5384C111.071 14.5425 111.071 14.5466 111.071 14.5507C111.07 14.5732 111.068 14.5957 111.067 14.6182C111.014 15.866 111.407 17.031 112.103 17.9597C112.105 17.9618 112.107 17.9648 112.109 17.9669C112.122 17.9843 112.134 18.0006 112.147 18.018C112.537 18.5253 113.023 18.9652 113.592 19.3068C113.596 19.3088 113.6 19.3119 113.604 19.3139C113.622 19.3252 113.641 19.3354 113.659 19.3456C113.683 19.3589 113.706 19.3733 113.73 19.3866C113.733 19.3876 113.735 19.3896 113.738 19.3906C114.414 19.7691 115.185 20.0023 116.01 20.0442C116.022 20.0442 116.034 20.0452 116.046 20.0463C116.049 20.0463 116.054 20.0463 116.057 20.0463C116.102 20.0483 116.147 20.0483 116.192 20.0493C116.221 20.0493 116.251 20.0514 116.281 20.0514C116.292 20.0514 116.304 20.0514 116.315 20.0514C116.378 20.0514 116.439 20.0493 116.501 20.0473C116.529 20.0463 116.556 20.0442 116.583 20.0432C116.635 20.0401 116.687 20.036 116.739 20.0319C116.762 20.0299 116.787 20.0279 116.81 20.0258C116.884 20.0187 116.958 20.0094 117.03 19.9992C117.042 19.9972 117.054 19.9951 117.065 19.9941C117.129 19.9839 117.194 19.9736 117.257 19.9614C117.277 19.9573 117.297 19.9532 117.317 19.9501C117.381 19.9368 117.446 19.9225 117.51 19.9072C117.52 19.9051 117.53 19.9031 117.54 19.9C117.615 19.8816 117.691 19.8601 117.766 19.8386C117.777 19.8356 117.789 19.8315 117.8 19.8274C117.865 19.808 117.928 19.7865 117.992 19.765C118.006 19.7599 118.02 19.7558 118.034 19.7507C118.181 19.6975 118.326 19.6382 118.468 19.5727C118.482 19.5666 118.494 19.5604 118.507 19.5543C118.573 19.5236 118.638 19.4909 118.703 19.4571C118.708 19.4541 118.713 19.452 118.718 19.4489C118.79 19.4111 118.86 19.3712 118.931 19.3303C118.938 19.3262 118.944 19.3221 118.951 19.318C119.016 19.2802 119.078 19.2403 119.14 19.1994C119.147 19.1943 119.156 19.1892 119.163 19.1851C119.3 19.094 119.433 18.9958 119.562 18.8925C119.568 18.8874 119.574 18.8823 119.58 18.8782C119.709 18.7729 119.833 18.6614 119.95 18.5438C119.953 18.5407 119.958 18.5376 119.961 18.5346C120.373 18.1234 120.721 17.6406 120.981 17.0955L120.978 17.0934H119.966C119.779 17.3992 119.558 17.6774 119.307 17.9239C119.278 17.9515 119.251 17.9792 119.222 18.0058C119.213 18.0139 119.204 18.0221 119.195 18.0303C119.164 18.0579 119.133 18.0855 119.102 18.1121C119.093 18.1203 119.084 18.1275 119.075 18.1357C119.044 18.1622 119.012 18.1878 118.981 18.2134C118.971 18.2216 118.96 18.2287 118.951 18.2369C118.92 18.2615 118.889 18.286 118.857 18.3095C118.846 18.3177 118.835 18.3259 118.822 18.3351C118.792 18.3576 118.761 18.3791 118.729 18.4006C118.716 18.4098 118.704 18.418 118.69 18.4272C118.661 18.4476 118.63 18.467 118.599 18.4865C118.585 18.4957 118.571 18.5049 118.556 18.5131C118.527 18.5315 118.497 18.5499 118.467 18.5673C118.452 18.5765 118.437 18.5857 118.42 18.5939C118.391 18.6102 118.361 18.6276 118.331 18.643C118.315 18.6522 118.299 18.6604 118.282 18.6696C118.253 18.6849 118.223 18.7002 118.193 18.7146C118.176 18.7228 118.159 18.7309 118.142 18.7391C118.112 18.7534 118.083 18.7667 118.052 18.7811C118.035 18.7892 118.017 18.7964 118 18.8046C117.97 18.8179 117.94 18.8301 117.909 18.8424C117.891 18.8496 117.873 18.8567 117.856 18.8639C117.825 18.8762 117.794 18.8874 117.764 18.8987C117.746 18.9048 117.728 18.912 117.709 18.9181C117.679 18.9294 117.647 18.9396 117.616 18.9498C117.598 18.956 117.58 18.9611 117.561 18.9672C117.53 18.9764 117.499 18.9866 117.468 18.9948C117.449 18.9999 117.43 19.005 117.411 19.0102C117.38 19.0183 117.349 19.0265 117.318 19.0347C117.298 19.0398 117.278 19.0439 117.258 19.049C117.228 19.0562 117.198 19.0633 117.167 19.0695C117.146 19.0736 117.125 19.0777 117.104 19.0818C117.074 19.0879 117.045 19.093 117.016 19.0981C116.993 19.1022 116.97 19.1053 116.947 19.1094C116.92 19.1135 116.891 19.1176 116.864 19.1216C116.839 19.1247 116.813 19.1278 116.789 19.1309C116.762 19.1339 116.737 19.137 116.71 19.1401C116.684 19.1431 116.656 19.1452 116.628 19.1472C116.604 19.1493 116.579 19.1513 116.555 19.1523C116.526 19.1544 116.496 19.1554 116.468 19.1564C116.444 19.1564 116.422 19.1585 116.398 19.1595C116.369 19.1595 116.338 19.1595 116.308 19.1605C116.286 19.1605 116.262 19.1605 116.24 19.1605C116.211 19.1605 116.181 19.1595 116.152 19.1585C116.128 19.1585 116.105 19.1574 116.082 19.1564C116.019 19.1534 115.955 19.1493 115.893 19.1431C115.87 19.1411 115.847 19.138 115.824 19.136C115.787 19.1319 115.748 19.1278 115.71 19.1227C115.677 19.1186 115.644 19.1135 115.612 19.1083C115.588 19.1043 115.566 19.1002 115.542 19.0961C115.404 19.0715 115.267 19.0419 115.13 19.004C115.128 19.004 115.126 19.003 115.124 19.002C114.97 18.959 114.819 18.9079 114.67 18.8475C114.624 18.8291 114.578 18.8097 114.532 18.7892C114.526 18.7872 114.521 18.7851 114.516 18.7821C114.472 18.7626 114.429 18.7422 114.386 18.7217C114.374 18.7156 114.363 18.7095 114.351 18.7033C114.297 18.6767 114.246 18.6491 114.194 18.6215C114.157 18.601 114.12 18.5806 114.084 18.5591C114.067 18.5499 114.052 18.5397 114.035 18.5305C113.988 18.5018 113.942 18.4732 113.897 18.4425C113.892 18.4394 113.887 18.4353 113.882 18.4323C113.596 18.24 113.333 18.015 113.101 17.7623C113.101 17.7623 113.1 17.7613 113.099 17.7603C113.012 17.6662 112.93 17.567 112.852 17.4657C112.836 17.4453 112.82 17.4238 112.805 17.4023C112.789 17.3798 112.772 17.3573 112.756 17.3348C112.31 16.7017 112.037 15.9571 111.975 15.1808H121.505L121.495 14.7236L121.49 14.7225ZM111.992 14.2858C111.993 14.2745 111.994 14.2633 111.996 14.252C111.999 14.2275 112.003 14.204 112.006 14.1794C112.013 14.1313 112.022 14.0843 112.031 14.0372C112.037 14.0045 112.044 13.9718 112.051 13.9391C112.057 13.9094 112.065 13.8787 112.072 13.849C112.079 13.8173 112.087 13.7846 112.095 13.7529C112.1 13.7314 112.106 13.711 112.113 13.6895C112.129 13.6302 112.146 13.5698 112.166 13.5105C112.172 13.4931 112.177 13.4747 112.183 13.4573C112.205 13.3929 112.228 13.3284 112.254 13.265C112.26 13.2507 112.265 13.2354 112.271 13.22C112.295 13.1607 112.32 13.1034 112.347 13.0461C112.352 13.0349 112.357 13.0236 112.362 13.0124C112.382 12.9705 112.403 12.9285 112.424 12.8876C112.437 12.861 112.449 12.8344 112.463 12.8088C112.472 12.7925 112.481 12.7771 112.49 12.7608C112.84 12.1236 113.346 11.5866 113.954 11.1969C113.978 11.1816 114.003 11.1642 114.028 11.1488C114.04 11.1427 114.051 11.1366 114.061 11.1294C114.62 10.796 115.249 10.5904 115.901 10.5321C115.938 10.529 115.975 10.5249 116.013 10.5229C116.026 10.5229 116.04 10.5229 116.053 10.5208C116.189 10.5137 116.325 10.5126 116.462 10.5188C116.94 10.5382 117.423 10.6374 117.891 10.8266C119.354 11.4148 120.367 12.7424 120.565 14.2827H111.995L111.992 14.2858Z" fill="#B29377"/>
<path d="M87.4257 11.7884C86.7138 10.7697 85.6644 10.0384 84.4687 9.72234C82.4364 9.18434 80.2854 9.90746 78.9906 11.5634C78.2061 12.5678 77.8194 13.7942 77.8839 15.0543C77.8859 15.088 77.888 15.1218 77.89 15.1555C77.89 15.1616 77.89 15.1678 77.891 15.1739C77.9094 15.4368 77.9483 15.6945 78.0046 15.9451C78.0046 15.9451 78.0046 15.9472 78.0046 15.9482C78.0117 15.9799 78.0189 16.0106 78.0271 16.0423C78.0312 16.0576 78.0342 16.073 78.0383 16.0883C78.0424 16.1047 78.0465 16.12 78.0506 16.1354C78.3401 17.239 78.9783 18.2137 79.8927 18.9287C80.2977 19.2457 80.7355 19.4922 81.1906 19.6733C81.1978 19.6763 81.2039 19.6784 81.2111 19.6815C81.2367 19.6917 81.2632 19.7019 81.2888 19.7111C81.3042 19.7173 81.3195 19.7224 81.3348 19.7285C81.343 19.7316 81.3512 19.7346 81.3594 19.7367C81.9107 19.9341 82.5049 20.0425 83.1237 20.0425C84.3378 20.0425 85.4823 19.6252 86.3927 18.9011C86.3937 18.9 86.3957 18.899 86.3967 18.897C86.7864 18.586 87.1332 18.2178 87.4236 17.8026V19.9903H88.3708V14.8804C88.3708 14.8282 88.3708 14.7771 88.3708 14.7249V9.60062H87.4236V11.7884H87.4257ZM87.4257 14.8661C87.4103 15.7825 87.1025 16.6897 86.5133 17.4435C85.3504 18.9307 83.3979 19.4442 81.7071 18.855C81.7031 18.853 81.6979 18.852 81.6939 18.8499C81.6693 18.8407 81.6437 18.8315 81.6192 18.8223C81.6059 18.8172 81.5916 18.8121 81.5783 18.807C81.5629 18.8008 81.5476 18.7947 81.5312 18.7885C81.5087 18.7793 81.4862 18.7701 81.4647 18.7609C81.4586 18.7579 81.4514 18.7558 81.4453 18.7527C80.2609 18.2485 79.3475 17.2267 78.9895 15.9738C78.9895 15.9717 78.9885 15.9697 78.9875 15.9686C78.9814 15.9451 78.9752 15.9226 78.9691 15.8991C78.965 15.8838 78.9609 15.8674 78.9568 15.852C78.9548 15.8418 78.9517 15.8326 78.9496 15.8224C78.9098 15.6567 78.8781 15.4889 78.8576 15.3171C78.8484 15.2455 78.8423 15.1749 78.8371 15.1034C78.8371 15.1034 78.8371 15.1023 78.8371 15.1013C78.8351 15.0696 78.833 15.0369 78.831 15.0052C78.8279 14.9356 78.8259 14.865 78.8259 14.7945C78.8259 12.4236 80.7549 10.4946 83.1258 10.4946C84.7326 10.4946 86.1901 11.3844 86.9307 12.7887C86.9368 12.801 86.9439 12.8133 86.9501 12.8255C86.9675 12.8603 86.9849 12.8951 87.0022 12.9309C87.0084 12.9442 87.0145 12.9575 87.0217 12.9708C87.038 13.0056 87.0534 13.0403 87.0687 13.0751C87.3009 13.607 87.4196 14.1705 87.4277 14.7341V14.8661H87.4257Z" fill="#B29377"/>
<path d="M102.085 12.4462C102.076 12.4278 102.067 12.4094 102.058 12.391C101.721 11.7374 101.242 11.1442 100.627 10.6624C99.6417 9.89226 98.4429 9.50666 97.2074 9.55269C97.2012 9.55269 97.1951 9.55269 97.19 9.55269C97.1317 9.55473 97.0724 9.5578 97.0141 9.56292C96.9967 9.56394 96.9783 9.56599 96.9609 9.56701C96.9261 9.57008 96.8913 9.57315 96.8565 9.57621C96.8269 9.57928 96.7982 9.58235 96.7686 9.58542C96.7645 9.58542 96.7604 9.58542 96.7563 9.58644C96.7389 9.58849 96.7215 9.59156 96.7041 9.5936C96.6489 9.60076 96.5947 9.60894 96.5395 9.61815C96.519 9.62122 96.4975 9.62531 96.4771 9.62838C96.4464 9.63349 96.4167 9.63963 96.386 9.64474C96.3533 9.65088 96.3216 9.65804 96.2899 9.66418C96.2613 9.67031 96.2326 9.67645 96.203 9.68361C96.16 9.69384 96.1181 9.70407 96.0751 9.71429C96.0618 9.71736 96.0475 9.72145 96.0342 9.72554C95.2477 9.93522 94.5266 10.3218 93.92 10.8598C93.9119 10.867 93.9037 10.8742 93.8965 10.8813C93.8576 10.9161 93.8198 10.9509 93.782 10.9867C93.7595 11.0071 93.738 11.0286 93.7165 11.0501C93.7042 11.0624 93.6909 11.0746 93.6787 11.0879C93.4649 11.3027 93.2685 11.5359 93.0936 11.7875V5.23438H92.1465V14.7087C92.1465 14.7608 92.1465 14.814 92.1465 14.8662V19.9895H93.0936V17.8017C93.8055 18.8204 94.8549 19.5517 96.0506 19.8678C96.4965 19.9864 96.9486 20.0437 97.3956 20.0437C98.986 20.0437 100.517 19.3195 101.529 18.0267C101.847 17.6196 102.094 17.1808 102.275 16.7236C102.277 16.7185 102.279 16.7134 102.282 16.7083C102.293 16.6786 102.305 16.6479 102.316 16.6183C102.322 16.6009 102.329 16.5835 102.335 16.5661C102.341 16.5477 102.348 16.5293 102.354 16.5109C102.364 16.4812 102.375 16.4526 102.384 16.4229C102.386 16.4168 102.388 16.4096 102.39 16.4035C102.554 15.8962 102.643 15.3561 102.643 14.7956C102.643 13.9661 102.448 13.1806 102.105 12.482C102.098 12.4698 102.092 12.4575 102.086 12.4452L102.085 12.4462ZM101.488 16.1161C101.488 16.1161 101.486 16.1232 101.485 16.1263C101.477 16.1519 101.467 16.1785 101.458 16.204C101.453 16.2173 101.449 16.2306 101.444 16.2439C101.438 16.2603 101.433 16.2756 101.426 16.292C101.418 16.3145 101.409 16.338 101.4 16.3605C101.398 16.3667 101.395 16.3728 101.393 16.3789C100.761 17.9694 99.207 19.0966 97.3945 19.0966C95.7887 19.0966 94.3312 18.2067 93.5907 16.8024C93.5846 16.7901 93.5774 16.7778 93.5713 16.7645C93.5539 16.7298 93.5365 16.695 93.5191 16.6602C93.513 16.6469 93.5058 16.6336 93.4997 16.6203C93.4833 16.5855 93.468 16.5508 93.4526 16.516C93.2204 15.9852 93.1018 15.4226 93.0936 14.8601V14.724C93.109 13.8076 93.4168 12.9014 94.006 12.1476C94.1144 12.0085 94.231 11.8775 94.3537 11.7538C94.3599 11.7476 94.366 11.7415 94.3721 11.7354C94.3956 11.7129 94.4182 11.6904 94.4417 11.6679C94.4693 11.6423 94.4969 11.6167 94.5245 11.5922C94.5337 11.584 94.5419 11.5768 94.5511 11.5687C95.0451 11.1329 95.6363 10.8148 96.2786 10.643C96.2909 10.6399 96.3032 10.6369 96.3155 10.6328C96.3482 10.6246 96.3809 10.6164 96.4147 10.6082C96.4413 10.6021 96.4689 10.596 96.4955 10.5898C96.519 10.5847 96.5436 10.5796 96.5671 10.5755C96.5927 10.5704 96.6182 10.5653 96.6448 10.5612C96.6602 10.5581 96.6755 10.5561 96.6908 10.553C96.7379 10.5448 96.786 10.5377 96.834 10.5315C96.8494 10.5295 96.8647 10.5274 96.8801 10.5254C96.9046 10.5223 96.9302 10.5192 96.9547 10.5172C96.9803 10.5141 97.0069 10.5121 97.0325 10.51C97.0488 10.509 97.0662 10.507 97.0826 10.5059C97.1296 10.5029 97.1757 10.4998 97.2227 10.4978C97.2299 10.4978 97.236 10.4978 97.2432 10.4978C97.2933 10.4957 97.3434 10.4947 97.3935 10.4947C99.0229 10.4947 100.445 11.406 101.174 12.7459C101.174 12.7459 101.174 12.748 101.175 12.749C101.188 12.7725 101.2 12.797 101.213 12.8206C101.222 12.839 101.232 12.8584 101.241 12.8768C101.244 12.883 101.247 12.8891 101.251 12.8963C101.739 13.8925 101.828 15.0513 101.486 16.1161H101.488Z" fill="#B29377"/>
<path d="M125.684 9.52201H128.086V19.8729H129.008V8.625H125.684V9.52201Z" fill="#B29377"/>
<path d="M135.142 12.8234H133.219L133.578 9.50638H138.226V8.60938H132.773L132.25 13.4473L132.5 13.7132H135.13C135.922 13.7132 136.652 13.9914 137.187 14.4977C137.717 14.9989 138.009 15.6801 138.009 16.4155C138.009 17.963 136.847 19.131 135.305 19.131C133.764 19.131 132.717 18.1481 132.598 16.6845L132.583 16.4932H131.662L131.677 16.7162C131.743 17.6531 132.138 18.501 132.791 19.1034C133.448 19.7089 134.341 20.0413 135.305 20.0413C137.377 20.0413 138.938 18.4826 138.938 16.4165C138.938 15.4428 138.555 14.5386 137.857 13.8707C137.154 13.1967 136.189 12.8244 135.142 12.8244V12.8234Z" fill="#B29377"/>
<path d="M144.494 12.8578L147.601 9.10405V8.61719H141.166V9.51419H146.15L143.075 13.2372V13.7118H144.184C145.83 13.7118 147.07 14.8717 147.07 16.411C147.07 17.9504 145.904 19.1378 144.359 19.1378C142.813 19.1378 141.781 18.1539 141.66 16.6902L141.643 16.499H140.723L140.739 16.723C140.883 18.6806 142.371 20.0471 144.359 20.0471C146.346 20.0471 148 18.4884 148 16.4223C148 14.4728 146.507 12.9703 144.494 12.8567V12.8578Z" fill="#B29377"/>
<path d="M44.3212 6.12729C46.9304 6.12729 49.2798 7.67685 50.3077 10.0753L51.129 9.7235C49.9599 6.99668 47.2873 5.23438 44.3212 5.23438C40.2381 5.23438 36.916 8.55647 36.916 12.6385C36.916 16.7206 40.2381 20.0427 44.3212 20.0427C47.2873 20.0427 49.9599 18.2803 51.129 15.5535L50.3077 15.2017C49.2798 17.6002 46.9293 19.1497 44.3212 19.1497C40.7311 19.1497 37.81 16.2286 37.81 12.6385C37.81 9.04844 40.7311 6.12729 44.3212 6.12729Z" fill="#B29377"/>
<path d="M69.9867 5.23438H69.0938V20.0437H69.9867V5.23438Z" fill="#B29377"/>
<path d="M74.6195 5.23438H73.7266V20.0437H74.6195V5.23438Z" fill="#B29377"/>
<path d="M107.817 5.23438H106.924V20.0437H107.817V5.23438Z" fill="#B29377"/>
<path d="M65.3452 14.7225C65.2982 12.6339 64.0156 10.7806 62.0773 10.0012C61.3419 9.70564 60.5789 9.59006 59.8353 9.63404C59.8271 9.63404 59.8179 9.63404 59.8098 9.63506C59.7883 9.63609 59.7668 9.63813 59.7453 9.63915C58.8647 9.70359 58.0403 9.98896 57.3305 10.4421C57.3223 10.4472 57.3141 10.4523 57.3069 10.4574C57.2936 10.4656 57.2803 10.4748 57.267 10.484C56.5582 10.9484 55.9568 11.5897 55.5364 12.3742C55.5344 12.3782 55.5313 12.3834 55.5293 12.3875C55.518 12.4089 55.5068 12.4294 55.4966 12.4509C55.4853 12.4734 55.473 12.4959 55.4618 12.5184C55.4587 12.5245 55.4556 12.5317 55.4526 12.5378C55.2245 13.0001 55.0629 13.5013 54.98 14.0301C54.98 14.0311 54.98 14.0332 54.98 14.0342C54.9739 14.073 54.9688 14.1119 54.9637 14.1508C54.9637 14.1569 54.9626 14.162 54.9616 14.1682C54.9575 14.204 54.9524 14.2398 54.9494 14.2756C54.9494 14.2837 54.9473 14.2919 54.9463 14.3001C54.9422 14.3349 54.9391 14.3697 54.9361 14.4044C54.9361 14.4126 54.935 14.4198 54.934 14.428C54.9309 14.4648 54.9289 14.5016 54.9268 14.5384C54.9268 14.5425 54.9268 14.5466 54.9268 14.5507C54.9258 14.5732 54.9238 14.5957 54.9228 14.6182C54.8696 15.866 55.2623 17.031 55.9589 17.9597C55.9609 17.9618 55.963 17.9648 55.964 17.9669C55.9773 17.9843 55.9895 18.0006 56.0028 18.018C56.3925 18.5253 56.8784 18.9652 57.4471 19.3068C57.4511 19.3088 57.4552 19.3119 57.4593 19.3139C57.4777 19.3252 57.4962 19.3354 57.5146 19.3456C57.5381 19.3589 57.5616 19.3733 57.5851 19.3866C57.5882 19.3876 57.5902 19.3896 57.5933 19.3906C58.2694 19.7691 59.0406 20.0023 59.865 20.0442C59.8773 20.0442 59.8895 20.0452 59.9018 20.0463C59.9049 20.0463 59.909 20.0463 59.912 20.0463C59.957 20.0483 60.002 20.0483 60.047 20.0493C60.0767 20.0493 60.1064 20.0514 60.136 20.0514C60.1473 20.0514 60.1596 20.0514 60.1708 20.0514C60.2332 20.0514 60.2946 20.0493 60.357 20.0473C60.3846 20.0463 60.4112 20.0442 60.4388 20.0432C60.4909 20.0401 60.5421 20.036 60.5943 20.0319C60.6178 20.0299 60.6423 20.0279 60.6659 20.0258C60.7395 20.0187 60.8131 20.0094 60.8858 19.9992C60.897 19.9972 60.9093 19.9951 60.9205 19.9941C60.985 19.9839 61.0494 19.9736 61.1128 19.9614C61.1323 19.9573 61.1527 19.9532 61.1721 19.9501C61.2366 19.9368 61.301 19.9225 61.3655 19.9072C61.3757 19.9051 61.3859 19.9031 61.3951 19.9C61.4708 19.8816 61.5465 19.8601 61.6212 19.8386C61.6324 19.8356 61.6447 19.8315 61.6559 19.8274C61.7204 19.808 61.7838 19.7865 61.8472 19.765C61.8615 19.7599 61.8758 19.7558 61.8891 19.7507C62.0364 19.6975 62.1817 19.6382 62.3238 19.5727C62.3371 19.5666 62.3494 19.5604 62.3627 19.5543C62.4282 19.5236 62.4936 19.4909 62.5581 19.4571C62.5632 19.4541 62.5683 19.452 62.5734 19.4489C62.645 19.4111 62.7156 19.3712 62.7861 19.3303C62.7933 19.3262 62.7994 19.3221 62.8066 19.318C62.871 19.2802 62.9334 19.2403 62.9958 19.1994C63.003 19.1943 63.0112 19.1892 63.0183 19.1851C63.1554 19.094 63.2883 18.9958 63.4172 18.8925C63.4233 18.8874 63.4295 18.8823 63.4356 18.8782C63.5645 18.7729 63.6883 18.6614 63.8059 18.5438C63.8089 18.5407 63.813 18.5376 63.8161 18.5346C64.2283 18.1234 64.5761 17.6406 64.8369 17.0955L64.8338 17.0934H63.8212C63.634 17.3992 63.4131 17.6774 63.1625 17.9239C63.1339 17.9515 63.1063 17.9792 63.0776 18.0058C63.0684 18.0139 63.0592 18.0221 63.05 18.0303C63.0193 18.0579 62.9887 18.0855 62.958 18.1121C62.9488 18.1203 62.9396 18.1275 62.9304 18.1357C62.8997 18.1622 62.868 18.1878 62.8363 18.2134C62.826 18.2216 62.8158 18.2287 62.8066 18.2369C62.7759 18.2615 62.7442 18.286 62.7125 18.3095C62.7012 18.3177 62.69 18.3259 62.6777 18.3351C62.647 18.3576 62.6163 18.3791 62.5846 18.4006C62.5713 18.4098 62.5591 18.418 62.5458 18.4272C62.5161 18.4476 62.4854 18.467 62.4547 18.4865C62.4404 18.4957 62.4261 18.5049 62.4118 18.5131C62.3821 18.5315 62.3525 18.5499 62.3228 18.5673C62.3075 18.5765 62.2921 18.5857 62.2758 18.5939C62.2461 18.6102 62.2164 18.6276 62.1868 18.643C62.1704 18.6522 62.154 18.6604 62.1377 18.6696C62.108 18.6849 62.0784 18.7002 62.0487 18.7146C62.0313 18.7228 62.0149 18.7309 61.9975 18.7391C61.9679 18.7534 61.9382 18.7667 61.9075 18.7811C61.8902 18.7892 61.8728 18.7964 61.8554 18.8046C61.8257 18.8179 61.795 18.8301 61.7643 18.8424C61.747 18.8496 61.7285 18.8567 61.7112 18.8639C61.6805 18.8762 61.6498 18.8874 61.6191 18.8987C61.6017 18.9048 61.5833 18.912 61.5649 18.9181C61.5342 18.9294 61.5025 18.9396 61.4718 18.9498C61.4534 18.956 61.435 18.9611 61.4166 18.9672C61.3859 18.9764 61.3542 18.9866 61.3235 18.9948C61.3041 18.9999 61.2857 19.005 61.2662 19.0102C61.2356 19.0183 61.2049 19.0265 61.1732 19.0347C61.1537 19.0398 61.1333 19.0439 61.1138 19.049C61.0832 19.0562 61.0535 19.0633 61.0228 19.0695C61.0013 19.0736 60.9809 19.0777 60.9594 19.0818C60.9297 19.0879 60.9001 19.093 60.8714 19.0981C60.8489 19.1022 60.8254 19.1053 60.8029 19.1094C60.7753 19.1135 60.7466 19.1176 60.719 19.1216C60.6945 19.1247 60.6689 19.1278 60.6444 19.1309C60.6178 19.1339 60.5922 19.137 60.5656 19.1401C60.539 19.1431 60.5114 19.1452 60.4838 19.1472C60.4592 19.1493 60.4347 19.1513 60.4101 19.1523C60.3815 19.1544 60.3518 19.1554 60.3232 19.1564C60.2997 19.1564 60.2772 19.1585 60.2537 19.1595C60.224 19.1595 60.1933 19.1595 60.1636 19.1605C60.1411 19.1605 60.1176 19.1605 60.0951 19.1605C60.0665 19.1605 60.0368 19.1595 60.0072 19.1585C59.9836 19.1585 59.9601 19.1574 59.9376 19.1564C59.8742 19.1534 59.8108 19.1493 59.7484 19.1431C59.7259 19.1411 59.7024 19.138 59.6799 19.136C59.641 19.1319 59.6031 19.1278 59.5653 19.1227C59.5326 19.1186 59.4998 19.1135 59.4671 19.1083C59.4436 19.1043 59.4211 19.1002 59.3976 19.0961C59.2595 19.0715 59.1224 19.0419 58.9854 19.004C58.9833 19.004 58.9813 19.003 58.9792 19.002C58.8258 18.959 58.6744 18.9079 58.5251 18.8475C58.4791 18.8291 58.433 18.8097 58.387 18.7892C58.3819 18.7872 58.3768 18.7851 58.3717 18.7821C58.3277 18.7626 58.2847 18.7422 58.2418 18.7217C58.2295 18.7156 58.2183 18.7095 58.206 18.7033C58.1528 18.6767 58.1017 18.6491 58.0495 18.6215C58.0127 18.601 57.9759 18.5806 57.939 18.5591C57.9227 18.5499 57.9073 18.5397 57.891 18.5305C57.8439 18.5018 57.7979 18.4732 57.7529 18.4425C57.7478 18.4394 57.7427 18.4353 57.7375 18.4323C57.4512 18.24 57.1883 18.015 56.9561 17.7623C56.9561 17.7623 56.9551 17.7613 56.9541 17.7603C56.8671 17.6662 56.7853 17.567 56.7076 17.4657C56.6912 17.4453 56.6759 17.4238 56.6605 17.4023C56.6441 17.3798 56.6278 17.3573 56.6114 17.3348C56.1655 16.7017 55.8924 15.9571 55.83 15.1808H65.3606L65.3503 14.7236L65.3452 14.7225ZM55.8474 14.2858C55.8484 14.2745 55.8494 14.2633 55.8515 14.252C55.8545 14.2275 55.8586 14.204 55.8617 14.1794C55.8689 14.1313 55.877 14.0843 55.8862 14.0372C55.8924 14.0045 55.8995 13.9718 55.9067 13.9391C55.9128 13.9094 55.92 13.8787 55.9272 13.849C55.9343 13.8173 55.9425 13.7846 55.9507 13.7529C55.9558 13.7314 55.9619 13.711 55.9681 13.6895C55.9844 13.6302 56.0018 13.5698 56.0213 13.5105C56.0274 13.4931 56.0325 13.4747 56.0386 13.4573C56.0601 13.3929 56.0836 13.3284 56.1092 13.265C56.1154 13.2507 56.1205 13.2354 56.1266 13.22C56.1501 13.1607 56.1757 13.1034 56.2023 13.0461C56.2074 13.0349 56.2125 13.0236 56.2176 13.0124C56.2371 12.9705 56.2586 12.9285 56.279 12.8876C56.2923 12.861 56.3046 12.8344 56.3189 12.8088C56.3271 12.7925 56.3363 12.7771 56.3455 12.7608C56.6953 12.1236 57.2016 11.5866 57.8091 11.1969C57.8337 11.1816 57.8582 11.1642 57.8838 11.1488C57.8951 11.1427 57.9063 11.1366 57.9165 11.1294C58.475 10.796 59.104 10.5904 59.7566 10.5321C59.7934 10.529 59.8302 10.5249 59.8681 10.5229C59.8813 10.5229 59.8957 10.5229 59.909 10.5208C60.044 10.5137 60.18 10.5126 60.3171 10.5188C60.7957 10.5382 61.2785 10.6374 61.747 10.8266C63.2096 11.4148 64.2222 12.7424 64.4206 14.2827H55.8504L55.8474 14.2858Z" fill="#B29377"/>
<path d="M122.001 14.7225C121.954 12.6339 120.672 10.7806 118.734 10.0012C117.998 9.70564 117.235 9.59006 116.492 9.63404C116.483 9.63404 116.474 9.63404 116.466 9.63506C116.445 9.63609 116.423 9.63813 116.402 9.63915C115.521 9.70359 114.697 9.98896 113.987 10.4421C113.979 10.4472 113.97 10.4523 113.963 10.4574C113.95 10.4656 113.937 10.4748 113.923 10.484C113.214 10.9484 112.613 11.5897 112.193 12.3742C112.191 12.3782 112.188 12.3834 112.186 12.3875C112.174 12.4089 112.163 12.4294 112.153 12.4509C112.142 12.4734 112.129 12.4959 112.118 12.5184C112.115 12.5245 112.112 12.5317 112.109 12.5378C111.881 13.0001 111.719 13.5013 111.636 14.0301C111.636 14.0311 111.636 14.0332 111.636 14.0342C111.63 14.073 111.625 14.1119 111.62 14.1508C111.62 14.1569 111.619 14.162 111.618 14.1682C111.614 14.204 111.609 14.2398 111.606 14.2756C111.606 14.2837 111.604 14.2919 111.603 14.3001C111.598 14.3349 111.595 14.3697 111.592 14.4044C111.592 14.4126 111.591 14.4198 111.59 14.428C111.587 14.4648 111.585 14.5016 111.583 14.5384C111.583 14.5425 111.583 14.5466 111.583 14.5507C111.582 14.5732 111.58 14.5957 111.579 14.6182C111.526 15.866 111.919 17.031 112.615 17.9597C112.617 17.9618 112.619 17.9648 112.62 17.9669C112.634 17.9843 112.646 18.0006 112.659 18.018C113.049 18.5253 113.535 18.9652 114.103 19.3068C114.107 19.3088 114.111 19.3119 114.116 19.3139C114.134 19.3252 114.152 19.3354 114.171 19.3456C114.194 19.3589 114.218 19.3733 114.241 19.3866C114.244 19.3876 114.246 19.3896 114.25 19.3906C114.926 19.7691 115.697 20.0023 116.521 20.0442C116.534 20.0442 116.546 20.0452 116.558 20.0463C116.561 20.0463 116.565 20.0463 116.568 20.0463C116.613 20.0483 116.658 20.0483 116.703 20.0493C116.733 20.0493 116.763 20.0514 116.792 20.0514C116.804 20.0514 116.816 20.0514 116.827 20.0514C116.889 20.0514 116.951 20.0493 117.013 20.0473C117.041 20.0463 117.067 20.0442 117.095 20.0432C117.147 20.0401 117.198 20.036 117.25 20.0319C117.274 20.0299 117.299 20.0279 117.322 20.0258C117.396 20.0187 117.469 20.0094 117.542 19.9992C117.553 19.9972 117.566 19.9951 117.577 19.9941C117.641 19.9839 117.706 19.9736 117.769 19.9614C117.789 19.9573 117.809 19.9532 117.828 19.9501C117.893 19.9368 117.957 19.9225 118.022 19.9072C118.032 19.9051 118.042 19.9031 118.051 19.9C118.127 19.8816 118.203 19.8601 118.277 19.8386C118.289 19.8356 118.301 19.8315 118.312 19.8274C118.377 19.808 118.44 19.7865 118.503 19.765C118.518 19.7599 118.532 19.7558 118.545 19.7507C118.693 19.6975 118.838 19.6382 118.98 19.5727C118.993 19.5666 119.006 19.5604 119.019 19.5543C119.084 19.5236 119.15 19.4909 119.214 19.4571C119.219 19.4541 119.225 19.452 119.23 19.4489C119.301 19.4111 119.372 19.3712 119.442 19.3303C119.45 19.3262 119.456 19.3221 119.463 19.318C119.527 19.2802 119.59 19.2403 119.652 19.1994C119.659 19.1943 119.667 19.1892 119.675 19.1851C119.812 19.094 119.945 18.9958 120.073 18.8925C120.08 18.8874 120.086 18.8823 120.092 18.8782C120.221 18.7729 120.345 18.6614 120.462 18.5438C120.465 18.5407 120.469 18.5376 120.472 18.5346C120.885 18.1234 121.232 17.6406 121.493 17.0955L121.49 17.0934H120.477C120.29 17.3992 120.069 17.6774 119.819 17.9239C119.79 17.9515 119.763 17.9792 119.734 18.0058C119.725 18.0139 119.715 18.0221 119.706 18.0303C119.676 18.0579 119.645 18.0855 119.614 18.1121C119.605 18.1203 119.596 18.1275 119.587 18.1357C119.556 18.1622 119.524 18.1878 119.493 18.2134C119.482 18.2216 119.472 18.2287 119.463 18.2369C119.432 18.2615 119.4 18.286 119.369 18.3095C119.357 18.3177 119.346 18.3259 119.334 18.3351C119.303 18.3576 119.273 18.3791 119.241 18.4006C119.228 18.4098 119.215 18.418 119.202 18.4272C119.172 18.4476 119.142 18.467 119.111 18.4865C119.097 18.4957 119.082 18.5049 119.068 18.5131C119.038 18.5315 119.009 18.5499 118.979 18.5673C118.964 18.5765 118.948 18.5857 118.932 18.5939C118.902 18.6102 118.873 18.6276 118.843 18.643C118.827 18.6522 118.81 18.6604 118.794 18.6696C118.764 18.6849 118.735 18.7002 118.705 18.7146C118.688 18.7228 118.671 18.7309 118.654 18.7391C118.624 18.7534 118.594 18.7667 118.564 18.7811C118.546 18.7892 118.529 18.7964 118.512 18.8046C118.482 18.8179 118.451 18.8301 118.421 18.8424C118.403 18.8496 118.385 18.8567 118.367 18.8639C118.337 18.8762 118.306 18.8874 118.275 18.8987C118.258 18.9048 118.24 18.912 118.221 18.9181C118.19 18.9294 118.159 18.9396 118.128 18.9498C118.11 18.956 118.091 18.9611 118.073 18.9672C118.042 18.9764 118.01 18.9866 117.98 18.9948C117.96 18.9999 117.942 19.005 117.922 19.0102C117.892 19.0183 117.861 19.0265 117.829 19.0347C117.81 19.0398 117.79 19.0439 117.77 19.049C117.739 19.0562 117.71 19.0633 117.679 19.0695C117.658 19.0736 117.637 19.0777 117.616 19.0818C117.586 19.0879 117.556 19.093 117.528 19.0981C117.505 19.1022 117.482 19.1053 117.459 19.1094C117.432 19.1135 117.403 19.1176 117.375 19.1216C117.351 19.1247 117.325 19.1278 117.301 19.1309C117.274 19.1339 117.248 19.137 117.222 19.1401C117.195 19.1431 117.168 19.1452 117.14 19.1472C117.115 19.1493 117.091 19.1513 117.066 19.1523C117.038 19.1544 117.008 19.1554 116.979 19.1564C116.956 19.1564 116.933 19.1585 116.91 19.1595C116.88 19.1595 116.85 19.1595 116.82 19.1605C116.797 19.1605 116.774 19.1605 116.751 19.1605C116.723 19.1605 116.693 19.1595 116.663 19.1585C116.64 19.1585 116.616 19.1574 116.594 19.1564C116.53 19.1534 116.467 19.1493 116.405 19.1431C116.382 19.1411 116.359 19.138 116.336 19.136C116.298 19.1319 116.259 19.1278 116.222 19.1227C116.189 19.1186 116.156 19.1135 116.123 19.1083C116.1 19.1043 116.077 19.1002 116.054 19.0961C115.916 19.0715 115.779 19.0419 115.642 19.004C115.64 19.004 115.638 19.003 115.635 19.002C115.482 18.959 115.331 18.9079 115.181 18.8475C115.135 18.8291 115.089 18.8097 115.043 18.7892C115.038 18.7872 115.033 18.7851 115.028 18.7821C114.984 18.7626 114.941 18.7422 114.898 18.7217C114.886 18.7156 114.875 18.7095 114.862 18.7033C114.809 18.6767 114.758 18.6491 114.706 18.6215C114.669 18.601 114.632 18.5806 114.595 18.5591C114.579 18.5499 114.564 18.5397 114.547 18.5305C114.5 18.5018 114.454 18.4732 114.409 18.4425C114.404 18.4394 114.399 18.4353 114.394 18.4323C114.107 18.24 113.845 18.015 113.612 17.7623C113.612 17.7623 113.611 17.7613 113.61 17.7603C113.523 17.6662 113.442 17.567 113.364 17.4657C113.347 17.4453 113.332 17.4238 113.317 17.4023C113.3 17.3798 113.284 17.3573 113.268 17.3348C112.822 16.7017 112.549 15.9571 112.486 15.1808H122.017L122.007 14.7236L122.001 14.7225ZM112.504 14.2858C112.505 14.2745 112.506 14.2633 112.508 14.252C112.511 14.2275 112.515 14.204 112.518 14.1794C112.525 14.1313 112.533 14.0843 112.543 14.0372C112.549 14.0045 112.556 13.9718 112.563 13.9391C112.569 13.9094 112.576 13.8787 112.583 13.849C112.591 13.8173 112.599 13.7846 112.607 13.7529C112.612 13.7314 112.618 13.711 112.624 13.6895C112.641 13.6302 112.658 13.5698 112.678 13.5105C112.684 13.4931 112.689 13.4747 112.695 13.4573C112.716 13.3929 112.74 13.3284 112.765 13.265C112.772 13.2507 112.777 13.2354 112.783 13.22C112.806 13.1607 112.832 13.1034 112.859 13.0461C112.864 13.0349 112.869 13.0236 112.874 13.0124C112.893 12.9705 112.915 12.9285 112.935 12.8876C112.949 12.861 112.961 12.8344 112.975 12.8088C112.983 12.7925 112.993 12.7771 113.002 12.7608C113.352 12.1236 113.858 11.5866 114.465 11.1969C114.49 11.1816 114.514 11.1642 114.54 11.1488C114.551 11.1427 114.563 11.1366 114.573 11.1294C115.131 10.796 115.76 10.5904 116.413 10.5321C116.45 10.529 116.486 10.5249 116.524 10.5229C116.538 10.5229 116.552 10.5229 116.565 10.5208C116.7 10.5137 116.836 10.5126 116.973 10.5188C117.452 10.5382 117.935 10.6374 118.403 10.8266C119.866 11.4148 120.878 12.7424 121.077 14.2827H112.507L112.504 14.2858Z" fill="#B29377"/>
<path d="M87.9374 11.7884C87.2255 10.7697 86.1761 10.0384 84.9805 9.72234C82.9481 9.18434 80.7972 9.90746 79.5023 11.5634C78.7178 12.5678 78.3312 13.7942 78.3956 15.0543C78.3976 15.088 78.3997 15.1218 78.4017 15.1555C78.4017 15.1616 78.4017 15.1678 78.4028 15.1739C78.4212 15.4368 78.46 15.6945 78.5163 15.9451C78.5163 15.9451 78.5163 15.9472 78.5163 15.9482C78.5234 15.9799 78.5306 16.0106 78.5388 16.0423C78.5429 16.0576 78.5459 16.073 78.55 16.0883C78.5541 16.1047 78.5582 16.12 78.5623 16.1354C78.8518 17.239 79.49 18.2137 80.4044 18.9287C80.8094 19.2457 81.2472 19.4922 81.7023 19.6733C81.7095 19.6763 81.7156 19.6784 81.7228 19.6815C81.7484 19.6917 81.775 19.7019 81.8005 19.7111C81.8159 19.7173 81.8312 19.7224 81.8466 19.7285C81.8547 19.7316 81.8629 19.7346 81.8711 19.7367C82.4224 19.9341 83.0167 20.0425 83.6355 20.0425C84.8495 20.0425 85.9941 19.6252 86.9044 18.9011C86.9054 18.9 86.9074 18.899 86.9085 18.897C87.2982 18.586 87.6449 18.2178 87.9354 17.8026V19.9903H88.8825V14.8804C88.8825 14.8282 88.8825 14.7771 88.8825 14.7249V9.60062H87.9354V11.7884H87.9374ZM87.9374 14.8661C87.9221 15.7825 87.6142 16.6897 87.0251 17.4435C85.8621 18.9307 83.9096 19.4442 82.2189 18.855C82.2148 18.853 82.2097 18.852 82.2056 18.8499C82.181 18.8407 82.1555 18.8315 82.1309 18.8223C82.1176 18.8172 82.1033 18.8121 82.09 18.807C82.0747 18.8008 82.0593 18.7947 82.0429 18.7885C82.0204 18.7793 81.9979 18.7701 81.9765 18.7609C81.9703 18.7579 81.9632 18.7558 81.957 18.7527C80.7726 18.2485 79.8592 17.2267 79.5013 15.9738C79.5013 15.9717 79.5002 15.9697 79.4992 15.9686C79.4931 15.9451 79.4869 15.9226 79.4808 15.8991C79.4767 15.8838 79.4726 15.8674 79.4685 15.852C79.4665 15.8418 79.4634 15.8326 79.4614 15.8224C79.4215 15.6567 79.3898 15.4889 79.3693 15.3171C79.3601 15.2455 79.354 15.1749 79.3489 15.1034C79.3489 15.1034 79.3489 15.1023 79.3489 15.1013C79.3468 15.0696 79.3448 15.0369 79.3427 15.0052C79.3397 14.9356 79.3376 14.865 79.3376 14.7945C79.3376 12.4236 81.2666 10.4946 83.6375 10.4946C85.2443 10.4946 86.7019 11.3844 87.4424 12.7887C87.4485 12.801 87.4557 12.8133 87.4618 12.8255C87.4792 12.8603 87.4966 12.8951 87.514 12.9309C87.5201 12.9442 87.5262 12.9575 87.5334 12.9708C87.5498 13.0056 87.5651 13.0403 87.5804 13.0751C87.8126 13.607 87.9313 14.1705 87.9395 14.7341V14.8661H87.9374Z" fill="#B29377"/>
<path d="M102.597 12.4462C102.588 12.4278 102.578 12.4094 102.569 12.391C102.233 11.7374 101.754 11.1442 101.138 10.6624C100.153 9.89226 98.9546 9.50666 97.7191 9.55269C97.7129 9.55269 97.7068 9.55269 97.7017 9.55269C97.6434 9.55473 97.5841 9.5578 97.5258 9.56292C97.5084 9.56394 97.49 9.56599 97.4726 9.56701C97.4378 9.57008 97.403 9.57315 97.3683 9.57621C97.3386 9.57928 97.31 9.58235 97.2803 9.58542C97.2762 9.58542 97.2721 9.58542 97.268 9.58644C97.2506 9.58849 97.2332 9.59156 97.2159 9.5936C97.1606 9.60076 97.1064 9.60894 97.0512 9.61815C97.0307 9.62122 97.0092 9.62531 96.9888 9.62838C96.9581 9.63349 96.9284 9.63963 96.8978 9.64474C96.865 9.65088 96.8333 9.65804 96.8016 9.66418C96.773 9.67031 96.7443 9.67645 96.7147 9.68361C96.6717 9.69384 96.6298 9.70407 96.5868 9.71429C96.5735 9.71736 96.5592 9.72145 96.5459 9.72554C95.7594 9.93522 95.0383 10.3218 94.4318 10.8598C94.4236 10.867 94.4154 10.8742 94.4082 10.8813C94.3694 10.9161 94.3315 10.9509 94.2937 10.9867C94.2712 11.0071 94.2497 11.0286 94.2282 11.0501C94.216 11.0624 94.2026 11.0746 94.1904 11.0879C93.9766 11.3027 93.7802 11.5359 93.6053 11.7875V5.23438H92.6582V14.7087C92.6582 14.7608 92.6582 14.814 92.6582 14.8662V19.9895H93.6053V17.8017C94.3172 18.8204 95.3666 19.5517 96.5623 19.8678C97.0082 19.9864 97.4603 20.0437 97.9073 20.0437C99.4978 20.0437 101.029 19.3195 102.04 18.0267C102.359 17.6196 102.606 17.1808 102.787 16.7236C102.789 16.7185 102.791 16.7134 102.793 16.7083C102.804 16.6786 102.817 16.6479 102.828 16.6183C102.834 16.6009 102.84 16.5835 102.846 16.5661C102.853 16.5477 102.86 16.5293 102.866 16.5109C102.876 16.4812 102.886 16.4526 102.896 16.4229C102.898 16.4168 102.9 16.4096 102.902 16.4035C103.065 15.8962 103.154 15.3561 103.154 14.7956C103.154 13.9661 102.96 13.1806 102.616 12.482C102.61 12.4698 102.604 12.4575 102.598 12.4452L102.597 12.4462ZM102 16.1161C102 16.1161 101.998 16.1232 101.996 16.1263C101.988 16.1519 101.979 16.1785 101.97 16.204C101.965 16.2173 101.961 16.2306 101.956 16.2439C101.949 16.2603 101.944 16.2756 101.938 16.292C101.93 16.3145 101.921 16.338 101.912 16.3605C101.91 16.3667 101.906 16.3728 101.904 16.3789C101.272 17.9694 99.7187 19.0966 97.9063 19.0966C96.3004 19.0966 94.8429 18.2067 94.1024 16.8024C94.0963 16.7901 94.0891 16.7778 94.083 16.7645C94.0656 16.7298 94.0482 16.695 94.0308 16.6602C94.0247 16.6469 94.0175 16.6336 94.0114 16.6203C93.995 16.5855 93.9797 16.5508 93.9643 16.516C93.7322 15.9852 93.6135 15.4226 93.6053 14.8601V14.724C93.6207 13.8076 93.9285 12.9014 94.5177 12.1476C94.6261 12.0085 94.7427 11.8775 94.8654 11.7538C94.8716 11.7476 94.8777 11.7415 94.8838 11.7354C94.9074 11.7129 94.9299 11.6904 94.9534 11.6679C94.981 11.6423 95.0086 11.6167 95.0362 11.5922C95.0454 11.584 95.0536 11.5768 95.0628 11.5687C95.5569 11.1329 96.148 10.8148 96.7904 10.643C96.8026 10.6399 96.8149 10.6369 96.8272 10.6328C96.8599 10.6246 96.8926 10.6164 96.9264 10.6082C96.953 10.6021 96.9806 10.596 97.0072 10.5898C97.0307 10.5847 97.0553 10.5796 97.0788 10.5755C97.1044 10.5704 97.1299 10.5653 97.1565 10.5612C97.1719 10.5581 97.1872 10.5561 97.2026 10.553C97.2496 10.5448 97.2977 10.5377 97.3458 10.5315C97.3611 10.5295 97.3764 10.5274 97.3918 10.5254C97.4163 10.5223 97.4419 10.5192 97.4664 10.5172C97.492 10.5141 97.5186 10.5121 97.5442 10.51C97.5605 10.509 97.5779 10.507 97.5943 10.5059C97.6413 10.5029 97.6874 10.4998 97.7344 10.4978C97.7416 10.4978 97.7477 10.4978 97.7549 10.4978C97.805 10.4957 97.8551 10.4947 97.9052 10.4947C99.5346 10.4947 100.956 11.406 101.686 12.7459C101.686 12.7459 101.686 12.748 101.687 12.749C101.7 12.7725 101.712 12.797 101.724 12.8206C101.734 12.839 101.744 12.8584 101.753 12.8768C101.756 12.883 101.759 12.8891 101.762 12.8963C102.251 13.8925 102.34 15.0513 101.998 16.1161H102Z" fill="#B29377"/>
</svg>
