<svg width="601" height="601" viewBox="0 0 601 601" fill="none" xmlns="http://www.w3.org/2000/svg">
<path d="M451.207 300.039C451.207 383.02 383.938 450.289 300.957 450.289C217.976 450.289 150.707 383.02 150.707 300.039C150.707 217.058 217.976 149.789 300.957 149.789C383.938 149.789 451.207 217.058 451.207 300.039Z" fill="#FFEDED"/>
<path fill-rule="evenodd" clip-rule="evenodd" d="M300.957 448.44C382.917 448.44 449.358 381.999 449.358 300.039C449.358 218.08 382.917 151.638 300.957 151.638C218.998 151.638 152.556 218.08 152.556 300.039C152.556 381.999 218.998 448.44 300.957 448.44ZM300.957 450.289C383.938 450.289 451.207 383.02 451.207 300.039C451.207 217.058 383.938 149.789 300.957 149.789C217.976 149.789 150.707 217.058 150.707 300.039C150.707 383.02 217.976 450.289 300.957 450.289Z" fill="#B29377"/>
<path fill-rule="evenodd" clip-rule="evenodd" d="M300.5 599.151C465.44 599.151 599.151 465.44 599.151 300.5C599.151 135.56 465.44 1.84923 300.5 1.84923C135.56 1.84923 1.84923 135.56 1.84923 300.5C1.84923 465.44 135.56 599.151 300.5 599.151ZM300.5 601C466.462 601 601 466.462 601 300.5C601 134.538 466.462 0 300.5 0C134.538 0 0 134.538 0 300.5C0 466.462 134.538 601 300.5 601Z" fill="#B29377"/>
<path fill-rule="evenodd" clip-rule="evenodd" d="M300.957 298.651C382.917 298.651 449.358 232.209 449.358 150.25C449.358 68.2905 382.917 1.84923 300.957 1.84923C218.998 1.84923 152.556 68.2905 152.556 150.25C152.556 232.209 218.998 298.651 300.957 298.651ZM300.957 300.5C383.938 300.5 451.207 233.231 451.207 150.25C451.207 67.2692 383.938 0 300.957 0C217.976 0 150.707 67.2692 150.707 150.25C150.707 233.231 217.976 300.5 300.957 300.5Z" fill="#B29377"/>
<path fill-rule="evenodd" clip-rule="evenodd" d="M300.957 599.151C382.917 599.151 449.358 532.709 449.358 450.75C449.358 368.791 382.917 302.349 300.957 302.349C218.998 302.349 152.556 368.791 152.556 450.75C152.556 532.709 218.998 599.151 300.957 599.151ZM300.957 601C383.938 601 451.207 533.731 451.207 450.75C451.207 367.769 383.938 300.5 300.957 300.5C217.976 300.5 150.707 367.769 150.707 450.75C150.707 533.731 217.976 601 300.957 601Z" fill="#B29377"/>
<path fill-rule="evenodd" clip-rule="evenodd" d="M170.342 520.604C252.301 520.604 318.743 454.163 318.743 372.203C318.743 290.244 252.301 223.802 170.342 223.802C88.3823 223.802 21.941 290.244 21.941 372.203C21.941 454.163 88.3823 520.604 170.342 520.604ZM170.342 522.453C253.323 522.453 320.592 455.184 320.592 372.203C320.592 289.222 253.323 221.953 170.342 221.953C87.361 221.953 20.0918 289.222 20.0918 372.203C20.0918 455.184 87.361 522.453 170.342 522.453Z" fill="#B29377"/>
<path fill-rule="evenodd" clip-rule="evenodd" d="M170.342 379.034C252.301 379.034 318.743 312.592 318.743 230.633C318.743 148.673 252.301 82.232 170.342 82.232C88.3823 82.232 21.941 148.673 21.941 230.633C21.941 312.592 88.3823 379.034 170.342 379.034ZM170.342 380.883C253.323 380.883 320.592 313.614 320.592 230.633C320.592 147.652 253.323 80.3828 170.342 80.3828C87.361 80.3828 20.0918 147.652 20.0918 230.633C20.0918 313.614 87.361 380.883 170.342 380.883Z" fill="#B29377"/>
<path fill-rule="evenodd" clip-rule="evenodd" d="M433.398 520.604C515.358 520.604 581.799 454.163 581.799 372.203C581.799 290.244 515.358 223.802 433.398 223.802C351.439 223.802 284.998 290.244 284.998 372.203C284.998 454.163 351.439 520.604 433.398 520.604ZM433.398 522.453C516.379 522.453 583.648 455.184 583.648 372.203C583.648 289.222 516.379 221.953 433.398 221.953C350.418 221.953 283.148 289.222 283.148 372.203C283.148 455.184 350.418 522.453 433.398 522.453Z" fill="#B29377"/>
<path fill-rule="evenodd" clip-rule="evenodd" d="M433.398 379.034C515.358 379.034 581.799 312.592 581.799 230.633C581.799 148.673 515.358 82.232 433.398 82.232C351.439 82.232 284.998 148.673 284.998 230.633C284.998 312.592 351.439 379.034 433.398 379.034ZM433.398 380.883C516.379 380.883 583.648 313.614 583.648 230.633C583.648 147.652 516.379 80.3828 433.398 80.3828C350.418 80.3828 283.148 147.652 283.148 230.633C283.148 313.614 350.418 380.883 433.398 380.883Z" fill="#B29377"/>
</svg>
